<svg width="40" height="40" viewBox="0 0 40 40" fill="none" xmlns="http://www.w3.org/2000/svg">
<rect width="40" height="40" rx="20" fill="#F7F7F7"/>
<path d="M27.9667 18.9504L26.8417 17.6337C26.6334 17.3837 26.4584 16.9171 26.4584 16.5837V15.1671C26.4584 14.2837 25.7334 13.5587 24.8501 13.5587H23.4334C23.1001 13.5587 22.6251 13.3837 22.3751 13.1754L21.0584 12.0504C20.4834 11.5587 19.5417 11.5587 18.9667 12.0504L17.6334 13.1754C17.3834 13.3837 16.9167 13.5587 16.5834 13.5587H15.1417C14.2584 13.5587 13.5334 14.2837 13.5334 15.1671V16.5837C13.5334 16.9087 13.3667 17.3754 13.1584 17.6254L12.0334 18.9504C11.5501 19.5337 11.5501 20.4671 12.0334 21.0337L13.1584 22.3587C13.3667 22.6004 13.5334 23.0754 13.5334 23.4004V24.8254C13.5334 25.7087 14.2584 26.4337 15.1417 26.4337H16.5917C16.9167 26.4337 17.3917 26.6087 17.6417 26.8171L18.9584 27.9421C19.5334 28.4337 20.4751 28.4337 21.0501 27.9421L22.3667 26.8171C22.6167 26.6087 23.0834 26.4337 23.4167 26.4337H24.8334C25.7167 26.4337 26.4417 25.7087 26.4417 24.8254V23.4087C26.4417 23.0754 26.6167 22.6087 26.8251 22.3587L27.9501 21.0421C28.4584 20.4754 28.4584 19.5337 27.9667 18.9504ZM19.3751 16.7754C19.3751 16.4337 19.6584 16.1504 20.0001 16.1504C20.3417 16.1504 20.6251 16.4337 20.6251 16.7754V20.8004C20.6251 21.1421 20.3417 21.4254 20.0001 21.4254C19.6584 21.4254 19.3751 21.1421 19.3751 20.8004V16.7754ZM20.0001 24.0587C19.5417 24.0587 19.1667 23.6837 19.1667 23.2254C19.1667 22.7671 19.5334 22.3921 20.0001 22.3921C20.4584 22.3921 20.8334 22.7671 20.8334 23.2254C20.8334 23.6837 20.4667 24.0587 20.0001 24.0587Z" fill="#131313"/>
</svg>
