<svg width="32" height="33" viewBox="0 0 32 33" fill="none" xmlns="http://www.w3.org/2000/svg">
<path d="M15.9998 3.16699C8.65317 3.16699 2.6665 9.15366 2.6665 16.5003C2.6665 23.847 8.65317 29.8337 15.9998 29.8337C23.3465 29.8337 29.3332 23.847 29.3332 16.5003C29.3332 9.15366 23.3465 3.16699 15.9998 3.16699ZM21.3332 17.5003H16.9998V21.8337C16.9998 22.3803 16.5465 22.8337 15.9998 22.8337C15.4532 22.8337 14.9998 22.3803 14.9998 21.8337V17.5003H10.6665C10.1198 17.5003 9.6665 17.047 9.6665 16.5003C9.6665 15.9537 10.1198 15.5003 10.6665 15.5003H14.9998V11.167C14.9998 10.6203 15.4532 10.167 15.9998 10.167C16.5465 10.167 16.9998 10.6203 16.9998 11.167V15.5003H21.3332C21.8798 15.5003 22.3332 15.9537 22.3332 16.5003C22.3332 17.047 21.8798 17.5003 21.3332 17.5003Z" fill="white"/>
</svg>
