<svg width="18" height="18" viewBox="0 0 18 18" fill="none" xmlns="http://www.w3.org/2000/svg">
<path d="M9 1.5C4.8675 1.5 1.5 4.8675 1.5 9C1.5 13.1325 4.8675 16.5 9 16.5C13.1325 16.5 16.5 13.1325 16.5 9C16.5 4.8675 13.1325 1.5 9 1.5ZM12.045 8.4525L9.3975 11.1C9.285 11.2125 9.1425 11.265 9 11.265C8.8575 11.265 8.715 11.2125 8.6025 11.1L5.955 8.4525C5.7375 8.235 5.7375 7.875 5.955 7.6575C6.1725 7.44 6.5325 7.44 6.75 7.6575L9 9.9075L11.25 7.6575C11.4675 7.44 11.8275 7.44 12.045 7.6575C12.2625 7.875 12.2625 8.2275 12.045 8.4525Z" fill="#1D396A"/>
</svg>
