<svg width="18" height="18" viewBox="0 0 18 18" fill="none" xmlns="http://www.w3.org/2000/svg">
<path d="M9 16.5C13.1325 16.5 16.5 13.1325 16.5 9C16.5 4.8675 13.1325 1.5 9 1.5C4.8675 1.5 1.5 4.8675 1.5 9C1.5 13.1325 4.8675 16.5 9 16.5ZM5.955 9.5475L8.6025 6.9C8.715 6.7875 8.8575 6.735 9 6.735C9.1425 6.735 9.285 6.7875 9.3975 6.9L12.045 9.5475C12.2625 9.765 12.2625 10.125 12.045 10.3425C11.8275 10.56 11.4675 10.56 11.25 10.3425L9 8.0925L6.75 10.3425C6.5325 10.56 6.1725 10.56 5.955 10.3425C5.7375 10.125 5.7375 9.7725 5.955 9.5475Z" fill="#131313"/>
</svg>
