<svg width="40" height="40" viewBox="0 0 40 40" fill="none" xmlns="http://www.w3.org/2000/svg">
<rect x="0.5" y="0.5" width="39" height="39" rx="19.5" fill="white"/>
<path d="M17.975 25.6829C17.8166 25.6829 17.6583 25.6246 17.5333 25.4996L12.475 20.4413C12.2333 20.1996 12.2333 19.7996 12.475 19.5579L17.5333 14.4996C17.775 14.2579 18.175 14.2579 18.4166 14.4996C18.6583 14.7413 18.6583 15.1413 18.4166 15.3829L13.8 19.9996L18.4166 24.6163C18.6583 24.8579 18.6583 25.2579 18.4166 25.4996C18.3 25.6246 18.1333 25.6829 17.975 25.6829Z" fill="#4B4B4B"/>
<path d="M27.0833 20.625H13.0583C12.7167 20.625 12.4333 20.3417 12.4333 20C12.4333 19.6583 12.7167 19.375 13.0583 19.375H27.0833C27.425 19.375 27.7083 19.6583 27.7083 20C27.7083 20.3417 27.425 20.625 27.0833 20.625Z" fill="#4B4B4B"/>
<rect x="0.5" y="0.5" width="39" height="39" rx="19.5" stroke="#E8F0FF"/>
</svg>
