<svg width="18" height="18" viewBox="0 0 18 18" fill="none" xmlns="http://www.w3.org/2000/svg">
<path d="M8.06254 3.48026L4.74004 1.83776C2.94754 0.960262 1.47754 1.85276 1.47754 3.81776V14.9478C1.47754 15.8028 2.19004 16.5003 3.06004 16.5003H8.62504C9.03754 16.5003 9.37504 16.1628 9.37504 15.7503V5.55776C9.37504 4.77026 8.78254 3.83276 8.06254 3.48026ZM6.72754 10.3128H4.12504C3.81754 10.3128 3.56254 10.0578 3.56254 9.75026C3.56254 9.44276 3.81754 9.18776 4.12504 9.18776H6.72754C7.03504 9.18776 7.29004 9.44276 7.29004 9.75026C7.29004 10.0578 7.04254 10.3128 6.72754 10.3128ZM6.72754 7.31276H4.12504C3.81754 7.31276 3.56254 7.05776 3.56254 6.75026C3.56254 6.44276 3.81754 6.18776 4.12504 6.18776H6.72754C7.03504 6.18776 7.29004 6.44276 7.29004 6.75026C7.29004 7.05776 7.04254 7.31276 6.72754 7.31276Z" fill="#4B4B4B"/>
<path d="M16.5 13.5303V14.6253C16.5 15.6603 15.66 16.5003 14.625 16.5003H11.2275C10.8225 16.5003 10.5 16.1778 10.5 15.7728V14.1528C11.3025 14.2503 12.15 14.0178 12.7575 13.5303C13.2675 13.9428 13.92 14.1903 14.6325 14.1903C15.33 14.1903 15.9825 13.9428 16.5 13.5303Z" fill="#4B4B4B"/>
<path d="M16.5 11.2879V11.2954C16.44 12.2779 15.6375 13.0654 14.6325 13.0654C13.59 13.0654 12.7575 12.2179 12.7575 11.1904C12.7575 12.3379 11.7 13.2604 10.5 13.0279V9.00038C10.5 8.52038 10.9425 8.16038 11.415 8.26538L12.7575 8.56538L13.1175 8.64788L14.6475 8.99288C15.015 9.06788 15.3525 9.19538 15.645 9.38288C15.645 9.39038 15.6525 9.39038 15.6525 9.39038C15.7275 9.44288 15.8025 9.50288 15.87 9.57038C16.215 9.91538 16.44 10.4179 16.4925 11.1529C16.4925 11.1979 16.5 11.2429 16.5 11.2879Z" fill="#4B4B4B"/>
</svg>
