<svg width="40" height="40" viewBox="0 0 40 40" fill="none" xmlns="http://www.w3.org/2000/svg">
<rect x="0.5" y="0.5" width="39" height="39" rx="19.5" fill="#F7F7F7"/>
<path d="M25.9748 15.5336C25.6165 13.7253 24.2748 12.9336 22.4081 12.9336H15.0915C12.8915 12.9336 11.4248 14.0336 11.4248 16.6003V20.8919C11.4248 22.7419 12.1831 23.8253 13.4331 24.2919C13.6165 24.3586 13.8165 24.4169 14.0248 24.4503C14.3581 24.5253 14.7165 24.5586 15.0915 24.5586H22.4165C24.6165 24.5586 26.0831 23.4586 26.0831 20.8919V16.6003C26.0831 16.2086 26.0498 15.8586 25.9748 15.5336ZM14.6081 20.0003C14.6081 20.3419 14.3248 20.6253 13.9831 20.6253C13.6415 20.6253 13.3581 20.3419 13.3581 20.0003V17.5003C13.3581 17.1586 13.6415 16.8753 13.9831 16.8753C14.3248 16.8753 14.6081 17.1586 14.6081 17.5003V20.0003ZM18.7498 20.9503C17.5331 20.9503 16.5498 19.9669 16.5498 18.7503C16.5498 17.5336 17.5331 16.5503 18.7498 16.5503C19.9665 16.5503 20.9498 17.5336 20.9498 18.7503C20.9498 19.9669 19.9665 20.9503 18.7498 20.9503ZM24.1331 20.0003C24.1331 20.3419 23.8498 20.6253 23.5081 20.6253C23.1665 20.6253 22.8831 20.3419 22.8831 20.0003V17.5003C22.8831 17.1586 23.1665 16.8753 23.5081 16.8753C23.8498 16.8753 24.1331 17.1586 24.1331 17.5003V20.0003Z" fill="#4B4B4B"/>
<path d="M28.5831 19.0996V23.3912C28.5831 25.9579 27.1165 27.0662 24.9081 27.0662H17.5915C16.9665 27.0662 16.4081 26.9746 15.9248 26.7912C15.5331 26.6496 15.1915 26.4412 14.9165 26.1746C14.7665 26.0329 14.8831 25.8079 15.0915 25.8079H22.4081C25.4915 25.8079 27.3248 23.9746 27.3248 20.8996V16.5996C27.3248 16.3996 27.5498 16.2746 27.6915 16.4246C28.2581 17.0246 28.5831 17.8996 28.5831 19.0996Z" fill="#4B4B4B"/>
<rect x="0.5" y="0.5" width="39" height="39" rx="19.5" stroke="#E6E6E6"/>
</svg>
