<svg width="40" height="40" viewBox="0 0 40 40" fill="none" xmlns="http://www.w3.org/2000/svg">
<rect width="40" height="40" rx="20" fill="#F7F7F7"/>
<path fill-rule="evenodd" clip-rule="evenodd" d="M10.0004 19.9998C10.0004 14.4769 14.4773 10 20.0002 10C25.5231 10 30 14.4769 30 19.9998C30 25.5227 25.5231 29.9996 20.0002 29.9996C18.2702 30.0022 16.5694 29.5542 15.0653 28.6997L11.3163 29.9486C11.1401 30.0074 10.9511 30.0159 10.7703 29.9733C10.5895 29.9306 10.4242 29.8384 10.2929 29.7071C10.1616 29.5758 10.0694 29.4105 10.0267 29.2297C9.98407 29.0489 9.9926 28.8599 10.0514 28.6837L11.3013 24.9347C10.4464 23.4307 9.99801 21.7299 10.0004 19.9998ZM16.0003 14.9999C15.735 14.9999 15.4807 15.1053 15.2932 15.2928C15.1056 15.4803 15.0003 15.7347 15.0003 15.9999C15.0003 16.2651 15.1056 16.5195 15.2932 16.707C15.4807 16.8945 15.735 16.9999 16.0003 16.9999H24.0001C24.2653 16.9999 24.5197 16.8945 24.7072 16.707C24.8947 16.5195 25.0001 16.2651 25.0001 15.9999C25.0001 15.7347 24.8947 15.4803 24.7072 15.2928C24.5197 15.1053 24.2653 14.9999 24.0001 14.9999H16.0003ZM16.0003 18.9998C15.735 18.9998 15.4807 19.1052 15.2932 19.2927C15.1056 19.4803 15.0003 19.7346 15.0003 19.9998C15.0003 20.265 15.1056 20.5194 15.2932 20.7069C15.4807 20.8944 15.735 20.9998 16.0003 20.9998H24.0001C24.2653 20.9998 24.5197 20.8944 24.7072 20.7069C24.8947 20.5194 25.0001 20.265 25.0001 19.9998C25.0001 19.7346 24.8947 19.4803 24.7072 19.2927C24.5197 19.1052 24.2653 18.9998 24.0001 18.9998H16.0003ZM16.0003 22.9998C15.735 22.9998 15.4807 23.1051 15.2932 23.2927C15.1056 23.4802 15.0003 23.7345 15.0003 23.9997C15.0003 24.265 15.1056 24.5193 15.2932 24.7068C15.4807 24.8944 15.735 24.9997 16.0003 24.9997H19.0002C19.2654 24.9997 19.5198 24.8944 19.7073 24.7068C19.8948 24.5193 20.0002 24.265 20.0002 23.9997C20.0002 23.7345 19.8948 23.4802 19.7073 23.2927C19.5198 23.1051 19.2654 22.9998 19.0002 22.9998H16.0003Z" fill="#131313"/>
</svg>
