<svg width="40" height="40" viewBox="0 0 40 40" fill="none" xmlns="http://www.w3.org/2000/svg">
<rect x="0.5" y="0.5" width="39" height="39" rx="19.5" fill="#F7F7F7"/>
<path d="M22.6832 15.458H14.8165C14.5832 15.458 14.3665 15.4663 14.1665 15.4747C12.1915 15.5913 11.6665 16.3163 11.6665 18.5663V19.0497C11.6665 19.508 12.0415 19.883 12.4998 19.883H24.9998C25.4582 19.883 25.8332 19.508 25.8332 19.0497V18.5663C25.8332 16.083 25.1998 15.458 22.6832 15.458Z" fill="#4B4B4B"/>
<path d="M12.4998 21.1338C12.0415 21.1338 11.6665 21.5088 11.6665 21.9671V24.3921C11.6665 26.8755 12.2998 27.5005 14.8165 27.5005H22.6832C25.1582 27.5005 25.8082 26.9005 25.8332 24.5255V21.9671C25.8332 21.5088 25.4582 21.1338 24.9998 21.1338H12.4998ZM15.7998 25.4671H14.3748C14.0332 25.4671 13.7498 25.1838 13.7498 24.8421C13.7498 24.5005 14.0332 24.2171 14.3748 24.2171H15.8082C16.1498 24.2171 16.4332 24.5005 16.4332 24.8421C16.4332 25.1838 16.1498 25.4671 15.7998 25.4671ZM20.4582 25.4671H17.5915C17.2498 25.4671 16.9665 25.1838 16.9665 24.8421C16.9665 24.5005 17.2498 24.2171 17.5915 24.2171H20.4582C20.7998 24.2171 21.0832 24.5005 21.0832 24.8421C21.0832 25.1838 20.8082 25.4671 20.4582 25.4671Z" fill="#4B4B4B"/>
<path d="M28.3333 21.1083V16.7417C28.3333 14.1333 26.8417 13 24.5917 13H17.15C16.5167 13 15.95 13.0917 15.45 13.2833C15.0583 13.425 14.7083 13.6333 14.425 13.9083C14.275 14.05 14.3917 14.2833 14.6083 14.2833H23.6667C25.5417 14.2833 27.0583 15.8 27.0583 17.675V23.65C27.0583 23.8583 27.2833 23.975 27.4333 23.825C28.0083 23.2167 28.3333 22.325 28.3333 21.1083Z" fill="#4B4B4B"/>
<rect x="0.5" y="0.5" width="39" height="39" rx="19.5" stroke="#E6E6E6"/>
</svg>
