<svg width="36" height="36" viewBox="0 0 36 36" fill="none" xmlns="http://www.w3.org/2000/svg">
<rect x="0.5" y="0.5" width="35" height="35" rx="17.5" fill="white"/>
<path d="M24.0471 13.4863C22.9738 13.3797 21.9004 13.2997 20.8204 13.2397V13.233L20.6738 12.3663C20.5738 11.753 20.4271 10.833 18.8671 10.833H17.1204C15.5671 10.833 15.4204 11.713 15.3138 12.3597L15.1738 13.213C14.5538 13.253 13.9338 13.293 13.3138 13.353L11.9538 13.4863C11.6738 13.513 11.4738 13.7597 11.5004 14.033C11.5271 14.3063 11.7671 14.5063 12.0471 14.4797L13.4071 14.3463C16.9004 13.9997 20.4204 14.133 23.9538 14.4863C23.9738 14.4863 23.9871 14.4863 24.0071 14.4863C24.2604 14.4863 24.4804 14.293 24.5071 14.033C24.5271 13.7597 24.3271 13.513 24.0471 13.4863Z" fill="#DB1D1D"/>
<path d="M22.8202 15.427C22.6602 15.2603 22.4402 15.167 22.2135 15.167H13.7868C13.5602 15.167 13.3335 15.2603 13.1802 15.427C13.0268 15.5937 12.9402 15.8203 12.9535 16.0537L13.3668 22.8937C13.4402 23.907 13.5335 25.1737 15.8602 25.1737H20.1402C22.4668 25.1737 22.5602 23.9137 22.6335 22.8937L23.0468 16.0603C23.0602 15.8203 22.9735 15.5937 22.8202 15.427ZM19.1068 21.8337H16.8868C16.6135 21.8337 16.3868 21.607 16.3868 21.3337C16.3868 21.0603 16.6135 20.8337 16.8868 20.8337H19.1068C19.3802 20.8337 19.6068 21.0603 19.6068 21.3337C19.6068 21.607 19.3802 21.8337 19.1068 21.8337ZM19.6668 19.167H16.3335C16.0602 19.167 15.8335 18.9403 15.8335 18.667C15.8335 18.3937 16.0602 18.167 16.3335 18.167H19.6668C19.9402 18.167 20.1668 18.3937 20.1668 18.667C20.1668 18.9403 19.9402 19.167 19.6668 19.167Z" fill="#DB1D1D"/>
<rect x="0.5" y="0.5" width="35" height="35" rx="17.5" stroke="#F7F7F7"/>
</svg>
