<svg width="52" height="52" viewBox="0 0 52 52" fill="none" xmlns="http://www.w3.org/2000/svg">
<path d="M24.25 24.03C24.25 24.57 24.4 24.65 24.74 24.77L25.25 24.95V23.25H24.95C24.57 23.25 24.25 23.6 24.25 24.03Z" fill="#131313"/>
<path d="M26.75 28.7498H27.05C27.44 28.7498 27.75 28.3998 27.75 27.9698C27.75 27.4298 27.6 27.3498 27.26 27.2298L26.75 27.0498V28.7498Z" fill="#131313"/>
<path d="M33.58 19.48L31.53 21.53C31.38 21.68 31.19 21.75 31 21.75C30.81 21.75 30.62 21.68 30.47 21.53C30.18 21.24 30.18 20.76 30.47 20.47L32.52 18.42C30.76 16.92 28.49 16 26 16C20.48 16 16 20.48 16 26C16 31.52 20.48 36 26 36C31.52 36 36 31.52 36 26C36 23.51 35.08 21.24 33.58 19.48ZM27.75 25.82C28.39 26.05 29.25 26.51 29.25 27.98C29.25 29.23 28.26 30.26 27.05 30.26H26.75V30.51C26.75 30.92 26.41 31.26 26 31.26C25.59 31.26 25.25 30.92 25.25 30.51V30.26H25.17C23.84 30.26 22.75 29.14 22.75 27.76C22.75 27.34 23.09 27 23.5 27C23.91 27 24.25 27.34 24.25 27.75C24.25 28.3 24.66 28.75 25.17 28.75H25.25V26.53L24.25 26.18C23.61 25.95 22.75 25.49 22.75 24.02C22.75 22.77 23.74 21.74 24.95 21.74H25.25V21.5C25.25 21.09 25.59 20.75 26 20.75C26.41 20.75 26.75 21.09 26.75 21.5V21.75H26.83C28.16 21.75 29.25 22.87 29.25 24.25C29.25 24.66 28.91 25 28.5 25C28.09 25 27.75 24.66 27.75 24.25C27.75 23.7 27.34 23.25 26.83 23.25H26.75V25.47L27.75 25.82Z" fill="#131313"/>
<path d="M36.69 15.71C36.61 15.53 36.47 15.38 36.28 15.3C36.19 15.27 36.1 15.25 36 15.25H32C31.59 15.25 31.25 15.59 31.25 16C31.25 16.41 31.59 16.75 32 16.75H34.19L32.52 18.42C32.9 18.75 33.25 19.1 33.58 19.48L35.25 17.81V20C35.25 20.41 35.59 20.75 36 20.75C36.41 20.75 36.75 20.41 36.75 20V16C36.75 15.9 36.73 15.81 36.69 15.71Z" fill="#131313"/>
</svg>
