<svg width="36" height="36" viewBox="0 0 36 36" fill="none" xmlns="http://www.w3.org/2000/svg">
<rect x="0.5" y="0.5" width="35" height="35" rx="17.5" fill="white"/>
<path d="M24 24.667H12C11.7267 24.667 11.5 24.4403 11.5 24.167C11.5 23.8937 11.7267 23.667 12 23.667H24C24.2733 23.667 24.5 23.8937 24.5 24.167C24.5 24.4403 24.2733 24.667 24 24.667Z" fill="#1D396A"/>
<path d="M22.6804 12.3204C21.387 11.0271 20.1204 10.9938 18.7937 12.3204L17.987 13.1271C17.9204 13.1938 17.8937 13.3004 17.9204 13.3938C18.427 15.1604 19.8404 16.5738 21.607 17.0804C21.6337 17.0871 21.6604 17.0938 21.687 17.0938C21.7604 17.0938 21.827 17.0671 21.8804 17.0138L22.6804 16.2071C23.3404 15.5538 23.6604 14.9204 23.6604 14.2804C23.667 13.6204 23.347 12.9804 22.6804 12.3204Z" fill="#1D396A"/>
<path d="M20.4066 17.6865C20.2132 17.5932 20.0266 17.4999 19.8466 17.3932C19.6999 17.3065 19.5599 17.2132 19.4199 17.1132C19.3066 17.0399 19.1732 16.9332 19.0466 16.8265C19.0332 16.8199 18.9866 16.7799 18.9332 16.7265C18.7132 16.5399 18.4666 16.2999 18.2466 16.0332C18.2266 16.0199 18.1932 15.9732 18.1466 15.9132C18.0799 15.8332 17.9666 15.6999 17.8666 15.5465C17.7866 15.4465 17.6932 15.2999 17.6066 15.1532C17.4999 14.9732 17.4066 14.7932 17.3132 14.6065C17.1908 14.3443 16.8467 14.2664 16.6421 14.471L12.8932 18.2199C12.8066 18.3065 12.7266 18.4732 12.7066 18.5865L12.3466 21.1399C12.2799 21.5932 12.4066 22.0199 12.6866 22.3065C12.9266 22.5399 13.2599 22.6665 13.6199 22.6665C13.6999 22.6665 13.7799 22.6599 13.8599 22.6465L16.4199 22.2865C16.5399 22.2665 16.7066 22.1865 16.7866 22.0999L20.5416 18.3448C20.7421 18.1443 20.6668 17.7993 20.4066 17.6865Z" fill="#1D396A"/>
<rect x="0.5" y="0.5" width="35" height="35" rx="17.5" stroke="#F7F7F7"/>
</svg>
