<svg width="101" height="100" viewBox="0 0 101 100" fill="none" xmlns="http://www.w3.org/2000/svg">
<rect x="0.5" width="100" height="100" rx="50" fill="#FCE8E8"/>
<path d="M50.4997 33.333C41.3163 33.333 33.833 40.8163 33.833 49.9997C33.833 59.183 41.3163 66.6663 50.4997 66.6663C59.683 66.6663 67.1663 59.183 67.1663 49.9997C67.1663 40.8163 59.683 33.333 50.4997 33.333ZM49.2497 43.333C49.2497 42.6497 49.8163 42.083 50.4997 42.083C51.183 42.083 51.7497 42.6497 51.7497 43.333V51.6663C51.7497 52.3497 51.183 52.9163 50.4997 52.9163C49.8163 52.9163 49.2497 52.3497 49.2497 51.6663V43.333ZM52.033 57.2997C51.9497 57.5163 51.833 57.683 51.683 57.8497C51.5163 57.9997 51.333 58.1163 51.133 58.1997C50.933 58.283 50.7163 58.333 50.4997 58.333C50.283 58.333 50.0663 58.283 49.8663 58.1997C49.6663 58.1163 49.483 57.9997 49.3163 57.8497C49.1663 57.683 49.0497 57.5163 48.9663 57.2997C48.883 57.0997 48.833 56.883 48.833 56.6663C48.833 56.4497 48.883 56.233 48.9663 56.033C49.0497 55.833 49.1663 55.6497 49.3163 55.483C49.483 55.333 49.6663 55.2163 49.8663 55.133C50.2663 54.9663 50.733 54.9663 51.133 55.133C51.333 55.2163 51.5163 55.333 51.683 55.483C51.833 55.6497 51.9497 55.833 52.033 56.033C52.1163 56.233 52.1663 56.4497 52.1663 56.6663C52.1663 56.883 52.1163 57.0997 52.033 57.2997Z" fill="#DB1D1D"/>
</svg>
