<svg width="100" height="100" viewBox="0 0 100 100" fill="none" xmlns="http://www.w3.org/2000/svg">
<g clip-path="url(#clip0_1711_7142)">
<path d="M50 8C41.6932 8 33.5729 10.4633 26.6661 15.0783C19.7592 19.6933 14.376 26.2528 11.1971 33.9273C8.0182 41.6018 7.18646 50.0466 8.80704 58.1938C10.4276 66.341 14.4277 73.8247 20.3015 79.6985C26.1753 85.5723 33.659 89.5724 41.8062 91.193C49.9534 92.8135 58.3982 91.9818 66.0727 88.8029C73.7472 85.624 80.3067 80.2408 84.9217 73.3339C89.5367 66.4271 92 58.3068 92 50C92 38.8609 87.575 28.178 79.6985 20.3015C71.822 12.425 61.1391 8 50 8ZM44.785 29C44.785 27.6076 45.3381 26.2723 46.3227 25.2877C47.3073 24.3031 48.6426 23.75 50.035 23.75C51.4274 23.75 52.7628 24.3031 53.7473 25.2877C54.7319 26.2723 55.285 27.6076 55.285 29V53.115C55.285 53.8044 55.1492 54.4871 54.8854 55.1241C54.6215 55.761 54.2348 56.3398 53.7473 56.8273C53.2598 57.3148 52.6811 57.7015 52.0441 57.9654C51.4071 58.2292 50.7245 58.365 50.035 58.365C49.3456 58.365 48.6629 58.2292 48.0259 57.9654C47.389 57.7015 46.8102 57.3148 46.3227 56.8273C45.8352 56.3398 45.4485 55.761 45.1846 55.1241C44.9208 54.4871 44.785 53.8044 44.785 53.115V29ZM50 76.25C48.8094 76.25 47.6455 75.8969 46.6555 75.2354C45.6655 74.5739 44.8939 73.6338 44.4383 72.5337C43.9826 71.4337 43.8634 70.2233 44.0957 69.0555C44.328 67.8878 44.9013 66.8151 45.7432 65.9732C46.5851 65.1313 47.6578 64.558 48.8256 64.3257C49.9933 64.0934 51.2038 64.2126 52.3038 64.6682C53.4038 65.1239 54.344 65.8955 55.0055 66.8855C55.6669 67.8754 56.02 69.0394 56.02 70.23C56.02 71.8266 55.3858 73.3578 54.2568 74.4868C53.1278 75.6157 51.5966 76.25 50 76.25Z" fill="#DB1D1D"/>
</g>
<defs>
<clipPath id="clip0_1711_7142">
<rect width="100" height="100" fill="white"/>
</clipPath>
</defs>
</svg>
