<svg width="40" height="40" viewBox="0 0 40 40" fill="none" xmlns="http://www.w3.org/2000/svg">
<rect width="40" height="40" rx="20" fill="#F7F7F7"/>
<path d="M24.167 12.0254H15.8337C13.3337 12.0254 11.667 13.6921 11.667 16.1921V21.1921C11.667 23.6921 13.3337 25.3587 15.8337 25.3587V27.1337C15.8337 27.8004 16.5753 28.2004 17.1253 27.8254L20.8337 25.3587H24.167C26.667 25.3587 28.3337 23.6921 28.3337 21.1921V16.1921C28.3337 13.6921 26.667 12.0254 24.167 12.0254ZM20.0003 22.1671C19.6503 22.1671 19.3753 21.8837 19.3753 21.5421C19.3753 21.2004 19.6503 20.9171 20.0003 20.9171C20.3503 20.9171 20.6253 21.2004 20.6253 21.5421C20.6253 21.8837 20.3503 22.1671 20.0003 22.1671ZM21.0503 18.7087C20.7253 18.9254 20.6253 19.0671 20.6253 19.3004V19.4754C20.6253 19.8171 20.342 20.1004 20.0003 20.1004C19.6587 20.1004 19.3753 19.8171 19.3753 19.4754V19.3004C19.3753 18.3337 20.0837 17.8587 20.3503 17.6754C20.6587 17.4671 20.7587 17.3254 20.7587 17.1087C20.7587 16.6921 20.417 16.3504 20.0003 16.3504C19.5837 16.3504 19.242 16.6921 19.242 17.1087C19.242 17.4504 18.9587 17.7337 18.617 17.7337C18.2753 17.7337 17.992 17.4504 17.992 17.1087C17.992 16.0004 18.892 15.1004 20.0003 15.1004C21.1087 15.1004 22.0087 16.0004 22.0087 17.1087C22.0087 18.0587 21.3087 18.5337 21.0503 18.7087Z" fill="#131313"/>
</svg>
