<svg width="40" height="40" viewBox="0 0 40 40" fill="none" xmlns="http://www.w3.org/2000/svg">
<rect width="40" height="40" rx="20" fill="white"/>
<path d="M20.0003 11.667C22.2645 11.667 22.547 11.6753 23.4353 11.717C24.3228 11.7587 24.927 11.8978 25.4587 12.1045C26.0087 12.3162 26.472 12.6028 26.9353 13.0653C27.3591 13.4819 27.687 13.9858 27.8962 14.542C28.102 15.0728 28.242 15.6778 28.2837 16.5653C28.3228 17.4537 28.3337 17.7362 28.3337 20.0003C28.3337 22.2645 28.3253 22.547 28.2837 23.4353C28.242 24.3228 28.102 24.927 27.8962 25.4587C27.6876 26.0151 27.3596 26.5192 26.9353 26.9353C26.5186 27.3589 26.0147 27.6868 25.4587 27.8962C24.9278 28.102 24.3228 28.242 23.4353 28.2837C22.547 28.3228 22.2645 28.3337 20.0003 28.3337C17.7362 28.3337 17.4537 28.3253 16.5653 28.2837C15.6778 28.242 15.0737 28.102 14.542 27.8962C13.9856 27.6874 13.4816 27.3594 13.0653 26.9353C12.6415 26.5188 12.3136 26.0149 12.1045 25.4587C11.8978 24.9278 11.7587 24.3228 11.717 23.4353C11.6778 22.547 11.667 22.2645 11.667 20.0003C11.667 17.7362 11.6753 17.4537 11.717 16.5653C11.7587 15.677 11.8978 15.0737 12.1045 14.542C12.313 13.9855 12.641 13.4814 13.0653 13.0653C13.4817 12.6414 13.9857 12.3134 14.542 12.1045C15.0737 11.8978 15.677 11.7587 16.5653 11.717C17.4537 11.6778 17.7362 11.667 20.0003 11.667ZM20.0003 15.8337C18.8953 15.8337 17.8354 16.2726 17.054 17.054C16.2726 17.8354 15.8337 18.8953 15.8337 20.0003C15.8337 21.1054 16.2726 22.1652 17.054 22.9466C17.8354 23.728 18.8953 24.167 20.0003 24.167C21.1054 24.167 22.1652 23.728 22.9466 22.9466C23.728 22.1652 24.167 21.1054 24.167 20.0003C24.167 18.8953 23.728 17.8354 22.9466 17.054C22.1652 16.2726 21.1054 15.8337 20.0003 15.8337ZM25.417 15.6253C25.417 15.3491 25.3072 15.0841 25.1119 14.8888C24.9165 14.6934 24.6516 14.5837 24.3753 14.5837C24.0991 14.5837 23.8341 14.6934 23.6388 14.8888C23.4434 15.0841 23.3337 15.3491 23.3337 15.6253C23.3337 15.9016 23.4434 16.1665 23.6388 16.3619C23.8341 16.5572 24.0991 16.667 24.3753 16.667C24.6516 16.667 24.9165 16.5572 25.1119 16.3619C25.3072 16.1665 25.417 15.9016 25.417 15.6253ZM20.0003 17.5003C20.6634 17.5003 21.2993 17.7637 21.7681 18.2326C22.2369 18.7014 22.5003 19.3373 22.5003 20.0003C22.5003 20.6634 22.2369 21.2993 21.7681 21.7681C21.2993 22.2369 20.6634 22.5003 20.0003 22.5003C19.3373 22.5003 18.7014 22.2369 18.2326 21.7681C17.7637 21.2993 17.5003 20.6634 17.5003 20.0003C17.5003 19.3373 17.7637 18.7014 18.2326 18.2326C18.7014 17.7637 19.3373 17.5003 20.0003 17.5003Z" fill="#1D396A"/>
</svg>
