<svg width="281" height="287" viewBox="0 0 281 287" fill="none" xmlns="http://www.w3.org/2000/svg">
<path d="M201.547 192.846C201.208 192.846 200.863 192.786 200.527 192.664L73.1205 145.466C69.8215 144.243 67.2276 141.888 65.8141 138.833C64.4007 135.778 64.3402 132.387 65.6387 129.287L94.2707 61.0237C95.5722 57.9232 98.0782 55.4856 101.329 54.1572C104.579 52.8289 108.187 52.772 111.486 53.9922L229.135 97.5746C235.945 100.098 239.302 107.357 236.617 113.756L216.693 161.261C216.13 162.607 214.51 163.269 213.079 162.738C211.647 162.208 210.945 160.687 211.508 159.341L231.432 111.836C232.186 110.039 232.15 108.07 231.332 106.298C230.512 104.526 229.008 103.158 227.092 102.45L109.443 58.8676C107.53 58.1593 105.436 58.1935 103.55 58.9643C101.665 59.7351 100.209 61.1488 99.4554 62.9493L70.8233 131.213C70.0696 133.01 70.106 134.979 70.9262 136.751C71.7464 138.523 73.2507 139.891 75.1665 140.599L202.573 187.797C204.005 188.326 204.707 189.848 204.144 191.193C203.711 192.223 202.661 192.851 201.55 192.851L201.547 192.846Z" fill="#1D396A"/>
<path d="M225.739 215.581C225.025 215.581 224.314 215.325 223.769 214.813L183.757 177.21C176.953 170.816 176.953 160.408 183.757 154.013C190.561 147.619 201.635 147.619 208.439 154.013L239.841 183.524C240.93 184.548 240.93 186.207 239.841 187.228C238.751 188.252 236.989 188.252 235.9 187.228L204.498 157.717C199.868 153.365 192.328 153.365 187.697 157.717C183.067 162.069 183.067 169.154 187.697 173.506L227.71 211.11C228.799 212.134 228.799 213.792 227.71 214.813C227.165 215.325 226.454 215.581 225.739 215.581Z" fill="#1D396A"/>
<path d="M197.053 214.384C194.356 214.384 191.65 213.957 189.068 213.093L149.931 199.966C142.712 197.545 138.106 190.838 138.732 183.658L139.919 170.036C140.046 168.594 141.389 167.525 142.924 167.642C144.458 167.761 145.6 169.024 145.472 170.466L144.286 184.088C143.865 188.909 146.959 193.409 151.804 195.036L190.942 208.163C196.308 209.964 202.358 209.284 207.122 206.343L214.589 201.735C215.875 200.941 217.603 201.277 218.448 202.486C219.292 203.695 218.935 205.319 217.649 206.112L210.182 210.72C206.26 213.141 201.668 214.387 197.056 214.387L197.053 214.384Z" fill="#1D396A"/>
<path d="M276.635 267.7C275.243 267.7 274.042 266.721 273.872 265.39L262.671 176.968C261.938 171.183 259.632 165.628 255.997 160.909C252.362 156.187 247.471 152.393 241.853 149.929L221.929 141.197C220.534 140.585 219.931 139.027 220.582 137.715C221.233 136.404 222.891 135.838 224.284 136.449L244.208 145.182C250.685 148.021 256.324 152.398 260.513 157.84C264.701 163.281 267.362 169.684 268.206 176.351L279.408 264.77C279.589 266.207 278.5 267.509 276.971 267.68C276.859 267.691 276.747 267.7 276.638 267.7H276.635Z" fill="#1D396A"/>
<path d="M199.474 250.619C198.923 250.619 198.409 250.585 197.924 250.513L168.157 246.216C160.182 245.064 153.947 239.002 152.994 231.473L151.901 222.834C147.434 220.391 144.241 216.215 143.281 211.218C143.254 211.081 143.242 210.945 143.239 210.808L142.873 194.47C142.839 193.025 144.062 191.827 145.6 191.796C147.128 191.756 148.411 192.914 148.445 194.359L148.805 210.478C149.789 215.154 153.617 218.758 158.608 219.683L194.532 226.344C197.658 226.925 200.86 226.609 203.793 225.434L220.334 218.798C221.06 218.505 221.883 218.519 222.601 218.832C223.318 219.145 223.86 219.728 224.093 220.439L226.563 227.986C227.162 229.82 227.204 232.241 226.693 235.39C226.003 239.628 222.928 243.269 218.669 244.893C211.714 247.544 207.304 249.134 205.564 249.62C203.173 250.289 201.166 250.619 199.477 250.619H199.474ZM157.77 224.868L158.527 230.853C159.186 236.055 163.493 240.242 169.002 241.039L198.769 245.337C199.398 245.428 200.915 245.453 203.972 244.6C205.497 244.173 209.97 242.555 216.572 240.04C219.02 239.107 220.788 237.022 221.181 234.599C221.675 231.558 221.426 230.113 221.233 229.524L219.674 224.757L205.981 230.25C202.016 231.84 197.682 232.266 193.451 231.484L157.77 224.868Z" fill="#1D396A"/>
<path d="M214.311 264.48C214.169 264.48 214.026 264.469 213.881 264.449L193.845 261.536C185.751 260.359 179.265 254.766 177.325 247.288C176.959 245.883 177.876 244.467 179.371 244.123C180.866 243.778 182.374 244.64 182.74 246.045C184.144 251.458 188.839 255.506 194.698 256.356L214.735 259.269C216.254 259.491 217.298 260.828 217.062 262.259C216.85 263.553 215.664 264.477 214.311 264.477V264.48Z" fill="#1D396A"/>
<path d="M221.423 223.828C220.125 223.828 218.963 222.969 218.693 221.726L215.815 208.303C215.512 206.886 216.487 205.504 217.997 205.22C219.507 204.932 220.975 205.851 221.278 207.27L224.156 220.693C224.459 222.11 223.484 223.492 221.974 223.777C221.789 223.811 221.602 223.828 221.42 223.828H221.423Z" fill="#1D396A"/>
<path d="M137.924 105.278C136.423 105.278 134.922 105.013 133.481 104.484C130.448 103.369 128.057 101.213 126.753 98.4085C125.448 95.6039 125.382 92.4921 126.565 89.642C127.752 86.7919 130.046 84.5448 133.03 83.3189C136.014 82.0901 139.326 82.0303 142.358 83.1425C145.391 84.2575 147.782 86.4136 149.087 89.2182C150.394 92.0228 150.461 95.1346 149.274 97.9847C148.088 100.835 145.794 103.082 142.809 104.308C141.241 104.954 139.583 105.275 137.921 105.275L137.924 105.278ZM137.918 87.5912C137.016 87.5912 136.117 87.7675 135.264 88.1174C133.645 88.783 132.398 90.0033 131.753 91.5506C131.108 93.098 131.144 94.7876 131.853 96.3094C132.561 97.8311 133.859 99.003 135.506 99.6089C137.152 100.215 138.95 100.181 140.569 99.5122C142.189 98.8466 143.436 97.6263 144.08 96.079C144.725 94.5316 144.689 92.842 143.981 91.3202C143.272 89.7985 141.974 88.6265 140.327 88.0207C139.546 87.7334 138.729 87.5912 137.915 87.5912H137.918Z" fill="#1D396A"/>
<path d="M120.406 98.8403C118.905 98.8403 117.403 98.5758 115.963 98.0467C112.93 96.9317 110.539 94.7756 109.234 91.971C107.927 89.1664 107.863 86.0546 109.047 83.2045C110.233 80.3544 112.527 78.1073 115.512 76.8814C118.496 75.6526 121.807 75.5928 124.84 76.705C127.872 77.82 130.264 79.9761 131.568 82.7807C132.876 85.5853 132.939 88.6971 131.756 91.5472C130.569 94.3973 128.275 96.6444 125.291 97.8704C123.723 98.5161 122.064 98.8375 120.403 98.8375L120.406 98.8403ZM120.4 81.1537C119.498 81.1537 118.599 81.33 117.745 81.6799C116.126 82.3455 114.879 83.5658 114.234 85.1131C113.59 86.6605 113.626 88.3501 114.334 89.8718C115.043 91.3936 116.341 92.5655 117.987 93.1714C119.634 93.7772 121.432 93.7431 123.051 93.0775C124.67 92.4119 125.917 91.1917 126.562 89.6443C127.207 88.0969 127.17 86.4073 126.462 84.8856C125.754 83.3638 124.455 82.1919 122.809 81.586C122.028 81.2987 121.211 81.1565 120.397 81.1565L120.4 81.1537Z" fill="#1D396A"/>
<path d="M145.061 137.22C144.725 137.22 144.38 137.163 144.047 137.041L96.9615 119.741C95.5269 119.215 94.8216 117.696 95.3816 116.348C95.9415 115 97.5578 114.337 98.9924 114.863L146.078 132.163C147.513 132.689 148.218 134.208 147.658 135.556C147.228 136.589 146.175 137.223 145.061 137.223V137.22Z" fill="#1D396A"/>
<path d="M139.247 151.192C138.908 151.192 138.566 151.135 138.233 151.013L91.1475 133.713C89.7129 133.187 89.0077 131.668 89.5676 130.32C90.1275 128.971 91.7438 128.309 93.1785 128.835L140.264 146.135C141.699 146.661 142.404 148.18 141.844 149.528C141.414 150.561 140.361 151.195 139.247 151.195V151.192Z" fill="#1D396A"/>
<path d="M181.429 166.692C181.093 166.692 180.748 166.635 180.415 166.513L148.457 154.771C147.022 154.245 146.317 152.726 146.877 151.377C147.437 150.029 149.053 149.364 150.488 149.893L182.446 161.634C183.881 162.161 184.586 163.68 184.026 165.028C183.596 166.06 182.543 166.695 181.429 166.695V166.692Z" fill="#1D396A"/>
<path d="M205.161 68.3715C204.668 68.3715 204.172 68.2492 203.733 68.0017C186.066 58.0889 178.708 43.8525 175.645 33.6553C172.337 22.6331 173.194 13.9917 173.23 13.6305C173.354 12.4614 174.289 11.5114 175.521 11.3094C187.589 9.32403 203.575 0.455108 203.736 0.366931C204.613 -0.12231 205.706 -0.12231 206.584 0.366931C206.744 0.455108 222.71 9.32688 234.759 11.3094C236.015 11.5171 236.959 12.4956 237.056 13.6902C237.086 14.0515 237.728 22.6303 234.32 33.6126C231.169 43.7729 223.805 57.9808 206.626 67.979C206.178 68.2407 205.67 68.3715 205.158 68.3715H205.161ZM178.69 16.0483C178.642 19.0321 178.875 25.2187 181.069 32.4265C184.992 45.3231 193.085 55.4863 205.134 62.6627C216.932 55.381 224.95 45.1212 228.972 32.1449C231.178 25.0281 231.533 18.9951 231.548 16.0369C226.478 14.9446 220.503 12.8625 213.751 9.83034C209.943 8.12084 206.856 6.53649 205.158 5.63765C203.457 6.53649 200.361 8.12084 196.547 9.83034C189.762 12.8739 183.769 14.9589 178.687 16.0483H178.69Z" fill="#1D396A"/>
<path d="M205.055 66.4995C203.517 66.4995 202.18 65.3276 202.18 63.8798V3.91073C202.18 2.46576 203.517 1.29102 205.055 1.29102C206.592 1.29102 207.93 2.46292 207.93 3.91073V63.8798C207.93 65.3248 206.592 66.4995 205.055 66.4995Z" fill="#1D396A"/>
<path d="M257.477 45.0724H253.018C251.481 45.0724 250.231 43.8151 250.231 42.3702C250.231 40.9252 251.478 39.668 253.018 39.668H257.477C259.014 39.668 260.264 40.9252 260.264 42.3702C260.264 43.8151 259.017 45.0724 257.477 45.0724Z" fill="#1D396A"/>
<path d="M274.753 45.0724H269.738C268.2 45.0724 266.95 43.8151 266.95 42.3702C266.95 40.9252 268.197 39.668 269.738 39.668H274.753C276.29 39.668 277.54 40.9252 277.54 42.3702C277.54 43.8151 276.293 45.0724 274.753 45.0724Z" fill="#1D396A"/>
<path d="M263.621 55.2379C262.083 55.2379 260.897 54.066 260.897 52.6182V48.4283C260.897 46.9833 262.083 45.8086 263.621 45.8086C265.158 45.8086 266.345 46.9805 266.345 48.4283V52.6182C266.345 54.0631 265.158 55.2379 263.621 55.2379Z" fill="#1D396A"/>
<path d="M263.621 39.5259C262.083 39.5259 260.897 38.354 260.897 36.9062V32.1929C260.897 30.748 262.083 29.5732 263.621 29.5732C265.158 29.5732 266.345 30.7451 266.345 32.1929V36.9062C266.345 38.3511 265.158 39.5259 263.621 39.5259Z" fill="#1D396A"/>
<path d="M7.24578 210.618H2.78753C1.24999 210.618 0 209.361 0 207.916C0 206.471 1.24697 205.214 2.78753 205.214H7.24578C8.78331 205.214 10.0333 206.471 10.0333 207.916C10.0333 209.361 8.78634 210.618 7.24578 210.618Z" fill="#1D396A"/>
<path d="M24.5219 210.618H19.5067C17.9692 210.618 16.7192 209.361 16.7192 207.916C16.7192 206.471 17.9661 205.214 19.5067 205.214H24.5219C26.0594 205.214 27.3094 206.471 27.3094 207.916C27.3094 209.361 26.0624 210.618 24.5219 210.618Z" fill="#1D396A"/>
<path d="M13.3171 220.744C11.7796 220.744 10.5931 219.572 10.5931 218.124V213.934C10.5931 212.489 11.7796 211.314 13.3171 211.314C14.8547 211.314 16.0411 212.486 16.0411 213.934V218.124C16.0411 219.569 14.8547 220.744 13.3171 220.744Z" fill="#1D396A"/>
<path d="M13.3171 205.032C11.7796 205.032 10.5931 203.86 10.5931 202.412V197.699C10.5931 196.254 11.7796 195.079 13.3171 195.079C14.8547 195.079 16.0411 196.251 16.0411 197.699V202.412C16.0411 203.857 14.8547 205.032 13.3171 205.032Z" fill="#1D396A"/>
<path d="M91.6769 276.894H87.2187C85.6811 276.894 84.4312 275.636 84.4312 274.191C84.4312 272.746 85.6781 271.489 87.2187 271.489H91.6769C93.2145 271.489 94.4645 272.746 94.4645 274.191C94.4645 275.636 93.2175 276.894 91.6769 276.894Z" fill="#1D396A"/>
<path d="M108.953 276.894H103.938C102.4 276.894 101.15 275.636 101.15 274.191C101.15 272.746 102.397 271.489 103.938 271.489H108.953C110.491 271.489 111.741 272.746 111.741 274.191C111.741 275.636 110.494 276.894 108.953 276.894Z" fill="#1D396A"/>
<path d="M97.7606 287.001C96.2231 287.001 95.0366 285.829 95.0366 284.381V280.191C95.0366 278.746 96.2231 277.571 97.7606 277.571C99.2981 277.571 100.485 278.743 100.485 280.191V284.381C100.485 285.826 99.2981 287.001 97.7606 287.001Z" fill="#1D396A"/>
<path d="M97.7606 271.288C96.2231 271.288 95.0366 270.116 95.0366 268.668V263.955C95.0366 262.51 96.2231 261.335 97.7606 261.335C99.2981 261.335 100.485 262.507 100.485 263.955V268.668C100.485 270.113 99.2981 271.288 97.7606 271.288Z" fill="#1D396A"/>
<path d="M126.202 237.351C122.083 237.351 118.732 234.202 118.732 230.331C118.732 226.459 122.083 223.311 126.202 223.311C130.321 223.311 133.672 226.459 133.672 230.331C133.672 234.202 130.321 237.351 126.202 237.351ZM126.202 228.547C125.155 228.547 124.304 229.346 124.304 230.331C124.304 231.315 125.155 232.114 126.202 232.114C127.249 232.114 128.1 231.315 128.1 230.331C128.1 229.346 127.249 228.547 126.202 228.547Z" fill="#1D396A"/>
<path d="M94.2222 250.95H53.0931C48.2535 250.95 44.3188 247.249 44.3188 242.704V209.214C44.3188 204.666 48.2565 200.968 53.0931 200.968H94.2222C99.0619 200.968 102.996 204.668 102.996 209.214V242.704C102.996 247.252 99.0588 250.95 94.2222 250.95ZM53.0931 206.202C51.3286 206.202 49.891 207.553 49.891 209.211V242.701C49.891 244.36 51.3286 245.711 53.0931 245.711H94.2222C95.9868 245.711 97.4244 244.36 97.4244 242.701V209.211C97.4244 207.553 95.9868 206.202 94.2222 206.202H53.0931Z" fill="#1D396A"/>
<path d="M89.8336 206.141C88.2961 206.141 87.0461 204.969 87.0461 203.521V191.336C87.0461 184.395 81.0382 178.749 73.6532 178.749C66.2681 178.749 60.2603 184.395 60.2603 191.336V203.521C60.2603 204.966 59.0132 206.141 57.4727 206.141C55.9321 206.141 54.6851 204.969 54.6851 203.521V191.336C54.6851 181.508 63.1931 173.513 73.6501 173.513C84.1072 173.513 92.6151 181.508 92.6151 191.336V203.521C92.6151 204.966 91.3681 206.141 89.8276 206.141H89.8336Z" fill="#1D396A"/>
<path d="M83.2081 206.141C81.6706 206.141 80.4206 204.969 80.4206 203.521V191.358C80.4206 187.851 77.3849 184.998 73.6561 184.998C69.9272 184.998 66.8915 187.851 66.8915 191.358V203.521C66.8915 204.966 65.6445 206.141 64.1039 206.141C62.5634 206.141 61.3164 204.969 61.3164 203.521V191.358C61.3164 184.964 66.8522 179.762 73.6561 179.762C80.46 179.762 85.9956 184.964 85.9956 191.358V203.521C85.9956 204.966 84.7487 206.141 83.2081 206.141Z" fill="#1D396A"/>
<path d="M60.4026 250.358C59.9304 250.358 59.4522 250.244 59.0133 250.008C57.6785 249.285 57.2366 247.684 58.0054 246.432L63.5624 237.399V215.937L57.9025 204.764C57.2427 203.459 57.8268 201.897 59.2191 201.274C60.6083 200.654 62.2669 201.209 62.9298 202.517L68.7954 214.225C68.974 214.575 69.0134 214.959 69.0134 215.349V238.101C69.0134 238.559 68.9346 239.011 68.6895 239.41L62.7996 249.052C62.2851 249.894 61.3711 250.363 60.4086 250.363L60.4026 250.358Z" fill="#1D396A"/>
<path d="M86.459 250.358C85.4965 250.358 84.5583 249.888 84.0438 249.049L78.1388 239.407C77.8936 239.008 77.7847 238.556 77.7847 238.098V215.346C77.7847 214.956 77.8573 214.572 78.0359 214.219L83.962 202.512C84.6249 201.206 86.2804 200.651 87.6727 201.274C89.0619 201.897 89.6068 203.459 88.944 204.764L83.2326 215.937V237.396L88.8259 246.43C89.5946 247.681 89.1588 249.282 87.8271 250.008C87.3882 250.247 86.9312 250.36 86.456 250.36L86.459 250.358Z" fill="#1D396A"/>
<path d="M66.0412 222.28H47.6513C46.1138 222.28 44.8638 221.165 44.8638 219.72C44.8638 218.275 46.1107 217.16 47.6513 217.16H66.0412C67.5787 217.16 68.8287 218.275 68.8287 219.72C68.8287 221.165 67.5818 222.28 66.0412 222.28Z" fill="#1D396A"/>
<path d="M66.0412 229.391H47.6513C46.1138 229.391 44.8638 228.276 44.8638 226.831C44.8638 225.386 46.1107 224.271 47.6513 224.271H66.0412C67.5787 224.271 68.8287 225.386 68.8287 226.831C68.8287 228.276 67.5818 229.391 66.0412 229.391Z" fill="#1D396A"/>
<path d="M66.0412 236.786H47.6513C46.1138 236.786 44.8638 235.529 44.8638 234.084C44.8638 232.639 46.1107 231.382 47.6513 231.382H66.0412C67.5787 231.382 68.8287 232.639 68.8287 234.084C68.8287 235.529 67.5818 236.786 66.0412 236.786Z" fill="#1D396A"/>
<path d="M99.7582 222.28H81.0898C79.5522 222.28 78.3022 221.165 78.3022 219.72C78.3022 218.275 79.5492 217.16 81.0898 217.16H99.7582C101.296 217.16 102.546 218.275 102.546 219.72C102.546 221.165 101.299 222.28 99.7582 222.28Z" fill="#1D396A"/>
<path d="M99.7582 229.391H81.0898C79.5522 229.391 78.3022 228.276 78.3022 226.831C78.3022 225.386 79.5492 224.271 81.0898 224.271H99.7582C101.296 224.271 102.546 225.386 102.546 226.831C102.546 228.276 101.299 229.391 99.7582 229.391Z" fill="#1D396A"/>
<path d="M99.7582 236.786H81.0898C79.5522 236.786 78.3022 235.529 78.3022 234.084C78.3022 232.639 79.5492 231.382 81.0898 231.382H99.7582C101.296 231.382 102.546 232.639 102.546 234.084C102.546 235.529 101.299 236.786 99.7582 236.786Z" fill="#1D396A"/>
<path d="M36.5168 193.783C35.4302 193.783 34.3981 193.182 33.9502 192.184C27.2431 177.285 23.8442 161.458 23.8442 145.148C23.8442 128.839 27.2431 113.012 33.9502 98.113C40.4272 83.7231 49.6978 70.8008 61.5048 59.7047C73.3117 48.6086 87.0618 39.8961 102.374 33.8091C118.227 27.5058 135.068 24.3115 152.422 24.3115C153.96 24.3115 155.21 25.4834 155.21 26.9312C155.21 28.379 153.963 29.551 152.422 29.551C135.815 29.551 119.707 32.6059 104.544 38.6332C89.8978 44.4557 76.7409 52.7899 65.4425 63.4082C54.144 74.0264 45.276 86.3883 39.0804 100.155C32.6669 114.406 29.4163 129.544 29.4163 145.151C29.4163 160.759 32.6669 175.897 39.0804 190.147C39.6797 191.479 39.0168 193.017 37.6003 193.581C37.2462 193.72 36.8769 193.788 36.5168 193.788V193.783Z" fill="#1D396A"/>
<path d="M152.425 265.983C139.964 265.983 127.643 264.31 115.806 261.011C114.332 260.598 113.49 259.142 113.926 257.756C114.365 256.368 115.915 255.581 117.389 255.99C128.711 259.145 140.497 260.746 152.425 260.746C156.653 260.746 160.921 260.541 165.101 260.14C166.638 259.995 168 261.039 168.158 262.478C168.315 263.918 167.201 265.203 165.67 265.351C161.299 265.772 156.844 265.985 152.425 265.985V265.983Z" fill="#1D396A"/>
<path d="M276.657 166.459C276.511 166.459 276.363 166.447 276.215 166.425C274.695 166.197 273.657 164.855 273.899 163.427C274.913 157.425 275.428 151.272 275.428 145.143C275.428 131.578 272.952 118.294 268.067 105.662C263.349 93.4566 256.499 82.1443 247.716 72.0409C247.667 71.9868 242.77 66.3691 238.451 62.421C237.35 61.4112 237.325 59.7558 238.397 58.7176C239.468 57.6793 241.236 57.6594 242.338 58.6664C246.887 62.8249 251.823 68.4853 252.032 68.7243C261.215 79.2856 268.373 91.1099 273.306 103.87C278.412 117.077 281 130.96 281 145.14C281 151.543 280.461 157.971 279.402 164.246C279.184 165.534 278.001 166.453 276.654 166.453L276.657 166.459Z" fill="#1D396A"/>
</svg>
