<svg width="281" height="287" viewBox="0 0 281 287" fill="none" xmlns="http://www.w3.org/2000/svg">
<path d="M210.726 105.126C210.309 105.126 209.886 105.036 209.488 104.844C208.063 104.161 207.466 102.455 208.151 101.035L222.367 71.6016C224.103 68.0039 222.579 63.668 218.97 61.9373L166.848 36.9423C165.1 36.1049 163.128 35.9932 161.298 36.6352C159.466 37.2742 157.995 38.5861 157.155 40.3291L133.684 88.2877C132.99 89.7051 131.279 90.2913 129.857 89.5997C128.439 88.908 127.848 87.2022 128.541 85.7848L152.003 37.8386C155.099 31.4185 162.876 28.7016 169.327 31.7969L221.449 56.7919C224.576 58.29 226.927 60.9139 228.075 64.1766C229.223 67.4394 229.027 70.9534 227.522 74.0704L213.302 103.504C212.811 104.524 211.787 105.12 210.723 105.12L210.726 105.126Z" fill="#1D396A"/>
<path d="M156.943 202.721C155.058 202.721 153.145 202.311 151.334 201.443L125.169 188.897C123.744 188.215 123.147 186.509 123.832 185.092C124.516 183.671 126.227 183.073 127.649 183.758L153.814 196.304C155.562 197.141 157.534 197.253 159.363 196.611C161.196 195.972 162.667 194.66 163.507 192.917L175.916 167.286C176.604 165.869 178.315 165.273 179.736 165.955C181.158 166.641 181.755 168.347 181.071 169.764L168.665 195.392C166.434 200.019 161.781 202.721 156.943 202.721Z" fill="#1D396A"/>
<path d="M170.485 185.892C170.068 185.892 169.648 185.802 169.247 185.609L131.086 167.31C129.661 166.628 129.064 164.922 129.749 163.505C130.433 162.084 132.144 161.489 133.569 162.171L171.729 180.47C173.154 181.152 173.751 182.858 173.067 184.279C172.575 185.299 171.552 185.895 170.485 185.895V185.892Z" fill="#1D396A"/>
<path d="M223.136 77.4508C222.72 77.4508 222.3 77.3608 221.898 77.1685L154.344 44.7733C152.919 44.091 152.322 42.3852 153.006 40.9678C153.69 39.5473 155.401 38.9518 156.823 39.6341L224.378 72.0293C225.802 72.7117 226.4 74.4175 225.715 75.8349C225.224 76.8553 224.2 77.4508 223.133 77.4508H223.136Z" fill="#1D396A"/>
<path d="M138.041 181.41C137.624 181.41 137.204 181.32 136.803 181.128L129.583 177.666C128.158 176.984 127.561 175.278 128.245 173.858C128.93 172.437 130.641 171.839 132.062 172.524L139.282 175.985C140.707 176.668 141.304 178.374 140.62 179.794C140.129 180.814 139.105 181.41 138.038 181.41H138.041Z" fill="#1D396A"/>
<path d="M54.0052 224.173C53.5884 224.173 53.1684 224.083 52.7671 223.891C51.3424 223.209 50.7451 221.503 51.4295 220.083L71.7898 177.877L79.9557 132.521C80.1641 124.42 84.2486 116.83 90.912 112.178L134.261 82.2082C137.195 80.1705 140.747 79.4168 144.266 80.096C147.784 80.7722 150.802 82.7912 152.765 85.778C156.569 91.5592 155.194 99.3285 149.638 103.466L118.962 126.308C121.93 129.726 127.144 136.547 130.631 145.677C135.313 157.922 137.621 176.696 122.051 196.601C121.081 197.845 119.283 198.065 118.035 197.097C116.788 196.13 116.567 194.337 117.538 193.093C128.677 178.854 131.306 163.644 125.352 147.892C120.823 135.911 112.79 128.042 112.71 127.965C112.109 127.382 111.792 126.566 111.848 125.732C111.901 124.897 112.318 124.128 112.99 123.629L146.21 98.8912C149.349 96.5557 150.123 92.1671 147.974 88.9012C146.863 87.214 145.159 86.0757 143.174 85.6943C141.189 85.3128 139.18 85.7377 137.521 86.8883L94.1784 116.855C88.9584 120.499 85.773 126.482 85.6672 132.85C85.6672 133.002 85.6485 133.157 85.6236 133.305L77.3488 179.267C77.3022 179.521 77.2244 179.766 77.1124 179.999L56.5841 222.554C56.0926 223.575 55.0691 224.17 54.0021 224.17L54.0052 224.173Z" fill="#1D396A"/>
<path d="M199.338 128.72C193.972 128.72 189.035 125.175 187.53 119.772C185.719 113.283 189.546 106.534 196.053 104.732L215.023 99.4755C218.178 98.6008 221.481 99.004 224.331 100.611C227.18 102.217 229.23 104.832 230.108 107.974C231.918 114.462 228.092 121.211 221.584 123.013L202.614 128.27C201.522 128.574 200.421 128.716 199.338 128.716V128.72ZM218.314 104.732C217.727 104.732 217.135 104.813 216.557 104.974L197.587 110.231C194.118 111.193 192.081 114.788 193.045 118.249C194.01 121.707 197.618 123.739 201.087 122.78L220.057 117.523C223.525 116.562 225.563 112.967 224.598 109.506C224.132 107.831 223.037 106.435 221.519 105.579C220.526 105.021 219.428 104.732 218.314 104.732Z" fill="#1D396A"/>
<path d="M195.126 149.596C189.76 149.596 184.823 146.051 183.318 140.648C181.51 134.157 185.334 127.411 191.841 125.609L210.811 120.352C217.322 118.547 224.088 122.362 225.896 128.85C226.773 131.995 226.368 135.289 224.757 138.13C223.146 140.971 220.523 143.015 217.369 143.889L198.399 149.147C197.307 149.45 196.206 149.593 195.123 149.593L195.126 149.596ZM188.83 139.122C189.794 142.581 193.403 144.612 196.872 143.654L215.841 138.397C219.31 137.435 221.348 133.841 220.383 130.379C219.917 128.705 218.822 127.309 217.303 126.456C215.785 125.6 214.025 125.386 212.342 125.851L193.372 131.108C189.903 132.07 187.866 135.664 188.83 139.126V139.122Z" fill="#1D396A"/>
<path d="M184.244 172.153C178.878 172.153 173.941 168.608 172.436 163.205C171.558 160.06 171.963 156.767 173.574 153.926C175.186 151.085 177.808 149.041 180.963 148.166L199.932 142.909C203.084 142.034 206.39 142.438 209.24 144.044C212.089 145.651 214.143 148.265 215.017 151.407C216.824 157.896 213.001 164.644 206.493 166.446L187.523 171.703C186.431 172.007 185.33 172.15 184.248 172.15L184.244 172.153ZM177.948 161.679C178.912 165.138 182.518 167.169 185.99 166.211L204.959 160.954C208.428 159.992 210.466 156.398 209.501 152.936C209.035 151.261 207.94 149.866 206.421 149.01C204.903 148.154 203.14 147.94 201.46 148.405L182.49 153.662C179.021 154.623 176.984 158.218 177.948 161.679Z" fill="#1D396A"/>
<path d="M101.884 256.026C101.467 256.026 101.047 255.936 100.646 255.743C99.221 255.061 98.6237 253.355 99.3081 251.935L118.545 212.059C119.031 211.051 120.067 210.418 121.19 210.443C129.443 210.629 136.818 208.476 143.096 204.044C147.824 200.707 150.139 197.246 150.164 197.212C151.032 195.9 152.802 195.528 154.121 196.39C155.44 197.249 155.816 199.008 154.958 200.326C154.534 200.974 144.627 215.818 122.919 216.153L104.463 254.407C103.971 255.427 102.948 256.023 101.881 256.023L101.884 256.026Z" fill="#1D396A"/>
<path d="M71.7604 43.8792C70.796 43.8792 69.8534 43.3923 69.3153 42.5114C68.494 41.1654 68.9202 39.4099 70.2703 38.5911C90.9759 26.0176 114.799 19.3711 139.166 19.3711C140.746 19.3711 142.028 20.6489 142.028 22.2245C142.028 23.8 140.746 25.0779 139.166 25.0779C115.85 25.0779 93.054 31.436 73.2473 43.4636C72.7838 43.7458 72.2674 43.8792 71.7604 43.8792Z" fill="#1D396A"/>
<path d="M12.8408 184.173C11.5436 184.173 10.3677 183.286 10.0566 181.974C7.72348 172.077 6.53825 161.858 6.53825 151.598C6.53825 137.576 8.72827 123.768 13.0492 110.559C13.5376 109.061 15.1552 108.242 16.6578 108.732C18.1603 109.219 18.9815 110.832 18.49 112.33C14.3557 124.965 12.2591 138.178 12.2591 151.598C12.2591 161.417 13.3914 171.199 15.625 180.668C15.9858 182.2 15.0339 183.739 13.4941 184.098C13.2732 184.151 13.0523 184.176 12.8377 184.176L12.8408 184.173Z" fill="#1D396A"/>
<path d="M139.166 283.818C118.14 283.818 98.0312 279.054 79.4005 269.663C61.6315 260.705 45.8347 247.608 33.715 231.79C32.7568 230.537 32.9964 228.748 34.2532 227.792C35.5099 226.837 37.3049 227.076 38.263 228.329C49.8632 243.467 64.9819 256 81.9825 264.573C99.8075 273.558 119.048 278.114 139.166 278.114C146.862 278.114 154.567 277.423 162.071 276.058C163.623 275.776 165.116 276.802 165.399 278.353C165.682 279.904 164.653 281.389 163.097 281.672C155.258 283.095 147.204 283.818 139.166 283.818Z" fill="#1D396A"/>
<path d="M263.437 192.247C263.185 192.247 262.929 192.213 262.677 192.145C261.153 191.726 260.257 190.157 260.677 188.637C261.735 184.803 262.618 180.874 263.306 176.95C263.577 175.4 265.06 174.361 266.616 174.631C268.171 174.9 269.213 176.38 268.943 177.931C268.224 182.031 267.3 186.14 266.196 190.144C265.847 191.41 264.693 192.241 263.44 192.241L263.437 192.247Z" fill="#1D396A"/>
<path d="M266.077 127.388C264.755 127.388 263.567 126.47 263.281 125.13C259.57 107.74 252.343 91.6093 241.804 77.1811C240.874 75.9064 241.154 74.123 242.432 73.1957C243.711 72.2683 245.499 72.5474 246.429 73.8222C257.445 88.9017 265.001 105.765 268.88 123.942C269.21 125.484 268.224 126.997 266.678 127.326C266.476 127.37 266.277 127.388 266.081 127.388H266.077Z" fill="#1D396A"/>
<path d="M274.709 246.02H171.333C169.753 246.02 168.471 244.742 168.471 243.167V230.056C168.471 228.481 169.753 227.203 171.333 227.203H274.709C276.289 227.203 277.571 228.481 277.571 230.056V243.167C277.571 244.742 276.289 246.02 274.709 246.02ZM174.195 240.316H271.85V232.913H174.195V240.316Z" fill="#1D396A"/>
<path d="M259.285 287H186.76C185.425 287 184.268 286.082 183.969 284.786L174.699 244.423C174.347 242.887 175.309 241.358 176.849 241.005C178.388 240.654 179.922 241.613 180.277 243.148L189.04 281.293H257.008L265.771 243.148C266.123 241.613 267.66 240.651 269.2 241.005C270.739 241.355 271.704 242.887 271.349 244.423L262.079 284.786C261.78 286.082 260.623 287 259.288 287H259.285Z" fill="#1D396A"/>
<path d="M222.955 277.274C221.375 277.274 220.155 275.996 220.155 274.421V253.883C220.155 252.307 221.375 251.029 222.955 251.029C224.535 251.029 225.755 252.307 225.755 253.883V274.421C225.755 275.996 224.535 277.274 222.955 277.274Z" fill="#1D396A"/>
<path d="M235.862 277.324C235.74 277.324 235.622 277.318 235.498 277.302C233.93 277.104 232.819 275.677 233.018 274.114L235.631 253.535C235.83 251.972 237.261 250.868 238.829 251.063C240.397 251.262 241.508 252.689 241.309 254.252L238.696 274.83C238.512 276.272 237.28 277.324 235.862 277.324Z" fill="#1D396A"/>
<path d="M248.663 277.324C248.43 277.324 248.194 277.297 247.96 277.238C246.43 276.85 245.5 275.299 245.889 273.773L251.115 253.195C251.504 251.669 253.059 250.741 254.59 251.129C256.12 251.517 257.05 253.068 256.661 254.594L251.435 275.172C251.109 276.465 249.942 277.324 248.663 277.324Z" fill="#1D396A"/>
<path d="M210.512 277.325C209.09 277.325 207.862 276.27 207.678 274.831L205.065 254.252C204.866 252.689 205.976 251.263 207.544 251.064C209.112 250.866 210.543 251.973 210.742 253.536L213.355 274.114C213.554 275.678 212.444 277.104 210.876 277.303C210.755 277.318 210.633 277.325 210.512 277.325Z" fill="#1D396A"/>
<path d="M197.713 277.324C196.435 277.324 195.271 276.461 194.942 275.171L189.716 254.593C189.327 253.067 190.254 251.513 191.787 251.128C193.318 250.741 194.876 251.665 195.262 253.194L200.488 273.772C200.877 275.298 199.95 276.852 198.416 277.237C198.18 277.296 197.944 277.324 197.713 277.324Z" fill="#1D396A"/>
<path d="M176.288 232.673C175.678 232.673 175.065 232.481 174.546 232.08C173.292 231.119 173.059 229.329 174.023 228.079L190.414 206.843C191.357 205.621 193.105 205.367 194.359 206.273L205.306 214.163C206.587 215.087 206.874 216.871 205.95 218.145C205.023 219.423 203.234 219.709 201.955 218.787L193.258 212.519L178.562 231.562C177.999 232.291 177.15 232.676 176.291 232.676L176.288 232.673Z" fill="#1D396A"/>
<path d="M264.789 232.172C263.439 232.172 262.238 231.217 261.98 229.846L258.434 210.983L244.746 213.002C243.184 213.231 241.728 212.155 241.498 210.598C241.268 209.041 242.347 207.59 243.909 207.36L260.322 204.941C261.843 204.718 263.271 205.732 263.554 207.236L267.607 228.795C267.9 230.342 266.876 231.834 265.321 232.123C265.144 232.157 264.966 232.172 264.792 232.172H264.789Z" fill="#1D396A"/>
<path d="M206.019 232.176C204.943 232.176 203.913 231.568 203.428 230.535C201.91 227.306 201.138 223.848 201.138 220.26C201.138 206.904 212.035 196.043 225.427 196.043C238.819 196.043 249.717 206.908 249.717 220.26C249.717 223.529 249.073 226.698 247.807 229.688C247.191 231.14 245.514 231.819 244.058 231.205C242.602 230.591 241.921 228.916 242.537 227.467C243.504 225.188 243.996 222.762 243.996 220.263C243.996 210.056 235.665 201.75 225.427 201.75C215.19 201.75 206.859 210.056 206.859 220.263C206.859 223.011 207.447 225.653 208.607 228.116C209.279 229.542 208.663 231.242 207.232 231.909C206.84 232.092 206.426 232.179 206.019 232.179V232.176Z" fill="#1D396A"/>
<path d="M73.8761 90.4835C73.1233 90.4835 72.3953 90.1888 71.854 89.6492L29.5033 47.4253L6.23432 50.2694C4.85934 50.4368 3.56524 49.6025 3.15461 48.2844C2.74398 46.9662 3.33815 45.5458 4.56381 44.9099L23.9909 34.8145C24.7779 34.4051 25.7112 34.3834 26.5169 34.7556L85.6505 62.0861C87.0815 62.7467 87.7037 64.437 87.0473 65.8637L76.4767 88.8242C76.0848 89.674 75.3039 90.2757 74.3831 90.4432C74.2152 90.4742 74.0472 90.4866 73.8792 90.4866L73.8761 90.4835ZM35.2365 45.0712L72.9926 82.7142L80.6577 66.0653L35.2365 45.0712ZM25.3877 40.5182L21.2129 42.6893L28.2279 41.8333L25.3877 40.5213V40.5182Z" fill="#1D396A"/>
<path d="M49.2745 121.146C48.5434 121.146 47.8093 120.867 47.2524 120.311L0.838931 74.0369C0.216766 73.4166 -0.0849852 72.5482 0.0207828 71.6767L2.99162 47.1872C3.15028 45.8877 4.17374 44.8642 5.47407 44.6998L30.1802 41.5952C31.0575 41.4835 31.9347 41.7844 32.56 42.4078L78.9735 88.6822C80.0903 89.7957 80.0903 91.6039 78.9735 92.7173L51.2965 120.311C50.7365 120.87 50.0055 121.146 49.2745 121.146ZM5.86914 70.9819L49.2745 114.257L72.9043 90.6982L29.5052 47.4291L8.40134 50.0809L5.86602 70.985L5.86914 70.9819Z" fill="#1D396A"/>
<path d="M17.8653 54.2901C19.2745 55.695 19.2745 57.9715 17.8653 59.3765C16.4561 60.7815 14.1728 60.7815 12.7636 59.3765C11.3543 57.9715 11.3543 55.695 12.7636 54.2901C14.1728 52.8851 16.4561 52.8851 17.8653 54.2901Z" fill="#1D396A"/>
<path d="M15.3112 63.2836C13.5816 63.2836 11.9578 62.6136 10.7352 61.3947C8.21232 58.8794 8.21232 54.7885 10.7352 52.2732C13.2581 49.7579 17.3613 49.7579 19.8841 52.2732C22.407 54.7885 22.407 58.8794 19.8841 61.3947C18.6616 62.6136 17.0377 63.2836 15.3081 63.2836H15.3112ZM15.3112 56.0881C15.1712 56.0881 14.9628 56.1253 14.7824 56.3052C14.49 56.5967 14.49 57.0681 14.7824 57.3597C14.9628 57.5396 15.1681 57.5768 15.3112 57.5768C15.4543 57.5768 15.6596 57.5396 15.8401 57.3597C16.1325 57.0681 16.1325 56.5967 15.8401 56.3052C15.6596 56.1253 15.4543 56.0881 15.3112 56.0881Z" fill="#1D396A"/>
<path d="M14.1778 58.6225C13.4468 58.6225 12.7126 58.3434 12.1558 57.7882L3.29305 48.952C-0.380835 45.2891 -0.380835 39.328 3.29305 35.6652C4.40983 34.5517 6.22345 34.5517 7.34023 35.6652C8.45702 36.7786 8.45702 38.5868 7.34023 39.7002C5.89681 41.1393 5.89681 43.4779 7.34023 44.917L16.203 53.7531C17.3197 54.8666 17.3197 56.6748 16.203 57.7882C15.643 58.3465 14.912 58.6225 14.1809 58.6225H14.1778Z" fill="#1D396A"/>
<path d="M16.6295 208.31H12.0503C10.47 208.31 9.18838 206.939 9.18838 205.363C9.18838 203.788 10.47 202.417 12.0503 202.417H16.6295C18.2098 202.417 19.4914 203.788 19.4914 205.363C19.4914 206.939 18.2098 208.31 16.6295 208.31Z" fill="#1D396A"/>
<path d="M34.3678 208.31H29.2163C27.636 208.31 26.3544 206.939 26.3544 205.363C26.3544 203.788 27.636 202.417 29.2163 202.417H34.3678C35.9481 202.417 37.2298 203.788 37.2298 205.363C37.2298 206.939 35.9481 208.31 34.3678 208.31Z" fill="#1D396A"/>
<path d="M22.9294 219.367C21.3491 219.367 20.1296 218.089 20.1296 216.514V211.948C20.1296 210.373 21.3491 209.095 22.9294 209.095C24.5097 209.095 25.7291 210.373 25.7291 211.948V216.514C25.7291 218.089 24.5097 219.367 22.9294 219.367Z" fill="#1D396A"/>
<path d="M22.9293 202.253C21.349 202.253 20.1296 200.975 20.1296 199.4V194.264C20.1296 192.688 21.349 191.41 22.9293 191.41C24.5096 191.41 25.729 192.688 25.729 194.264V199.4C25.729 200.975 24.5096 202.253 22.9293 202.253Z" fill="#1D396A"/>
<path d="M260.4 153.104H255.821C254.241 153.104 252.959 151.888 252.959 150.313C252.959 148.737 254.241 147.521 255.821 147.521H260.4C261.98 147.521 263.262 148.737 263.262 150.313C263.262 151.888 261.98 153.104 260.4 153.104Z" fill="#1D396A"/>
<path d="M278.138 153.104H272.987C271.407 153.104 270.125 151.888 270.125 150.313C270.125 148.737 271.407 147.521 272.987 147.521H278.138C279.719 147.521 281 148.737 281 150.313C281 151.888 279.719 153.104 278.138 153.104Z" fill="#1D396A"/>
<path d="M266.662 164.311C265.082 164.311 263.707 163.033 263.707 161.458V156.892C263.707 155.317 265.082 154.039 266.662 154.039C268.243 154.039 269.618 155.317 269.618 156.892V161.458C269.618 163.033 268.243 164.311 266.662 164.311Z" fill="#1D396A"/>
<path d="M266.663 147.197C265.082 147.197 263.707 145.92 263.707 144.344V139.208C263.707 137.632 265.082 136.354 266.663 136.354C268.243 136.354 269.618 137.632 269.618 139.208V144.344C269.618 145.92 268.243 147.197 266.663 147.197Z" fill="#1D396A"/>
<path d="M214.908 16.9476H210.328C208.748 16.9476 207.466 15.5767 207.466 14.0011C207.466 12.4256 208.748 11.0547 210.328 11.0547H214.908C216.488 11.0547 217.77 12.4256 217.77 14.0011C217.77 15.5767 216.488 16.9476 214.908 16.9476Z" fill="#1D396A"/>
<path d="M232.646 16.9476H227.494C225.914 16.9476 224.632 15.5767 224.632 14.0011C224.632 12.4256 225.914 11.0547 227.494 11.0547H232.646C234.226 11.0547 235.508 12.4256 235.508 14.0011C235.508 15.5767 234.226 16.9476 232.646 16.9476Z" fill="#1D396A"/>
<path d="M221.244 27.9607C219.663 27.9607 218.288 26.6828 218.288 25.1073V20.5419C218.288 18.9663 219.663 17.6885 221.244 17.6885C222.824 17.6885 224.199 18.9663 224.199 20.5419V25.1073C224.199 26.6828 222.824 27.9607 221.244 27.9607Z" fill="#1D396A"/>
<path d="M221.244 10.8429C219.663 10.8429 218.288 9.56505 218.288 7.98948V2.85339C218.288 1.27782 219.663 0 221.244 0C222.824 0 224.199 1.27782 224.199 2.85339V7.98948C224.199 9.56505 222.824 10.8429 221.244 10.8429Z" fill="#1D396A"/>
<path d="M43.24 167.397C39.0093 167.397 35.5687 163.967 35.5687 159.749C35.5687 155.531 39.0093 152.101 43.24 152.101C47.4707 152.101 50.9113 155.531 50.9113 159.749C50.9113 163.967 47.4707 167.397 43.24 167.397ZM43.24 157.807C42.1668 157.807 41.2927 158.679 41.2927 159.749C41.2927 160.819 42.1668 161.69 43.24 161.69C44.3132 161.69 45.1874 160.819 45.1874 159.749C45.1874 158.679 44.3132 157.807 43.24 157.807Z" fill="#1D396A"/>
<path d="M244.743 51.4353C240.512 51.4353 237.072 48.005 237.072 43.787C237.072 39.5689 240.512 36.1387 244.743 36.1387C248.974 36.1387 252.414 39.5689 252.414 43.787C252.414 48.005 248.974 51.4353 244.743 51.4353ZM244.743 41.8455C243.67 41.8455 242.796 42.717 242.796 43.787C242.796 44.857 243.67 45.7285 244.743 45.7285C245.816 45.7285 246.69 44.857 246.69 43.787C246.69 42.717 245.816 41.8455 244.743 41.8455Z" fill="#1D396A"/>
</svg>
