<svg width="281" height="287" viewBox="0 0 281 287" fill="none" xmlns="http://www.w3.org/2000/svg">
<path d="M212.434 229.621C212.198 229.621 211.962 229.604 211.723 229.567L60.4219 207.095C59.1349 206.905 57.9969 206.217 57.2185 205.16C56.4402 204.103 56.1169 202.805 56.308 201.503L64.0945 147.898C64.3193 146.352 65.1258 144.986 66.365 144.054C67.6042 143.122 69.13 142.732 70.6614 142.96L220.155 165.162C221.684 165.389 223.036 166.205 223.957 167.458C224.879 168.711 225.264 170.254 225.039 171.802L217.253 225.408C216.896 227.854 214.811 229.621 212.434 229.621ZM61.4475 201.981L212.192 224.37L219.936 171.047C219.987 170.697 219.748 170.373 219.402 170.322L69.9084 148.12C69.5656 148.069 69.2424 148.31 69.1918 148.66L61.4447 201.983L61.4475 201.981Z" fill="#1D396A"/>
<path d="M219.782 170.348C219.048 170.348 218.321 170.032 217.809 169.422L187.13 132.623C184.66 129.921 181.316 128.137 177.714 127.602L121.986 119.326C118.384 118.791 114.677 119.527 111.541 121.397L71.6928 147.722C70.5013 148.509 68.9025 148.171 68.1241 146.966C67.3457 145.762 67.6802 144.145 68.8716 143.358L108.768 117.001C108.799 116.981 108.83 116.962 108.86 116.942C113.019 114.441 117.948 113.458 122.736 114.168L178.464 122.445C183.252 123.156 187.692 125.534 190.963 129.137C190.988 129.165 191.01 129.191 191.036 129.219L221.752 166.063C222.67 167.163 222.53 168.808 221.442 169.737C220.959 170.149 220.369 170.351 219.782 170.351V170.348Z" fill="#1D396A"/>
<path d="M111.33 213.167C111.207 213.167 111.08 213.159 110.954 213.139C109.546 212.928 108.571 211.604 108.779 210.181L117.158 152.498C117.198 152.223 117.282 151.956 117.406 151.708L134.237 117.777C134.875 116.49 136.426 115.97 137.696 116.615C138.969 117.26 139.484 118.828 138.846 120.113L122.199 153.669L113.882 210.937C113.694 212.232 112.592 213.164 111.336 213.164L111.33 213.167Z" fill="#1D396A"/>
<path d="M80.6537 104.988C80.3278 104.988 79.999 104.926 79.6843 104.795L66.2554 99.2773C65.4911 98.9619 64.9206 98.297 64.7211 97.4844L56.3811 63.2062C56.041 61.8083 56.8869 60.3961 58.2694 60.0523L81.064 54.381C81.7271 54.2162 82.4296 54.3241 83.0141 54.6822C83.5986 55.0402 84.0201 55.617 84.1831 56.2904L92.5231 90.5685C92.7198 91.3811 92.5231 92.2364 91.9864 92.8757L82.6207 104.065C82.1205 104.662 81.3956 104.988 80.6509 104.988H80.6537ZM69.4138 94.9499L79.8951 99.2574L87.2038 90.5259L79.7939 60.0722L62.0038 64.4962L69.4138 94.9499Z" fill="#1D396A"/>
<path d="M199.1 145.537C198.98 145.537 198.856 145.529 198.732 145.512L98.1236 131.01C97.9297 130.981 93.5714 130.299 88.9742 126.645C84.8379 123.358 79.6255 116.908 78.2851 104.852C78.1249 103.42 79.1449 102.13 80.5583 101.971C81.9718 101.809 83.2503 102.84 83.4077 104.27C85.5321 123.383 98.222 125.742 98.8682 125.85L199.457 140.349C200.868 140.551 201.846 141.872 201.646 143.298C201.464 144.6 200.359 145.537 199.097 145.537H199.1Z" fill="#1D396A"/>
<path d="M140.501 287C139.076 287 137.972 285.832 137.972 284.394V258.586C137.972 257.145 139.076 255.98 140.501 255.98C141.925 255.98 143.03 257.148 143.03 258.586V284.394C143.03 285.835 141.925 287 140.501 287Z" fill="#1D396A"/>
<path d="M140.501 248.159C139.076 248.159 137.972 246.991 137.972 245.553V241.644C137.972 240.203 139.076 239.038 140.501 239.038C141.925 239.038 143.03 240.206 143.03 241.644V245.553C143.03 246.994 141.925 248.159 140.501 248.159Z" fill="#1D396A"/>
<path d="M140.501 90.4494C139.076 90.4494 137.972 89.2816 137.972 87.8438V82.63C137.972 81.1894 139.076 80.0244 140.501 80.0244C141.925 80.0244 143.03 81.1922 143.03 82.63V87.8438C143.03 89.2844 141.925 90.4494 140.501 90.4494Z" fill="#1D396A"/>
<path d="M140.501 60.734C139.076 60.734 137.972 59.5662 137.972 58.1285V2.60553C137.972 1.16496 139.076 0 140.501 0C141.926 0 143.03 1.1678 143.03 2.60553V58.1285C143.03 59.5691 141.926 60.734 140.501 60.734Z" fill="#1D396A"/>
<path d="M278.423 145.06H230.732C229.307 145.06 228.155 143.801 228.155 142.36C228.155 140.92 229.31 139.661 230.732 139.661H278.423C279.848 139.661 281 140.92 281 142.36C281 143.801 279.845 145.06 278.423 145.06Z" fill="#1D396A"/>
<path d="M48.3474 140.127C48.2602 140.127 48.1731 140.121 48.086 140.113L2.3198 135.442C0.903564 135.297 -0.127689 134.018 0.0128098 132.586C0.156119 131.154 1.42063 130.111 2.83686 130.253L48.603 134.924C50.0193 135.069 51.0505 136.348 50.91 137.78C50.7751 139.124 49.6568 140.124 48.3474 140.124V140.127Z" fill="#1D396A"/>
<path d="M246.87 280.618C246.086 280.618 245.313 280.258 244.807 279.576L241.997 275.791C241.143 274.64 241.373 273.006 242.512 272.14C243.65 271.276 245.265 271.509 246.12 272.66L248.93 276.445C249.784 277.595 249.553 279.229 248.415 280.096C247.952 280.448 247.409 280.618 246.87 280.618Z" fill="#1D396A"/>
<path d="M235.852 265.778C235.068 265.778 234.296 265.417 233.79 264.735L217.818 243.221C216.963 242.07 217.194 240.436 218.332 239.57C219.47 238.706 221.086 238.939 221.94 240.09L237.912 261.604C238.766 262.755 238.536 264.389 237.398 265.253C236.934 265.605 236.392 265.775 235.852 265.775V265.778Z" fill="#1D396A"/>
<path d="M117.639 87.9545C116.607 87.9545 115.635 87.3265 115.236 86.298L95.7068 35.8127C95.1869 34.4716 95.8416 32.96 97.1679 32.4343C98.4942 31.9087 99.9891 32.5707 100.509 33.9118L120.038 84.3971C120.558 85.7382 119.904 87.2498 118.577 87.7755C118.268 87.8977 117.951 87.9545 117.639 87.9545Z" fill="#1D396A"/>
<path d="M92.0342 21.7652C91.0029 21.7652 90.0307 21.1373 89.6317 20.1087L87.6169 14.8977C87.0971 13.5566 87.7518 12.0449 89.0781 11.5193C90.4044 10.9936 91.8993 11.6557 92.4191 12.9968L94.4339 18.2078C94.9538 19.549 94.2991 21.0606 92.9728 21.5862C92.6637 21.7084 92.3461 21.7652 92.0342 21.7652Z" fill="#1D396A"/>
<path d="M256.708 83.1803C255.78 83.1803 254.884 82.6717 254.423 81.7852C253.763 80.5094 254.249 78.9353 255.508 78.2648L261.499 75.0853C262.761 74.4176 264.317 74.9091 264.981 76.1821C265.641 77.4578 265.155 79.0319 263.896 79.7025L257.905 82.882C257.523 83.0837 257.113 83.1803 256.711 83.1803H256.708Z" fill="#1D396A"/>
<path d="M218.779 103.3C217.851 103.3 216.955 102.791 216.494 101.905C215.834 100.629 216.32 99.0551 217.579 98.3845L239.539 86.735C240.801 86.0644 242.357 86.5588 243.02 87.8318C243.681 89.1075 243.195 90.6816 241.936 91.3522L219.976 103.002C219.594 103.203 219.183 103.3 218.781 103.3H218.779Z" fill="#1D396A"/>
<path d="M11.68 213.168C10.7527 213.168 9.8563 212.659 9.39546 211.773C8.73511 210.497 9.22127 208.923 10.4801 208.252L32.2772 196.688C33.5389 196.02 35.0956 196.512 35.7588 197.785C36.4191 199.06 35.9329 200.634 34.6741 201.305L12.8771 212.869C12.4949 213.071 12.0847 213.168 11.6828 213.168H11.68Z" fill="#1D396A"/>
<path d="M275.116 243.058C274.619 243.058 274.116 242.913 273.672 242.609L250.52 226.76C249.34 225.953 249.034 224.334 249.832 223.14C250.63 221.947 252.234 221.637 253.412 222.444L276.563 238.293C277.743 239.1 278.05 240.72 277.252 241.913C276.754 242.658 275.942 243.058 275.116 243.058Z" fill="#1D396A"/>
<path d="M239.019 218.347C238.522 218.347 238.019 218.202 237.575 217.898L234.405 215.727C233.225 214.92 232.918 213.3 233.717 212.107C234.515 210.914 236.119 210.604 237.296 211.411L240.466 213.582C241.646 214.389 241.953 216.008 241.155 217.202C240.657 217.946 239.845 218.347 239.019 218.347Z" fill="#1D396A"/>
<path d="M214.915 35.4944C214.412 35.4944 213.903 35.3466 213.456 35.0369C212.282 34.2214 211.984 32.599 212.79 31.4113L216.651 25.7286C217.458 24.5409 219.062 24.2397 220.237 25.0552C221.411 25.8707 221.709 27.4931 220.903 28.6808L217.042 34.3635C216.542 35.0994 215.735 35.4944 214.915 35.4944Z" fill="#1D396A"/>
<path d="M190.142 71.9576C189.639 71.9576 189.131 71.8099 188.684 71.5001C187.509 70.6847 187.211 69.0623 188.018 67.8746L203.31 45.3653C204.116 44.1776 205.721 43.8765 206.895 44.6919C208.07 45.5074 208.368 47.1298 207.561 48.3175L192.269 70.8267C191.769 71.5627 190.963 71.9576 190.142 71.9576Z" fill="#1D396A"/>
<path d="M177.581 90.4492C177.078 90.4492 176.57 90.3014 176.123 89.9917C174.948 89.1763 174.65 87.5538 175.457 86.3662L179.003 81.1466C179.81 79.9589 181.414 79.6577 182.589 80.4732C183.763 81.2886 184.061 82.9111 183.255 84.0988L179.708 89.3183C179.208 90.0542 178.402 90.4492 177.581 90.4492Z" fill="#1D396A"/>
<path d="M43.5002 244.19C42.8595 244.19 42.216 243.948 41.7158 243.465C40.6873 242.468 40.6536 240.82 41.6371 239.78L55.628 225.016C56.6143 223.976 58.2441 223.942 59.2726 224.937C60.301 225.934 60.3348 227.582 59.3513 228.622L45.3603 243.386C44.8545 243.92 44.1774 244.19 43.4974 244.19H43.5002Z" fill="#1D396A"/>
<path d="M29.2677 259.206C28.627 259.206 27.9836 258.964 27.4834 258.481C26.4549 257.484 26.4212 255.836 27.4047 254.796L30.209 251.836C31.1954 250.796 32.8251 250.761 33.8536 251.756C34.882 252.753 34.9158 254.401 33.9323 255.441L31.1279 258.402C30.6221 258.936 29.9449 259.206 29.2649 259.206H29.2677Z" fill="#1D396A"/>
<path d="M52.1634 110.77C51.9134 110.77 51.6605 110.733 51.4076 110.656L45.6696 108.88C44.3096 108.46 43.5424 107.002 43.9583 105.624C44.3742 104.246 45.8157 103.473 47.1785 103.894L52.9166 105.67C54.2766 106.09 55.0437 107.548 54.6278 108.926C54.2878 110.048 53.2678 110.77 52.1634 110.77Z" fill="#1D396A"/>
<path d="M33.4936 104.988C33.2435 104.988 32.9906 104.951 32.7377 104.874L17.4992 100.155C16.1392 99.7341 15.372 98.2765 15.7879 96.8985C16.2038 95.5232 17.6481 94.7475 19.0081 95.1681L34.2467 99.8876C35.6068 100.308 36.3738 101.766 35.958 103.144C35.618 104.266 34.5979 104.988 33.4936 104.988Z" fill="#1D396A"/>
<path d="M7.52124 96.9442C7.27115 96.9442 7.01827 96.9073 6.76537 96.8306L5.62169 96.4754C4.26166 96.0549 3.49451 94.5972 3.9132 93.2192C4.32908 91.844 5.77059 91.0683 7.13343 91.4916L8.27711 91.8468C9.63714 92.2673 10.4043 93.7249 9.9856 95.103C9.6456 96.2253 8.62557 96.947 7.52124 96.947V96.9442Z" fill="#1D396A"/>
<path d="M231.502 63.5129H227.377C225.952 63.5129 224.8 62.3962 224.8 60.9557C224.8 59.5151 225.955 58.3984 227.377 58.3984H231.502C232.927 58.3984 234.079 59.5151 234.079 60.9557C234.079 62.3962 232.924 63.5129 231.502 63.5129Z" fill="#1D396A"/>
<path d="M247.485 63.5129H242.846C241.421 63.5129 240.269 62.3962 240.269 60.9557C240.269 59.5151 241.424 58.3984 242.846 58.3984H247.485C248.91 58.3984 250.062 59.5151 250.062 60.9557C250.062 62.3962 248.907 63.5129 247.485 63.5129Z" fill="#1D396A"/>
<path d="M237.164 73.7669C235.74 73.7669 234.635 72.5991 234.635 71.1614V66.9903C234.635 65.5497 235.74 64.3848 237.164 64.3848C238.589 64.3848 239.693 65.5526 239.693 66.9903V71.1614C239.693 72.602 238.589 73.7669 237.164 73.7669Z" fill="#1D396A"/>
<path d="M237.164 58.1258C235.74 58.1258 234.635 56.958 234.635 55.5202V50.8292C234.635 49.3886 235.74 48.2236 237.164 48.2236C238.589 48.2236 239.693 49.3914 239.693 50.8292V55.5202C239.693 56.9608 238.589 58.1258 237.164 58.1258Z" fill="#1D396A"/>
<path d="M250.838 190.522H246.712C245.288 190.522 244.136 189.405 244.136 187.964C244.136 186.524 245.291 185.407 246.712 185.407H250.838C252.262 185.407 253.414 186.524 253.414 187.964C253.414 189.405 252.259 190.522 250.838 190.522Z" fill="#1D396A"/>
<path d="M266.821 190.522H262.181C260.757 190.522 259.605 189.405 259.605 187.964C259.605 186.524 260.76 185.407 262.181 185.407H266.821C268.245 185.407 269.398 186.524 269.398 187.964C269.398 189.405 268.243 190.522 266.821 190.522Z" fill="#1D396A"/>
<path d="M256.553 200.717C255.128 200.717 254.024 199.549 254.024 198.112V193.94C254.024 192.5 255.128 191.335 256.553 191.335C257.978 191.335 259.082 192.503 259.082 193.94V198.112C259.082 199.552 257.978 200.717 256.553 200.717Z" fill="#1D396A"/>
<path d="M256.553 185.075C255.128 185.075 254.024 183.907 254.024 182.469V177.778C254.024 176.338 255.128 175.173 256.553 175.173C257.978 175.173 259.082 176.341 259.082 177.778V182.469C259.082 183.91 257.978 185.075 256.553 185.075Z" fill="#1D396A"/>
<path d="M61.6164 265.819H57.4914C56.0667 265.819 54.9146 264.702 54.9146 263.261C54.9146 261.821 56.0695 260.704 57.4914 260.704H61.6164C63.0411 260.704 64.1931 261.821 64.1931 263.261C64.1931 264.702 63.0382 265.819 61.6164 265.819Z" fill="#1D396A"/>
<path d="M77.5993 265.819H72.96C71.5354 265.819 70.3833 264.702 70.3833 263.261C70.3833 261.821 71.5382 260.704 72.96 260.704H77.5993C79.024 260.704 80.1761 261.821 80.1761 263.261C80.1761 264.702 79.0212 265.819 77.5993 265.819Z" fill="#1D396A"/>
<path d="M67.3007 276.05C65.876 276.05 64.6312 274.882 64.6312 273.445V269.274C64.6312 267.833 65.876 266.668 67.3007 266.668C68.7254 266.668 69.9702 267.836 69.9702 269.274V273.445C69.9702 274.885 68.7254 276.05 67.3007 276.05Z" fill="#1D396A"/>
<path d="M67.3007 260.411C65.876 260.411 64.6312 259.243 64.6312 257.805V253.114C64.6312 251.674 65.876 250.509 67.3007 250.509C68.7254 250.509 69.9702 251.677 69.9702 253.114V257.805C69.9702 259.246 68.7254 260.411 67.3007 260.411Z" fill="#1D396A"/>
<path d="M26.0387 53.5685H21.9136C20.489 53.5685 19.3369 52.3098 19.3369 50.8692C19.3369 49.4286 20.4918 48.1699 21.9136 48.1699H26.0387C27.4633 48.1699 28.6155 49.4286 28.6155 50.8692C28.6155 52.3098 27.4605 53.5685 26.0387 53.5685Z" fill="#1D396A"/>
<path d="M42.0219 53.5685H37.3826C35.958 53.5685 34.8059 52.3098 34.8059 50.8692C34.8059 49.4286 35.9608 48.1699 37.3826 48.1699H42.0219C43.4466 48.1699 44.5987 49.4286 44.5987 50.8692C44.5987 52.3098 43.4438 53.5685 42.0219 53.5685Z" fill="#1D396A"/>
<path d="M31.7543 63.6019C30.3297 63.6019 29.2253 62.4341 29.2253 60.9964V56.8253C29.2253 55.3847 30.3297 54.2197 31.7543 54.2197C33.179 54.2197 34.2833 55.3875 34.2833 56.8253V60.9964C34.2833 62.4369 33.179 63.6019 31.7543 63.6019Z" fill="#1D396A"/>
<path d="M31.7543 47.9598C30.3297 47.9598 29.2253 46.792 29.2253 45.3542V40.6632C29.2253 39.2226 30.3297 38.0576 31.7543 38.0576C33.179 38.0576 34.2833 39.2254 34.2833 40.6632V45.3542C34.2833 46.7948 33.179 47.9598 31.7543 47.9598Z" fill="#1D396A"/>
<path d="M92.0342 247.439C88.2238 247.439 85.1216 244.305 85.1216 240.45C85.1216 236.594 88.221 233.46 92.0342 233.46C95.8473 233.46 98.9468 236.594 98.9468 240.45C98.9468 244.305 95.8473 247.439 92.0342 247.439ZM92.0342 238.677C91.0675 238.677 90.2779 239.472 90.2779 240.453C90.2779 241.433 91.0647 242.228 92.0342 242.228C93.0036 242.228 93.7904 241.433 93.7904 240.453C93.7904 239.472 93.0036 238.677 92.0342 238.677Z" fill="#1D396A"/>
<path d="M231.502 125.935C227.692 125.935 224.59 122.801 224.59 118.945C224.59 115.089 227.689 111.955 231.502 111.955C235.316 111.955 238.412 115.089 238.412 118.945C238.412 122.801 235.313 125.935 231.502 125.935ZM231.502 117.172C230.536 117.172 229.746 117.967 229.746 118.948C229.746 119.928 230.533 120.724 231.502 120.724C232.472 120.724 233.259 119.928 233.259 118.948C233.259 117.967 232.472 117.172 231.502 117.172Z" fill="#1D396A"/>
</svg>
