<svg width="40" height="40" viewBox="0 0 40 40" fill="none" xmlns="http://www.w3.org/2000/svg">
<rect width="40" height="40" rx="20" fill="#F7F7F7"/>
<path d="M16.3748 27.4245C16.3498 27.4245 16.3165 27.4412 16.2915 27.4412C14.6748 26.6412 13.3581 25.3162 12.5498 23.6995C12.5498 23.6745 12.5665 23.6412 12.5665 23.6162C13.5831 23.9162 14.6331 24.1412 15.6748 24.3162C15.8581 25.3662 16.0748 26.4079 16.3748 27.4245Z" fill="#131313"/>
<path d="M27.4502 23.7079C26.6252 25.3662 25.2502 26.7079 23.5752 27.5162C23.8919 26.4579 24.1585 25.3912 24.3335 24.3162C25.3835 24.1412 26.4169 23.9162 27.4335 23.6162C27.4252 23.6495 27.4502 23.6829 27.4502 23.7079Z" fill="#131313"/>
<path d="M27.5169 16.4251C26.4669 16.1084 25.4085 15.8501 24.3335 15.6667C24.1585 14.5917 23.9002 13.5251 23.5752 12.4834C25.3002 13.3084 26.6919 14.7001 27.5169 16.4251Z" fill="#131313"/>
<path d="M16.3751 12.5748C16.0751 13.5915 15.8584 14.6248 15.6834 15.6748C14.6084 15.8415 13.5417 16.1081 12.4834 16.4248C13.2917 14.7498 14.6334 13.3748 16.2917 12.5498C16.3167 12.5498 16.3501 12.5748 16.3751 12.5748Z" fill="#131313"/>
<path d="M22.9085 15.492C20.9751 15.2753 19.0251 15.2753 17.0918 15.492C17.3001 14.3503 17.5668 13.2087 17.9418 12.1087C17.9585 12.042 17.9501 11.992 17.9585 11.9253C18.6168 11.767 19.2918 11.667 20.0001 11.667C20.7001 11.667 21.3835 11.767 22.0335 11.9253C22.0418 11.992 22.0418 12.042 22.0585 12.1087C22.4335 13.217 22.7001 14.3503 22.9085 15.492Z" fill="#131313"/>
<path d="M15.492 22.9085C14.342 22.7001 13.2087 22.4335 12.1087 22.0585C12.042 22.0418 11.992 22.0501 11.9253 22.0418C11.767 21.3835 11.667 20.7085 11.667 20.0001C11.667 19.3001 11.767 18.6168 11.9253 17.9668C11.992 17.9585 12.042 17.9585 12.1087 17.9418C13.217 17.5751 14.342 17.3001 15.492 17.0918C15.2837 19.0251 15.2837 20.9751 15.492 22.9085Z" fill="#131313"/>
<path d="M28.3338 20.0001C28.3338 20.7085 28.2338 21.3835 28.0755 22.0418C28.0088 22.0501 27.9588 22.0418 27.8921 22.0585C26.7838 22.4251 25.6505 22.7001 24.5088 22.9085C24.7255 20.9751 24.7255 19.0251 24.5088 17.0918C25.6505 17.3001 26.7921 17.5668 27.8921 17.9418C27.9588 17.9585 28.0088 17.9668 28.0755 17.9668C28.2338 18.6251 28.3338 19.3001 28.3338 20.0001Z" fill="#131313"/>
<path d="M22.9085 24.5088C22.7001 25.6588 22.4335 26.7921 22.0585 27.8921C22.0418 27.9588 22.0418 28.0088 22.0335 28.0755C21.3835 28.2338 20.7001 28.3338 20.0001 28.3338C19.2918 28.3338 18.6168 28.2338 17.9585 28.0755C17.9501 28.0088 17.9585 27.9588 17.9418 27.8921C17.5751 26.7838 17.3001 25.6588 17.0918 24.5088C18.0585 24.6171 19.0251 24.6921 20.0001 24.6921C20.9751 24.6921 21.9501 24.6171 22.9085 24.5088Z" fill="#131313"/>
<path d="M23.1364 23.1364C21.0522 23.3994 18.9485 23.3994 16.8642 23.1364C16.6013 21.0522 16.6013 18.9485 16.8642 16.8642C18.9485 16.6013 21.0522 16.6013 23.1364 16.8642C23.3994 18.9485 23.3994 21.0522 23.1364 23.1364Z" fill="#131313"/>
</svg>
