<svg width="40" height="40" viewBox="0 0 40 40" fill="none" xmlns="http://www.w3.org/2000/svg">
<rect width="40" height="40" rx="20" fill="#F7F7F7"/>
<path d="M16.3582 12.9751C16.5077 12.8935 16.6665 13.019 16.6665 13.1892V24.4667C16.6665 24.664 16.5314 24.8306 16.3582 24.9251L14.3999 26.0417C13.0332 26.8251 11.9082 26.1751 11.9082 24.5917V16.4834C11.9082 15.9584 12.2832 15.3084 12.7499 15.0417L16.3582 12.9751Z" fill="#131313"/>
<path d="M22.2219 15.0621C22.3922 15.1465 22.5 15.3201 22.5 15.5102V26.2868C22.5 26.6553 22.115 26.8972 21.783 26.7372L18.408 25.1112C18.235 25.0279 18.125 24.8528 18.125 24.6608V13.8388C18.125 13.4679 18.5146 13.2261 18.8469 13.3907L22.2219 15.0621Z" fill="#131313"/>
<path d="M28.333 15.4081V23.5164C28.333 24.0414 27.958 24.6914 27.4913 24.9581L24.7066 26.554C24.3733 26.7451 23.958 26.5044 23.958 26.1202V15.3234C23.958 15.1439 24.0542 14.9781 24.2101 14.8891L25.8413 13.9581C27.208 13.1747 28.333 13.8247 28.333 15.4081Z" fill="#131313"/>
</svg>
