<svg width="22" height="22" viewBox="0 0 22 22" fill="none" xmlns="http://www.w3.org/2000/svg">
<path d="M18.9017 7.97467C17.9483 3.73051 14.245 1.83301 11 1.83301C11 1.83301 11 1.83301 10.9908 1.83301C7.755 1.83301 4.06083 3.73051 3.09833 7.96551C2.01667 12.6955 4.91333 16.7013 7.535 19.2313C8.50667 20.1663 9.75333 20.6338 11 20.6338C12.2467 20.6338 13.4933 20.1663 14.4558 19.2313C17.0775 16.7013 19.9742 12.7047 18.9017 7.97467ZM13.5208 10.7705H11.6875V12.6038C11.6875 12.9797 11.3758 13.2913 11 13.2913C10.6242 13.2913 10.3125 12.9797 10.3125 12.6038V10.7705H8.47917C8.10333 10.7705 7.79167 10.4588 7.79167 10.083C7.79167 9.70717 8.10333 9.39551 8.47917 9.39551H10.3125V7.56217C10.3125 7.18634 10.6242 6.87467 11 6.87467C11.3758 6.87467 11.6875 7.18634 11.6875 7.56217V9.39551H13.5208C13.8967 9.39551 14.2083 9.70717 14.2083 10.083C14.2083 10.4588 13.8967 10.7705 13.5208 10.7705Z" fill="#797979"/>
</svg>
