<svg width="40" height="40" viewBox="0 0 40 40" fill="none" xmlns="http://www.w3.org/2000/svg">
<rect width="40" height="40" rx="20" fill="#FCE8E8"/>
<path d="M24 11.667H21.8333C19.1667 11.667 17.5 13.3337 17.5 16.0003V19.3753H22.7083C23.05 19.3753 23.3333 19.6587 23.3333 20.0003C23.3333 20.342 23.05 20.6253 22.7083 20.6253H17.5V24.0003C17.5 26.667 19.1667 28.3337 21.8333 28.3337H23.9917C26.6583 28.3337 28.325 26.667 28.325 24.0003V16.0003C28.3333 13.3337 26.6667 11.667 24 11.667Z" fill="#DB1D1D"/>
<path d="M13.8002 19.3745L15.5252 17.6495C15.6502 17.5245 15.7085 17.3662 15.7085 17.2079C15.7085 17.0495 15.6502 16.8829 15.5252 16.7662C15.2835 16.5245 14.8835 16.5245 14.6419 16.7662L11.8502 19.5579C11.6085 19.7995 11.6085 20.1995 11.8502 20.4412L14.6419 23.2329C14.8835 23.4745 15.2835 23.4745 15.5252 23.2329C15.7669 22.9912 15.7669 22.5912 15.5252 22.3495L13.8002 20.6245H17.5002V19.3745H13.8002Z" fill="#DB1D1D"/>
</svg>
