<svg width="18" height="18" viewBox="0 0 18 18" fill="none" xmlns="http://www.w3.org/2000/svg">
<path d="M5.72229 2.67727C5.85682 2.60388 5.99979 2.71678 5.99979 2.87003V13.0197C5.99979 13.1973 5.87821 13.3472 5.72229 13.4323L3.95979 14.4373C2.72979 15.1423 1.71729 14.5573 1.71729 13.1323V5.83477C1.71729 5.36227 2.05479 4.77727 2.47479 4.53727L5.72229 2.67727Z" fill="#4B4B4B"/>
<path d="M10.9719 4.54274C11.1422 4.6271 11.25 4.80073 11.25 4.99081V14.5791C11.25 14.9476 10.865 15.1895 10.533 15.0296L7.59548 13.6143C7.42248 13.531 7.3125 13.3559 7.3125 13.1639V3.53604C7.3125 3.16519 7.70206 2.92339 8.0344 3.08798L10.9719 4.54274Z" fill="#4B4B4B"/>
<path d="M16.5 4.86755V12.165C16.5 12.6375 16.1625 13.2225 15.7425 13.4625L13.3111 14.856C12.9778 15.047 12.5625 14.8064 12.5625 14.4222V4.82037C12.5625 4.64086 12.6587 4.47512 12.8146 4.38613L14.2575 3.56255C15.4875 2.85755 16.5 3.44255 16.5 4.86755Z" fill="#4B4B4B"/>
</svg>
