<svg width="44" height="44" viewBox="0 0 44 44" fill="none" xmlns="http://www.w3.org/2000/svg">
<rect width="44" height="44" rx="22" fill="#F4F8FF"/>
<path d="M29.5 18C30.8807 18 32 16.8807 32 15.5C32 14.1193 30.8807 13 29.5 13C28.1193 13 27 14.1193 27 15.5C27 16.8807 28.1193 18 29.5 18Z" fill="#1D396A"/>
<path d="M29.5 18C30.8807 18 32 16.8807 32 15.5C32 14.1193 30.8807 13 29.5 13C28.1193 13 27 14.1193 27 15.5C27 16.8807 28.1193 18 29.5 18Z" fill="#1D396A"/>
<path d="M30.72 19.31C30.02 19.53 29.25 19.57 28.45 19.37C27.11 19.02 26.02 17.95 25.65 16.61C25.47 15.96 25.46 15.32 25.57 14.74C25.7 14.1 25.25 13.5 24.61 13.5H17C14 13.5 12 15 12 18.5V25.5C12 29 14 30.5 17 30.5H27C30 30.5 32 29 32 25.5V20.26C32 19.6 31.36 19.1 30.72 19.31ZM25.52 21.15L24.34 22.09C23.68 22.62 22.84 22.88 22 22.88C21.16 22.88 20.31 22.62 19.66 22.09L16.53 19.59C16.21 19.33 16.16 18.85 16.41 18.53C16.67 18.21 17.14 18.15 17.46 18.41L20.59 20.91C21.35 21.52 22.64 21.52 23.4 20.91L24.58 19.97C24.9 19.71 25.38 19.76 25.63 20.09C25.89 20.41 25.84 20.89 25.52 21.15Z" fill="#1D396A"/>
</svg>
