<svg width="18" height="18" viewBox="0 0 18 18" fill="none" xmlns="http://www.w3.org/2000/svg">
<path d="M14.3777 4.97965C14.0552 3.35215 12.8477 2.63965 11.1677 2.63965H4.58272C2.60271 2.63965 1.28271 3.62965 1.28271 5.93965V9.80215C1.28271 11.4671 1.96521 12.4421 3.09021 12.8621C3.25521 12.9221 3.43521 12.9746 3.62271 13.0046C3.92271 13.0721 4.24521 13.1021 4.58272 13.1021H11.1752C13.1552 13.1021 14.4752 12.1121 14.4752 9.80215V5.93965C14.4752 5.58715 14.4452 5.27215 14.3777 4.97965ZM4.14772 8.99965C4.14772 9.30715 3.89271 9.56215 3.58522 9.56215C3.27771 9.56215 3.02271 9.30715 3.02271 8.99965V6.74965C3.02271 6.44215 3.27771 6.18715 3.58522 6.18715C3.89271 6.18715 4.14772 6.44215 4.14772 6.74965V8.99965ZM7.87521 9.85465C6.78021 9.85465 5.89522 8.96965 5.89522 7.87465C5.89522 6.77965 6.78021 5.89465 7.87521 5.89465C8.97021 5.89465 9.85522 6.77965 9.85522 7.87465C9.85522 8.96965 8.97021 9.85465 7.87521 9.85465ZM12.7202 8.99965C12.7202 9.30715 12.4652 9.56215 12.1577 9.56215C11.8502 9.56215 11.5952 9.30715 11.5952 8.99965V6.74965C11.5952 6.44215 11.8502 6.18715 12.1577 6.18715C12.4652 6.18715 12.7202 6.44215 12.7202 6.74965V8.99965Z" fill="#4B4B4B"/>
<path d="M16.7248 8.18972V12.0522C16.7248 14.3622 15.4048 15.3597 13.4173 15.3597H6.83233C6.26983 15.3597 5.76733 15.2772 5.33233 15.1122C4.97983 14.9847 4.67233 14.7972 4.42483 14.5572C4.28983 14.4297 4.39483 14.2272 4.58233 14.2272H11.1673C13.9423 14.2272 15.5923 12.5772 15.5923 9.80972V5.93972C15.5923 5.75972 15.7948 5.64722 15.9223 5.78222C16.4323 6.32222 16.7248 7.10972 16.7248 8.18972Z" fill="#4B4B4B"/>
</svg>
