<svg width="23" height="22" viewBox="0 0 23 22" fill="none" xmlns="http://www.w3.org/2000/svg">
<path d="M2.83408 10.9997C2.83408 6.19079 6.75378 2.27109 11.5627 2.27109C16.3715 2.27109 20.2912 6.19079 20.2912 10.9997C20.2912 15.8086 16.3715 19.7283 11.5627 19.7283C6.75378 19.7283 2.83408 15.8086 2.83408 10.9997ZM6.54124 10.9997C6.54124 11.7429 7.13786 12.3544 7.896 12.3544C8.65413 12.3544 9.25075 11.7429 9.25075 10.9997C9.25075 10.2536 8.64211 9.64492 7.896 9.64492C7.14988 9.64492 6.54124 10.2536 6.54124 10.9997ZM10.2079 10.9997C10.2079 11.7429 10.8045 12.3544 11.5627 12.3544C12.3208 12.3544 12.9174 11.7429 12.9174 10.9997C12.9174 10.2536 12.3088 9.64492 11.5627 9.64492C10.8165 9.64492 10.2079 10.2536 10.2079 10.9997ZM13.8746 10.9997C13.8746 11.7429 14.4712 12.3544 15.2293 12.3544C15.9875 12.3544 16.5841 11.7429 16.5841 10.9997C16.5841 10.2536 15.9754 9.64492 15.2293 9.64492C14.4832 9.64492 13.8746 10.2536 13.8746 10.9997Z" fill="#797979" stroke="#797979" stroke-width="0.876168"/>
</svg>
