<svg width="40" height="40" viewBox="0 0 40 40" fill="none" xmlns="http://www.w3.org/2000/svg">
<rect width="40" height="40" rx="20" fill="#F7F7F7"/>
<path d="M27.5 28.333H12.5C12.1583 28.333 11.875 28.0497 11.875 27.708C11.875 27.3663 12.1583 27.083 12.5 27.083H27.5C27.8417 27.083 28.125 27.3663 28.125 27.708C28.125 28.0497 27.8417 28.333 27.5 28.333Z" fill="#131313"/>
<path d="M25.8505 12.9C24.2338 11.2834 22.6505 11.2417 20.9921 12.9L19.9838 13.9084C19.9005 13.9917 19.8671 14.125 19.9005 14.2417C20.5338 16.45 22.3005 18.2167 24.5088 18.85C24.5421 18.8584 24.5755 18.8667 24.6088 18.8667C24.7005 18.8667 24.7838 18.8334 24.8505 18.7667L25.8505 17.7584C26.6755 16.9417 27.0755 16.15 27.0755 15.35C27.0838 14.525 26.6838 13.725 25.8505 12.9Z" fill="#131313"/>
<path d="M23.0079 19.6087C22.7663 19.492 22.5329 19.3753 22.3079 19.242C22.1246 19.1337 21.9496 19.017 21.7746 18.892C21.6329 18.8003 21.4663 18.667 21.3079 18.5337C21.2913 18.5253 21.2329 18.4753 21.1663 18.4087C20.8913 18.1753 20.5829 17.8753 20.3079 17.542C20.2829 17.5253 20.2413 17.467 20.1829 17.392C20.0996 17.292 19.9579 17.1253 19.8329 16.9337C19.7329 16.8087 19.6163 16.6253 19.5079 16.442C19.3746 16.217 19.2579 15.992 19.1413 15.7587C18.9883 15.4309 18.5581 15.3335 18.3023 15.5893L13.6163 20.2753C13.5079 20.3837 13.4079 20.592 13.3829 20.7337L12.9329 23.9253C12.8496 24.492 13.0079 25.0253 13.3579 25.3837C13.6579 25.6753 14.0746 25.8337 14.5246 25.8337C14.6246 25.8337 14.7246 25.8253 14.8246 25.8087L18.0246 25.3587C18.1746 25.3337 18.3829 25.2337 18.4829 25.1253L23.1767 20.4315C23.4274 20.1809 23.3332 19.7496 23.0079 19.6087Z" fill="#131313"/>
</svg>
