<svg width="225" height="150" viewBox="0 0 225 150" fill="none" xmlns="http://www.w3.org/2000/svg">
<g clip-path="url(#clip0_169_7941)">
<path d="M55.098 81.4176C51.8695 95.4404 74.5433 129.035 110.508 124.31C127.235 122.112 127.321 113.653 141.269 104.91C149.583 99.6986 160.764 96.6086 165.27 87.7166C169.161 80.0419 169.153 71.0644 165.834 64.6491C158.37 50.2216 140.347 38.0981 117.603 54.8329C94.859 71.5679 63.429 45.2526 55.098 81.4176Z" fill="url(#paint0_linear_169_7941)"/>
<path d="M100.052 47.0209C99.1522 43.4091 90.6532 38.1341 86.1112 41.3144C84.7172 34.4331 83.4132 30.1421 78.8585 26.7524C74.3037 23.3626 66.704 27.7934 65.4832 37.0739C64.2627 33.2589 58.057 28.1171 53.0717 32.4526C48.4592 36.4646 47.9967 43.1869 48.4785 47.0146H100.052V47.0209Z" fill="url(#paint1_linear_169_7941)"/>
<path d="M170.098 44.9294C169.342 41.8966 162.202 37.4676 158.387 40.1379C157.216 34.3604 156.12 30.7574 152.294 27.9114C148.468 25.0651 142.084 28.7854 141.058 36.5776C140.033 33.3744 134.82 29.0571 130.632 32.6974C126.757 36.0659 126.368 41.7101 126.773 44.9241H170.098V44.9294Z" fill="url(#paint2_linear_169_7941)"/>
<path d="M123.16 33.1284C122.596 30.8652 117.263 27.56 114.413 29.5527C113.538 25.2412 112.72 22.5525 109.862 20.4285C107.005 18.3045 102.236 21.081 101.47 26.8957C100.704 24.5055 96.8105 21.2837 93.6825 24.0002C90.7883 26.514 90.498 30.7262 90.8005 33.1245H123.16V33.1284Z" fill="url(#paint3_linear_169_7941)"/>
<path fill-rule="evenodd" clip-rule="evenodd" d="M141.226 51.3654C156.565 66.7041 156.565 91.5731 141.226 106.912C125.887 122.25 101.018 122.25 85.6795 106.912C70.341 91.5729 70.341 66.7041 85.6795 51.3654C101.018 36.0266 125.887 36.0266 141.226 51.3654Z" fill="#1D396A"/>
<path d="M134.728 72.0384C122.321 62.3544 104.585 62.3544 92.1775 72.0384M101.045 84.4279C108.281 78.7851 118.624 78.7851 125.864 84.4279M113.453 95.3036C114.186 95.3036 114.784 95.8799 114.784 96.5869C114.784 97.2939 114.186 97.8699 113.453 97.8699C112.719 97.8699 112.122 97.2939 112.122 96.5869C112.122 95.8799 112.719 95.3036 113.453 95.3036Z" stroke="white" stroke-width="6" stroke-linecap="round" stroke-linejoin="round"/>
<path d="M180.529 55.9986L170.044 66.4834C169.662 66.8653 169.662 67.4843 170.044 67.8661C170.426 68.2479 171.045 68.2478 171.427 67.866L181.912 57.3812C182.293 56.9994 182.293 56.3803 181.912 55.9985C181.53 55.6168 180.911 55.6168 180.529 55.9986Z" fill="#F05323"/>
<path d="M179.503 63.5056L176.479 66.5293C176.097 66.9112 176.097 67.5302 176.479 67.912C176.861 68.2938 177.48 68.2937 177.862 67.9119L180.885 64.8881C181.267 64.5063 181.267 63.8873 180.886 63.5055C180.504 63.1237 179.885 63.1237 179.503 63.5056Z" fill="#F05323"/>
<path d="M167.925 84.0277L160.708 91.2448C160.445 91.5077 160.445 91.9338 160.708 92.1966C160.971 92.4594 161.397 92.4594 161.66 92.1966L168.877 84.9795C169.14 84.7167 169.14 84.2906 168.877 84.0277C168.614 83.7649 168.188 83.7649 167.925 84.0277Z" fill="#E1E4E5"/>
<path d="M167.219 89.1947L165.138 91.2761C164.875 91.5389 164.875 91.965 165.138 92.2278C165.4 92.4907 165.827 92.4907 166.089 92.2278L168.171 90.1465C168.434 89.8836 168.434 89.4575 168.171 89.1947C167.908 88.9319 167.482 88.9319 167.219 89.1947Z" fill="#E1E4E5"/>
<path d="M49.7731 90.2575L57.474 82.5565C57.7544 82.2761 57.7544 81.8215 57.474 81.5411C57.1936 81.2607 56.739 81.2607 56.4586 81.5411L48.7577 89.242C48.4773 89.5224 48.4773 89.9771 48.7577 90.2575C49.0381 90.5378 49.4927 90.5378 49.7731 90.2575Z" fill="#E1E4E5"/>
<path d="M50.527 84.7444L52.748 82.5233C53.0284 82.2429 53.0284 81.7883 52.748 81.5079C52.4676 81.2275 52.013 81.2275 51.7326 81.5079L49.5116 83.7289C49.2312 84.0093 49.2312 84.464 49.5116 84.7444C49.792 85.0247 50.2466 85.0247 50.527 84.7444Z" fill="#E1E4E5"/>
<path d="M151.082 113.775L143.381 121.476C143.101 121.756 143.101 122.211 143.381 122.491C143.662 122.771 144.116 122.771 144.397 122.491L152.098 114.79C152.378 114.51 152.378 114.055 152.098 113.775C151.817 113.494 151.363 113.494 151.082 113.775Z" fill="#E1E4E5"/>
<path d="M150.329 119.288L148.108 121.509C147.827 121.789 147.827 122.244 148.108 122.524C148.388 122.805 148.843 122.805 149.123 122.524L151.344 120.303C151.625 120.023 151.625 119.568 151.344 119.288C151.064 119.007 150.609 119.007 150.329 119.288Z" fill="#E1E4E5"/>
<path d="M79.4586 111.757L71.7577 119.458C71.4773 119.739 71.4773 120.193 71.7577 120.474C72.0381 120.754 72.4927 120.754 72.7731 120.474L80.474 112.773C80.7544 112.492 80.7544 112.038 80.474 111.757C80.1936 111.477 79.739 111.477 79.4586 111.757Z" fill="#F05323"/>
<path d="M78.7049 117.271L76.4839 119.492C76.2035 119.773 76.2035 120.227 76.4839 120.508C76.7643 120.788 77.2189 120.788 77.4993 120.508L79.7203 118.287C80.0007 118.006 80.0007 117.552 79.7203 117.271C79.4399 116.991 78.9853 116.991 78.7049 117.271Z" fill="#F05323"/>
</g>
<defs>
<linearGradient id="paint0_linear_169_7941" x1="73.4295" y1="172.022" x2="165.795" y2="-52.5514" gradientUnits="userSpaceOnUse">
<stop stop-color="white"/>
<stop offset="1" stop-color="#EEEEEE"/>
</linearGradient>
<linearGradient id="paint1_linear_169_7941" x1="75.2927" y1="59.0206" x2="75.0197" y2="2.32914" gradientUnits="userSpaceOnUse">
<stop stop-color="white"/>
<stop offset="1" stop-color="#EEEEEE"/>
</linearGradient>
<linearGradient id="paint2_linear_169_7941" x1="149.299" y1="55.0046" x2="149.069" y2="7.40487" gradientUnits="userSpaceOnUse">
<stop stop-color="white"/>
<stop offset="1" stop-color="#EEEEEE"/>
</linearGradient>
<linearGradient id="paint3_linear_169_7941" x1="107.625" y1="40.6472" x2="107.454" y2="5.1252" gradientUnits="userSpaceOnUse">
<stop stop-color="white"/>
<stop offset="1" stop-color="#EEEEEE"/>
</linearGradient>
<clipPath id="clip0_169_7941">
<rect width="225" height="150" fill="white"/>
</clipPath>
</defs>
</svg>
