<svg width="225" height="150" viewBox="0 0 225 150" fill="none" xmlns="http://www.w3.org/2000/svg">
<g clip-path="url(#clip0_169_8166)">
<path fill-rule="evenodd" clip-rule="evenodd" d="M113.695 109.558C113.695 109.558 83.526 85.4682 83.526 63.4675C83.526 47.2667 97.0343 34.1357 113.695 34.1357C130.356 34.1357 143.864 47.2667 143.864 63.4675C143.864 85.4682 113.695 109.558 113.695 109.558Z" fill="#1D396A" stroke="#1D396A" stroke-width="10.7895" stroke-linecap="round" stroke-linejoin="round"/>
<path d="M113.688 60.7695C111.676 60.7695 110.058 62.3618 110.058 64.3105C110.058 66.2595 111.689 67.839 113.701 67.839C115.714 67.839 117.332 66.2595 117.332 64.2978C117.344 62.3618 115.714 60.7695 113.688 60.7695Z" stroke="white" stroke-width="18.3468" stroke-linecap="round" stroke-linejoin="round"/>
<path fill-rule="evenodd" clip-rule="evenodd" d="M21.5535 104.782H22.2485C22.4168 104.782 22.552 104.918 22.552 105.085V105.78C22.552 105.948 22.4153 106.084 22.2488 106.084H21.5538C21.4733 106.083 21.3962 106.051 21.3393 105.994C21.2824 105.938 21.2503 105.86 21.25 105.78V105.085C21.2499 105.045 21.2577 105.006 21.2729 104.969C21.2881 104.932 21.3105 104.898 21.3387 104.87C21.3669 104.842 21.4004 104.82 21.4372 104.804C21.4741 104.789 21.5136 104.781 21.5535 104.782ZM23.9635 104.782H24.6585C24.8253 104.782 24.962 104.918 24.962 105.085V105.78C24.962 105.948 24.8253 106.084 24.6588 106.084H23.9638C23.8833 106.083 23.8063 106.051 23.7494 105.994C23.6926 105.937 23.6605 105.86 23.6603 105.78V105.085C23.6603 104.918 23.797 104.782 23.9635 104.782ZM26.3753 104.782H27.0703C27.237 104.782 27.3738 104.918 27.3738 105.085V105.78C27.3738 105.948 27.237 106.084 27.0703 106.084H26.3753C26.2948 106.083 26.2178 106.051 26.1609 105.994C26.1041 105.937 26.072 105.86 26.0718 105.78V105.085C26.0717 105.045 26.0795 105.006 26.0947 104.969C26.1099 104.932 26.1323 104.898 26.1605 104.87C26.1887 104.842 26.2222 104.82 26.259 104.804C26.2959 104.789 26.3354 104.781 26.3753 104.782ZM28.7853 104.782H29.4805C29.6473 104.782 29.7838 104.918 29.7838 105.085V105.78C29.7838 105.948 29.6473 106.084 29.4805 106.084H28.7853C28.7047 106.083 28.6274 106.051 28.5703 105.995C28.5132 105.938 28.4809 105.861 28.4805 105.78V105.085C28.4814 105.005 28.5138 104.928 28.5708 104.871C28.6278 104.814 28.7048 104.782 28.7853 104.782ZM31.1955 104.782H31.8908C31.9713 104.782 32.0486 104.814 32.1057 104.87C32.1628 104.927 32.1951 105.004 32.1955 105.085V105.78C32.1955 105.948 32.0588 106.084 31.8908 106.084H31.1955C31.1151 106.083 31.0382 106.051 30.9813 105.994C30.9245 105.937 30.8925 105.86 30.8923 105.78V105.085C30.8923 104.918 31.029 104.782 31.1955 104.782ZM24.052 107.41H24.747C24.9138 107.41 25.0505 107.547 25.0505 107.713V108.41C25.0505 108.576 24.9138 108.713 24.747 108.713H24.052C23.9715 108.713 23.8944 108.681 23.8375 108.624C23.7806 108.567 23.7486 108.49 23.7485 108.41V107.715C23.7483 107.675 23.756 107.635 23.7711 107.598C23.7863 107.561 23.8086 107.527 23.8368 107.499C23.865 107.471 23.8986 107.448 23.9355 107.433C23.9724 107.418 24.012 107.41 24.052 107.41ZM26.462 107.41H27.1573C27.3238 107.41 27.4605 107.547 27.4605 107.713V108.41C27.4605 108.576 27.3238 108.713 27.1573 108.713H26.462C26.3816 108.713 26.3045 108.681 26.2477 108.624C26.1908 108.567 26.1588 108.49 26.1585 108.41V107.715C26.1583 107.675 26.166 107.635 26.1812 107.598C26.1963 107.561 26.2187 107.527 26.2469 107.499C26.2751 107.471 26.3086 107.448 26.3455 107.433C26.3824 107.418 26.422 107.41 26.462 107.41ZM28.8723 107.41H29.5675C29.648 107.41 29.7253 107.442 29.7824 107.499C29.8395 107.555 29.8718 107.632 29.8723 107.713V108.41C29.8719 108.49 29.8396 108.567 29.7825 108.624C29.7254 108.681 29.6481 108.713 29.5675 108.713H28.8723C28.7918 108.713 28.7148 108.681 28.6579 108.624C28.6011 108.567 28.569 108.49 28.5688 108.41V107.715C28.5688 107.634 28.6008 107.557 28.6576 107.5C28.7145 107.442 28.7917 107.41 28.8723 107.41ZM26.3753 101.958H27.0703C27.237 101.958 27.3738 102.095 27.3738 102.261V102.957C27.3738 103.125 27.237 103.26 27.0703 103.26H26.3753C26.2948 103.26 26.2178 103.228 26.1609 103.171C26.1041 103.114 26.072 103.037 26.0718 102.957V102.261C26.0717 102.222 26.0795 102.182 26.0948 102.145C26.11 102.109 26.1324 102.075 26.1606 102.047C26.1888 102.019 26.2222 101.996 26.2591 101.981C26.2959 101.966 26.3354 101.958 26.3753 101.958ZM28.7853 101.958H29.4805C29.6473 101.958 29.7838 102.095 29.7838 102.261V102.957C29.7838 103.125 29.6473 103.26 29.4805 103.26H28.7853C28.7047 103.26 28.6274 103.228 28.5703 103.171C28.5132 103.114 28.4809 103.037 28.4805 102.957V102.261C28.4814 102.181 28.5139 102.104 28.5709 102.048C28.6279 101.991 28.7048 101.959 28.7853 101.958ZM202.695 103.803H201.995C201.825 103.803 201.689 103.94 201.689 104.108V104.808C201.689 104.978 201.827 105.114 201.995 105.114H202.695C202.862 105.114 203 104.976 203 104.808V104.108C203 104.068 202.992 104.029 202.977 103.991C202.962 103.954 202.939 103.921 202.911 103.892C202.882 103.864 202.849 103.841 202.812 103.826C202.774 103.811 202.735 103.803 202.695 103.803ZM200.268 103.803H199.568C199.4 103.803 199.262 103.94 199.262 104.108V104.808C199.262 104.978 199.4 105.114 199.568 105.114H200.268C200.436 105.114 200.574 104.976 200.574 104.808V104.108C200.574 103.94 200.436 103.803 200.268 103.803ZM197.84 103.803H197.14C196.972 103.803 196.834 103.94 196.834 104.108V104.808C196.834 104.978 196.972 105.114 197.14 105.114H197.84C198.008 105.114 198.145 104.976 198.145 104.808V104.108C198.145 104.068 198.138 104.029 198.122 103.991C198.107 103.954 198.084 103.921 198.056 103.892C198.028 103.864 197.994 103.841 197.957 103.826C197.92 103.811 197.88 103.803 197.84 103.803ZM195.413 103.803H194.713C194.546 103.803 194.408 103.94 194.408 104.108V104.808C194.408 104.978 194.546 105.114 194.713 105.114H195.413C195.583 105.114 195.72 104.976 195.72 104.808V104.108C195.719 104.028 195.687 103.95 195.629 103.893C195.572 103.836 195.494 103.803 195.413 103.803ZM192.986 103.803H192.286C192.117 103.803 191.98 103.94 191.98 104.108V104.808C191.98 104.978 192.117 105.114 192.286 105.114H192.986C193.154 105.114 193.292 104.976 193.292 104.808V104.108C193.292 103.94 193.154 103.803 192.986 103.803ZM200.179 106.449H199.479C199.311 106.449 199.173 106.587 199.173 106.755V107.456C199.173 107.624 199.311 107.761 199.479 107.761H200.179C200.348 107.761 200.484 107.624 200.484 107.456V106.756C200.485 106.716 200.477 106.676 200.462 106.639C200.447 106.601 200.424 106.567 200.396 106.539C200.367 106.51 200.334 106.488 200.296 106.472C200.259 106.457 200.219 106.449 200.179 106.449ZM197.752 106.449H197.053C196.885 106.449 196.747 106.587 196.747 106.755V107.456C196.747 107.624 196.885 107.761 197.053 107.761H197.752C197.92 107.761 198.058 107.624 198.058 107.456V106.756C198.058 106.716 198.05 106.676 198.035 106.639C198.02 106.601 197.997 106.567 197.969 106.539C197.941 106.51 197.907 106.488 197.87 106.472C197.832 106.457 197.793 106.449 197.752 106.449ZM195.326 106.449H194.626C194.456 106.449 194.319 106.587 194.319 106.755V107.456C194.319 107.624 194.456 107.761 194.626 107.761H195.326C195.493 107.761 195.631 107.624 195.631 107.456V106.756C195.631 106.587 195.493 106.449 195.326 106.449ZM197.84 100.96H197.14C196.972 100.96 196.834 101.098 196.834 101.266V101.966C196.834 102.135 196.972 102.271 197.14 102.271H197.84C198.008 102.271 198.145 102.134 198.145 101.966V101.266C198.145 101.226 198.137 101.186 198.122 101.149C198.107 101.112 198.084 101.078 198.056 101.05C198.028 101.021 197.994 100.999 197.957 100.983C197.92 100.968 197.88 100.96 197.84 100.96ZM195.413 100.96H194.713C194.546 100.96 194.408 101.098 194.408 101.266V101.966C194.408 102.135 194.546 102.271 194.713 102.271H195.413C195.583 102.271 195.72 102.134 195.72 101.966V101.266C195.719 101.185 195.687 101.107 195.629 101.05C195.572 100.993 195.494 100.961 195.413 100.96ZM152.053 43.8233H152.749C152.917 43.8233 153.052 43.96 153.052 44.1268V44.822C153.052 44.99 152.915 45.1253 152.749 45.1253H152.053C151.973 45.125 151.896 45.093 151.839 45.0362C151.782 44.9794 151.75 44.9024 151.75 44.822V44.1268C151.75 44.0869 151.758 44.0473 151.773 44.0105C151.788 43.9736 151.81 43.9401 151.839 43.9119C151.867 43.8836 151.9 43.8613 151.937 43.8461C151.974 43.8309 152.014 43.8231 152.053 43.8233ZM154.464 43.8233H155.159C155.325 43.8233 155.462 43.96 155.462 44.1268V44.822C155.462 44.99 155.325 45.1253 155.159 45.1253H154.464C154.383 45.125 154.306 45.093 154.249 45.0362C154.192 44.9794 154.16 44.9024 154.16 44.822V44.1268C154.16 43.96 154.297 43.8233 154.464 43.8233ZM156.875 43.8233H157.57C157.737 43.8233 157.874 43.96 157.874 44.1268V44.822C157.874 44.99 157.737 45.1253 157.57 45.1253H156.875C156.795 45.125 156.718 45.093 156.661 45.0362C156.604 44.9794 156.572 44.9024 156.572 44.822V44.1268C156.572 44.0869 156.579 44.0473 156.595 44.0105C156.61 43.9736 156.632 43.9401 156.66 43.9119C156.689 43.8836 156.722 43.8613 156.759 43.8461C156.796 43.8309 156.835 43.8231 156.875 43.8233ZM159.285 43.8233H159.98C160.147 43.8233 160.284 43.96 160.284 44.1268V44.822C160.284 44.99 160.147 45.1253 159.98 45.1253H159.285C159.205 45.1253 159.127 45.0934 159.07 45.0365C159.013 44.9797 158.981 44.9026 158.98 44.822V44.1268C158.981 44.0463 159.014 43.9694 159.071 43.9126C159.128 43.8559 159.205 43.8238 159.285 43.8233ZM161.695 43.8233H162.391C162.471 43.8233 162.549 43.8553 162.606 43.9121C162.663 43.969 162.695 44.0462 162.695 44.1268V44.8218C162.695 44.99 162.559 45.1253 162.391 45.1253H161.695C161.615 45.125 161.538 45.0929 161.481 45.0361C161.424 44.9792 161.392 44.9022 161.392 44.8218V44.1268C161.392 43.96 161.529 43.8233 161.695 43.8233ZM154.552 46.4515H155.247C155.413 46.4515 155.55 46.5883 155.55 46.7548V47.4515C155.55 47.618 155.413 47.7548 155.247 47.7548H154.552C154.471 47.7547 154.394 47.7227 154.337 47.6659C154.281 47.609 154.249 47.5319 154.249 47.4515V46.7562C154.248 46.7163 154.256 46.6767 154.271 46.6397C154.286 46.6027 154.309 46.5691 154.337 46.5408C154.365 46.5125 154.398 46.49 154.435 46.4747C154.472 46.4593 154.512 46.4515 154.552 46.4515ZM156.962 46.4515H157.657C157.824 46.4515 157.96 46.5883 157.96 46.7548V47.4515C157.96 47.618 157.824 47.7548 157.657 47.7548H156.962C156.882 47.7545 156.805 47.7225 156.748 47.6657C156.691 47.6088 156.659 47.5319 156.658 47.4515V46.7562C156.658 46.7163 156.666 46.6766 156.681 46.6396C156.696 46.6026 156.719 46.569 156.747 46.5407C156.775 46.5124 156.809 46.4899 156.845 46.4746C156.882 46.4593 156.922 46.4514 156.962 46.4515ZM159.372 46.4515H160.067C160.235 46.4515 160.372 46.5883 160.372 46.7548V47.4515C160.372 47.5321 160.339 47.6092 160.282 47.666C160.225 47.7229 160.148 47.7548 160.067 47.7548H159.372C159.292 47.7545 159.215 47.7225 159.158 47.6657C159.101 47.6088 159.069 47.5319 159.069 47.4515V46.7562C159.069 46.6757 159.101 46.5984 159.158 46.5413C159.215 46.4842 159.292 46.4519 159.372 46.4515ZM156.875 41H157.57C157.737 41 157.874 41.1368 157.874 41.3035V41.9985C157.874 42.1668 157.737 42.302 157.57 42.302H156.875C156.795 42.3017 156.718 42.2697 156.661 42.2128C156.604 42.156 156.572 42.0789 156.572 41.9985V41.3035C156.572 41.2636 156.579 41.2241 156.595 41.1872C156.61 41.1503 156.632 41.1168 156.66 41.0886C156.689 41.0604 156.722 41.038 156.759 41.0228C156.796 41.0076 156.835 40.9999 156.875 41ZM159.285 41H159.98C160.147 41 160.284 41.1368 160.284 41.3035V41.9985C160.284 42.1668 160.147 42.302 159.98 42.302H159.285C159.205 42.302 159.127 42.2701 159.07 42.2132C159.013 42.1563 158.981 42.0791 158.98 41.9985V41.3035C158.981 41.223 159.014 41.1461 159.071 41.0894C159.128 41.0326 159.205 41.0005 159.285 41ZM30.5078 90.8457V83.8972C30.5078 81.765 32.2388 80.037 34.375 80.037C36.5113 80.037 38.2422 81.765 38.2422 83.8972V90.8457H46.75V77.588C46.75 76.7697 46.4237 75.9837 45.8435 75.4047L35.4688 65.0485C35.1787 64.7585 34.7853 64.5957 34.3751 64.5957C33.965 64.5957 33.5716 64.7585 33.2815 65.0485L22.9065 75.4047C22.6193 75.6912 22.3915 76.0315 22.2359 76.4061C22.0804 76.7808 22.0002 77.1824 22 77.588V90.8457H30.5078ZM195.391 89.5V84.2722C195.391 82.6677 194.097 81.3678 192.5 81.3678C190.903 81.3678 189.609 82.6677 189.609 84.2722V89.5H183.25V79.5253C183.25 78.9095 183.494 78.3182 183.928 77.8825L191.682 70.0908C191.79 69.9828 191.917 69.8971 192.057 69.8387C192.197 69.7802 192.348 69.7501 192.5 69.7501C192.652 69.7501 192.803 69.7802 192.943 69.8387C193.083 69.8971 193.21 69.9828 193.318 70.0908L201.072 77.8825C201.506 78.3191 201.75 78.9097 201.75 79.5253V89.5H195.391ZM56.2578 71.3458V66.581C56.2578 65.1188 57.4292 63.934 58.875 63.934C60.3208 63.934 61.4922 65.1188 61.4922 66.581V71.3458H67.25V62.2548C67.25 61.6935 67.0292 61.1548 66.6365 60.7575L59.6152 53.6563C59.5187 53.5579 59.4035 53.4799 59.2764 53.4266C59.1493 53.3733 59.0129 53.3458 58.8751 53.3458C58.7373 53.3458 58.6009 53.3733 58.4738 53.4266C58.3468 53.4799 58.2316 53.5579 58.135 53.6563L51.1135 60.7575C50.7202 61.1565 50.4998 61.6944 50.5 62.2548V71.3458H56.2578ZM173.742 73.25V68.4855C173.742 67.0232 172.571 65.8383 171.125 65.8383C169.679 65.8383 168.508 67.0232 168.508 68.4855V73.25H162.75V64.159C162.75 63.598 162.971 63.059 163.363 62.662L170.385 55.5605C170.481 55.4622 170.597 55.384 170.724 55.3307C170.851 55.2774 170.987 55.2499 171.125 55.2499C171.263 55.2499 171.399 55.2774 171.526 55.3307C171.653 55.384 171.769 55.4622 171.865 55.5605L178.887 62.662C179.28 63.0609 179.5 63.5987 179.5 64.159V73.25H173.742ZM62.008 111.846V104.831C62.008 102.679 63.739 100.934 65.875 100.934C68.0112 100.934 69.7422 102.679 69.7422 104.831V111.846H78.25V98.4617C78.25 97.6357 77.9238 96.8423 77.3438 96.2578L66.9688 85.8027C66.8258 85.6579 66.6555 85.543 66.4678 85.4645C66.28 85.386 66.0786 85.3456 65.8751 85.3456C65.6716 85.3456 65.4702 85.386 65.2825 85.4645C65.0947 85.543 64.9244 85.6579 64.7815 85.8027L54.4065 96.2578C53.8256 96.8442 53.4998 97.6363 53.5 98.4617V111.846H62.008ZM164.055 110.75V105.456C164.055 103.831 162.743 102.515 161.125 102.515C159.507 102.515 158.195 103.831 158.195 105.456V110.75H151.75V100.649C151.75 100.026 151.997 99.4267 152.437 98.9855L160.296 91.095C160.405 90.9857 160.534 90.899 160.676 90.8398C160.818 90.7806 160.971 90.7501 161.125 90.7501C161.279 90.7501 161.432 90.7806 161.574 90.8398C161.716 90.899 161.845 90.9857 161.954 91.095L169.813 98.9855C170.253 99.4274 170.5 100.026 170.5 100.649V110.75H164.055Z" fill="#E1E4E5"/>
<path d="M41.875 99.8457C41.1156 99.8457 40.5 100.461 40.5 101.221C40.5 101.98 41.1156 102.596 41.875 102.596C42.6344 102.596 43.25 101.98 43.25 101.221C43.25 100.461 42.6344 99.8457 41.875 99.8457Z" fill="#E1E4E5"/>
<path d="M182.125 98.75C182.884 98.75 183.5 99.3656 183.5 100.125C183.5 100.884 182.884 101.5 182.125 101.5C181.366 101.5 180.75 100.884 180.75 100.125C180.75 99.3656 181.366 98.75 182.125 98.75Z" fill="#E1E4E5"/>
<path d="M41.5 61.3457C40.9477 61.3457 40.5 60.898 40.5 60.3457C40.5 59.7934 40.9477 59.3457 41.5 59.3457C42.0523 59.3457 42.5 59.7934 42.5 60.3457C42.5 60.898 42.0523 61.3457 41.5 61.3457Z" fill="#E1E4E5"/>
<path d="M188.625 63C189.108 63 189.5 62.6082 189.5 62.125C189.5 61.6418 189.108 61.25 188.625 61.25C188.142 61.25 187.75 61.6418 187.75 62.125C187.75 62.6082 188.142 63 188.625 63Z" fill="#E1E4E5"/>
<path d="M56.875 81.5957C56.1156 81.5957 55.5 80.9801 55.5 80.2207C55.5 79.4613 56.1156 78.8457 56.875 78.8457C57.6344 78.8457 58.25 79.4613 58.25 80.2207C58.25 80.9801 57.6344 81.5957 56.875 81.5957Z" fill="#E1E4E5"/>
<path d="M173.125 83.5C173.884 83.5 174.5 82.9404 174.5 82.25C174.5 81.5596 173.884 81 173.125 81C172.366 81 171.75 81.5596 171.75 82.25C171.75 82.9404 172.366 83.5 173.125 83.5Z" fill="#E1E4E5"/>
<path d="M95.4212 54.5633C94.1112 54.5633 93.0492 53.5014 93.0492 52.1913C93.0492 50.8813 94.1112 49.8193 95.4212 49.8193C96.7312 49.8193 97.7932 50.8813 97.7932 52.1913C97.7932 53.5014 96.7312 54.5633 95.4212 54.5633Z" fill="#1D396A"/>
<path d="M55.375 108.596C54.8918 108.596 54.5 108.204 54.5 107.721C54.5 107.237 54.8918 106.846 55.375 106.846C55.8582 106.846 56.25 107.237 56.25 107.721C56.25 108.204 55.8582 108.596 55.375 108.596Z" fill="#E1E4E5"/>
<path d="M174.75 110.75C175.302 110.75 175.75 110.358 175.75 109.875C175.75 109.392 175.302 109 174.75 109C174.198 109 173.75 109.392 173.75 109.875C173.75 110.358 174.198 110.75 174.75 110.75Z" fill="#E1E4E5"/>
<path d="M144.434 98.5186C143.502 98.5186 142.746 97.763 142.746 96.8311C142.746 95.8991 143.502 95.1436 144.434 95.1436C145.366 95.1436 146.121 95.8991 146.121 96.8311C146.121 97.763 145.366 98.5186 144.434 98.5186Z" fill="#E1E4E5"/>
<path d="M42.611 76.3655C42.7421 76.8551 42.4516 77.3583 41.962 77.4895C41.4724 77.6207 40.9692 77.3302 40.838 76.8406C40.7068 76.351 40.9974 75.8478 41.4869 75.7166C41.9765 75.5854 42.4798 75.8759 42.611 76.3655Z" fill="#E1E4E5"/>
<path d="M187.567 78.3117C187.435 78.8046 187.727 79.3113 188.22 79.4434C188.713 79.5754 189.22 79.2829 189.352 78.79C189.484 78.297 189.191 77.7904 188.698 77.6583C188.206 77.5262 187.699 77.8188 187.567 78.3117Z" fill="#E1E4E5"/>
<path d="M55.75 61.5957C55.0596 61.5957 54.5 61.0361 54.5 60.3457C54.5 59.6553 55.0596 59.0957 55.75 59.0957C56.4404 59.0957 57 59.6553 57 60.3457C57 61.0361 56.4404 61.5957 55.75 61.5957Z" fill="#E1E4E5"/>
<path d="M174.375 63.5C174.996 63.5 175.5 62.9404 175.5 62.25C175.5 61.5596 174.996 61 174.375 61C173.754 61 173.25 61.5596 173.25 62.25C173.25 62.9404 173.754 63.5 174.375 63.5Z" fill="#E1E4E5"/>
<path d="M96.723 112.594C96.0992 112.594 95.5935 112.19 95.5935 111.691C95.5935 111.192 96.0992 110.787 96.723 110.787C97.3468 110.787 97.8525 111.192 97.8525 111.691C97.8525 112.19 97.3468 112.594 96.723 112.594Z" fill="#E1E4E5"/>
<path d="M91.9101 26.9692C92.2385 28.1945 91.5113 29.4541 90.2859 29.7824C89.0605 30.1107 87.801 29.3836 87.4727 28.1582C87.1443 26.9328 87.8715 25.6733 89.0969 25.3449C90.3223 25.0166 91.5818 25.7438 91.9101 26.9692Z" fill="#E1E4E5"/>
<path d="M136.049 108.999H136.079C136.253 111.478 138.097 111.516 138.097 111.516C138.097 111.516 136.064 111.556 136.064 114.421C136.064 111.556 134.031 111.516 134.031 111.516C134.031 111.516 135.874 111.478 136.049 108.999ZM52.2332 46.0957H52.266C52.4597 48.8392 54.5 48.8815 54.5 48.8815C54.5 48.8815 52.25 48.9255 52.25 52.0957C52.25 48.9255 50 48.8815 50 48.8815C50 48.8815 52.0397 48.8392 52.2332 46.0957ZM177.767 47.75H177.734C177.54 50.4937 175.5 50.5357 175.5 50.5357C175.5 50.5357 177.75 50.5797 177.75 53.75C177.75 50.5797 180 50.5357 180 50.5357C180 50.5357 177.96 50.4937 177.767 47.75Z" fill="#E1E4E5"/>
</g>
<defs>
<clipPath id="clip0_169_8166">
<rect width="225" height="150" fill="white"/>
</clipPath>
</defs>
</svg>
