<svg width="225" height="150" viewBox="0 0 225 150" fill="none" xmlns="http://www.w3.org/2000/svg">
<g clip-path="url(#clip0_169_7816)">
<path d="M154.909 114.041C152.654 126.86 121.923 146.847 93.6328 130.23C80.4753 122.501 83.3865 115.426 74.8515 103.225C69.764 95.9529 61.5403 89.4367 60.9225 80.4414C60.3875 72.6769 63.5595 65.2022 68.586 61.0289C79.8903 51.6437 99.1775 47.9007 112.221 69.8592C125.264 91.8174 160.722 80.9809 154.909 114.041Z" fill="url(#paint0_linear_169_7816)"/>
<path d="M177.804 50.7448C175.297 55.2188 169.806 55.8336 161.01 54.9833C154.395 54.3428 148.362 53.8471 141.747 50.2401C137.116 47.7171 133.451 44.3038 130.775 40.9886C127.876 37.3971 123.83 33.2983 125.813 29.2263C128.54 23.6326 144.304 18.9213 159.612 26.6256C176.428 35.0913 180.256 46.3721 177.804 50.7448Z" fill="url(#paint1_linear_169_7816)"/>
<path d="M198.561 70.6657C192.532 73.6569 184.528 69.8109 184.528 69.8109C184.528 69.8109 186.307 61.1169 192.34 58.1299C198.37 55.1389 206.37 58.9807 206.37 58.9807C206.37 58.9807 204.591 67.6747 198.561 70.6657Z" fill="url(#paint2_linear_169_7816)"/>
<path d="M26.9172 92.1175C33.3462 95.9705 42.5695 92.4088 42.5695 92.4088C42.5695 92.4088 41.3635 82.6013 34.9307 78.7525C28.502 74.8995 19.2825 78.457 19.2825 78.457C19.2825 78.457 20.4885 88.2645 26.9172 92.1175Z" fill="url(#paint3_linear_169_7816)"/>
<path d="M186.697 47.33C184.878 47.33 183.404 48.8041 183.404 50.6225C183.404 52.4409 184.878 53.915 186.697 53.915C188.515 53.915 189.989 52.4409 189.989 50.6225C189.989 48.8041 188.515 47.33 186.697 47.33Z" fill="#F05323"/>
<path d="M143.85 103.423C140.996 103.423 138.683 105.736 138.683 108.59C138.683 111.444 140.996 113.758 143.85 113.758C146.704 113.758 149.018 111.444 149.018 108.59C149.018 105.736 146.704 103.423 143.85 103.423Z" fill="#1D396A"/>
<path d="M81.2868 49.5727C79.7899 49.5727 78.5765 50.7861 78.5765 52.2829C78.5765 53.7797 79.7899 54.9932 81.2868 54.9932C82.7836 54.9932 83.997 53.7797 83.997 52.2829C83.997 50.7861 82.7836 49.5727 81.2868 49.5727Z" fill="#1D396A"/>
<path d="M50.7785 86.9577C49.0737 86.9577 47.6917 85.5757 47.6917 83.8709C47.6917 82.1662 49.0737 80.7842 50.7785 80.7842C52.4832 80.7842 53.8652 82.1662 53.8652 83.8709C53.8652 85.5757 52.4832 86.9577 50.7785 86.9577Z" fill="#1D396A"/>
<path d="M161.94 64.381C161.145 64.381 160.5 63.7361 160.5 62.9405C160.5 62.1449 161.145 61.5 161.94 61.5C162.736 61.5 163.381 62.1449 163.381 62.9405C163.381 63.7361 162.736 64.381 161.94 64.381Z" fill="#1D396A"/>
<path d="M159.351 123.704C158.329 123.704 157.499 122.875 157.499 121.852C157.499 120.829 158.329 120 159.351 120C160.374 120 161.203 120.829 161.203 121.852C161.203 122.875 160.374 123.704 159.351 123.704Z" fill="#E1E4E5"/>
<path d="M37.3235 111.27C35.8461 111.27 34.6485 110.072 34.6485 108.595C34.6485 107.118 35.8461 105.92 37.3235 105.92C38.8008 105.92 39.9985 107.118 39.9985 108.595C39.9985 110.072 38.8008 111.27 37.3235 111.27Z" fill="#E1E4E5"/>
<path d="M188.712 105.597C187.588 105.597 186.676 104.686 186.676 103.561C186.676 102.437 187.588 101.525 188.712 101.525C189.836 101.525 190.748 102.437 190.748 103.561C190.748 104.686 189.836 105.597 188.712 105.597Z" fill="#E1E4E5"/>
<path d="M167.106 42.8854C165.856 42.8854 164.843 41.872 164.843 40.6219C164.843 39.3718 165.856 38.3584 167.106 38.3584C168.356 38.3584 169.37 39.3718 169.37 40.6219C169.37 41.872 168.356 42.8854 167.106 42.8854Z" fill="#E1E4E5"/>
<path d="M45.4166 65.7824C45.7072 66.8668 45.0637 67.9814 43.9793 68.272C42.8949 68.5625 41.7802 67.919 41.4897 66.8346C41.1991 65.7502 41.8426 64.6355 42.927 64.345C44.0115 64.0544 45.1261 64.6979 45.4166 65.7824Z" fill="#E1E4E5"/>
<path d="M95.9812 29.2293C94.4879 29.2293 93.2772 28.0187 93.2772 26.5253C93.2772 25.0319 94.4879 23.8213 95.9812 23.8213C97.4746 23.8213 98.6852 25.0319 98.6852 26.5253C98.6852 28.0187 97.4746 29.2293 95.9812 29.2293Z" fill="#E1E4E5"/>
<path d="M181.302 93.9481C180.153 93.9481 179.222 93.2031 179.222 92.2841C179.222 91.3651 180.153 90.6201 181.302 90.6201C182.45 90.6201 183.382 91.3651 183.382 92.2841C183.382 93.2031 182.45 93.9481 181.302 93.9481Z" fill="#E1E4E5"/>
<path d="M146.155 21.9432C146.76 24.1999 145.421 26.5195 143.164 27.1242C140.907 27.7289 138.588 26.3897 137.983 24.133C137.378 21.8763 138.717 19.5567 140.974 18.952C143.231 18.3473 145.55 19.6865 146.155 21.9432Z" fill="#E1E4E5"/>
<path d="M52.7125 52.2979H52.742C52.9175 54.7839 54.7665 54.8221 54.7665 54.8221C54.7665 54.8221 52.7277 54.8619 52.7277 57.7346C52.7277 54.8619 50.6887 54.8221 50.6887 54.8221C50.6887 54.8221 52.537 54.7839 52.7125 52.2979ZM49.615 117.375H49.6435C49.812 119.854 51.587 119.892 51.587 119.892C51.587 119.892 49.6295 119.932 49.6295 122.796C49.6295 119.932 47.672 119.892 47.672 119.892C47.672 119.892 49.4465 119.854 49.615 117.375Z" fill="#E1E4E5"/>
<path fill-rule="evenodd" clip-rule="evenodd" d="M138.902 31.8251L119.114 23.1738C117.815 22.6058 116.417 22.2992 114.999 22.2716C113.582 22.244 112.173 22.4958 110.853 23.0128L74.813 37.1448C69.2605 39.3223 66.528 45.5871 68.7073 51.1448L96.318 121.558C98.4973 127.116 104.76 129.853 110.312 127.676L160.563 107.972C166.116 105.794 168.848 99.5293 166.669 93.9716L144.635 37.7821C143.589 35.1153 141.527 32.9728 138.902 31.8251Z" fill="white" stroke="#E1E4E5" stroke-width="0.8745"/>
<path d="M143.525 81.9329L105.389 96.8868C103.985 97.4374 103.293 99.0221 103.843 100.426C104.394 101.83 105.979 102.522 107.383 101.972L145.519 87.0177C146.923 86.4671 147.615 84.8824 147.065 83.4783C146.514 82.0742 144.93 81.3823 143.525 81.9329Z" fill="#E1E4E5"/>
<path d="M139.567 71.8381L101.431 86.7921C100.026 87.3427 99.3343 88.9273 99.8849 90.3315C100.436 91.7356 102.02 92.4275 103.424 91.8769L141.561 76.923C142.965 76.3723 143.657 74.7877 143.106 73.3836C142.556 71.9794 140.971 71.2875 139.567 71.8381Z" fill="#E1E4E5"/>
<path d="M135.598 61.718L97.462 76.672C96.0578 77.2226 95.3658 78.8072 95.9164 80.2114C96.467 81.6155 98.0517 82.3074 99.4559 81.7568L137.592 66.8028C138.996 66.2522 139.688 64.6676 139.138 63.2635C138.587 61.8593 137.003 61.1674 135.598 61.718Z" fill="#E1E4E5"/>
<path d="M131.63 51.5979L93.4938 66.5519C92.0896 67.1025 91.3976 68.6871 91.9482 70.0912C92.4987 71.4954 94.0834 72.1873 95.4876 71.6367L133.624 56.6827C135.028 56.1321 135.72 54.5475 135.17 53.1433C134.619 51.7392 133.034 51.0473 131.63 51.5979Z" fill="#E1E4E5"/>
<path d="M127.662 41.4778L89.5258 56.4317C88.1216 56.9824 87.4296 58.567 87.9802 59.9711C88.5308 61.3753 90.1154 62.0672 91.5196 61.5166L129.656 46.5626C131.06 46.012 131.752 44.4274 131.202 43.0232C130.651 41.6191 129.066 40.9272 127.662 41.4778Z" fill="#E1E4E5"/>
<path d="M147.513 92.1028L109.377 107.057C107.973 107.607 107.281 109.192 107.831 110.596C108.382 112 109.966 112.692 111.371 112.142L149.507 97.1876C150.911 96.637 151.603 95.0524 151.053 93.6482C150.502 92.2441 148.917 91.5522 147.513 92.1028Z" fill="#E1E4E5"/>
<path fill-rule="evenodd" clip-rule="evenodd" d="M51.4628 96.3854L51.9293 97.7382C53.5448 102.432 58.6578 104.925 63.3513 103.31C68.0448 101.694 70.5385 96.5814 68.923 91.8879L68.4563 90.5352" fill="#F05323"/>
<path fill-rule="evenodd" clip-rule="evenodd" d="M57.0145 42.252L55.842 38.8485C54.5482 35.0963 50.4585 33.1003 46.7022 34.3943C42.9497 35.6883 40.954 39.7778 42.244 43.5303L43.4165 46.9338" fill="#1D396A"/>
<path fill-rule="evenodd" clip-rule="evenodd" d="M35.72 67.982C32.5243 58.7047 37.457 48.5925 46.734 45.397L53.4545 43.0835C62.7318 39.888 72.844 44.8205 76.0395 54.0975L79.6077 64.4647C80.2847 66.4305 81.7149 68.0468 83.5835 68.9582L86.7793 70.5147C87.7046 70.9659 88.532 71.5949 89.2142 72.3659C89.8964 73.1369 90.4199 74.0348 90.755 75.0082C92.0882 78.8782 90.0298 83.0972 86.1598 84.4305L46.4203 98.1147C42.5503 99.448 38.3313 97.3895 36.9983 93.5195C36.3208 91.553 36.4519 89.3979 37.3628 87.528L38.9195 84.3325C39.3714 83.4069 39.6362 82.4013 39.6988 81.3732C39.7613 80.3451 39.6204 79.3148 39.284 78.3412L35.72 67.982Z" fill="#1D396A"/>
<path d="M186.988 127.222L181.25 116.75" stroke="#1D396A" stroke-width="4.758" stroke-linecap="round" stroke-linejoin="round"/>
<path d="M162.126 117.055C174.917 121.206 188.652 114.202 192.803 101.411C196.954 88.6204 189.95 74.8861 177.159 70.735C164.368 66.5839 150.633 73.5879 146.482 86.3789C142.331 99.1699 149.335 112.904 162.126 117.055Z" fill="white" stroke="#1D396A" stroke-width="4.36425" stroke-linecap="round" stroke-linejoin="round"/>
</g>
<defs>
<linearGradient id="paint0_linear_169_7816" x1="107.694" y1="183.044" x2="109.944" y2="-36.5771" gradientUnits="userSpaceOnUse">
<stop stop-color="white"/>
<stop offset="1" stop-color="#EEEEEE"/>
</linearGradient>
<linearGradient id="paint1_linear_169_7816" x1="160.915" y1="79.7413" x2="138.57" y2="-20.6672" gradientUnits="userSpaceOnUse">
<stop stop-color="white"/>
<stop offset="1" stop-color="#EEEEEE"/>
</linearGradient>
<linearGradient id="paint2_linear_169_7816" x1="175.406" y1="79.9959" x2="225.141" y2="40.6559" gradientUnits="userSpaceOnUse">
<stop stop-color="white"/>
<stop offset="1" stop-color="#EEEEEE"/>
</linearGradient>
<linearGradient id="paint3_linear_169_7816" x1="51.795" y1="104.52" x2="0.0664737" y2="56.4578" gradientUnits="userSpaceOnUse">
<stop stop-color="white"/>
<stop offset="1" stop-color="#EEEEEE"/>
</linearGradient>
<clipPath id="clip0_169_7816">
<rect width="225" height="150" fill="white"/>
</clipPath>
</defs>
</svg>
