<svg width="225" height="150" viewBox="0 0 225 150" fill="none" xmlns="http://www.w3.org/2000/svg">
<g clip-path="url(#clip0_169_8372)">
<path d="M156.464 47.4588C153.819 52.1798 148.025 52.8285 138.744 51.9313C131.763 51.2553 125.397 50.7323 118.416 46.926C113.53 44.264 109.662 40.662 106.839 37.1638C103.78 33.374 99.5102 29.049 101.603 24.752C104.48 18.8495 121.115 13.878 137.268 22.0078C155.013 30.941 159.052 42.8445 156.464 47.4588Z" fill="url(#paint0_linear_169_8372)"/>
<path d="M46.4443 48.6283C50.3118 50.9463 55.8603 48.8035 55.8603 48.8035C55.8603 48.8035 55.1348 42.9035 51.265 40.5883C47.3975 38.2703 41.8513 40.4103 41.8513 40.4103C41.8513 40.4103 42.5768 46.3103 46.4443 48.6283Z" fill="url(#paint1_linear_169_8372)"/>
<path d="M173.432 87.1796C171.417 87.1796 169.784 88.8127 169.784 90.8271C169.784 92.8416 171.417 94.4746 173.432 94.4746C175.446 94.4746 177.079 92.8416 177.079 90.8271C177.079 88.8127 175.446 87.1796 173.432 87.1796Z" fill="#1D396A"/>
<path d="M51.2572 62.3944C49.599 62.3944 48.2547 63.7387 48.2547 65.3969C48.2547 67.0551 49.599 68.3994 51.2572 68.3994C52.9155 68.3994 54.2598 67.0551 54.2598 65.3969C54.2598 63.7387 52.9155 62.3944 51.2572 62.3944Z" fill="#1D396A"/>
<path d="M51.674 108.144C49.7855 108.144 48.2545 106.613 48.2545 104.724C48.2545 102.836 49.7855 101.305 51.674 101.305C53.5625 101.305 55.0935 102.836 55.0935 104.724C55.0935 106.613 53.5625 108.144 51.674 108.144Z" fill="#1D396A"/>
<path d="M164.984 63.9864C164.102 63.9864 163.388 63.272 163.388 62.3907C163.388 61.5094 164.102 60.7949 164.984 60.7949C165.865 60.7949 166.579 61.5094 166.579 62.3907C166.579 63.272 165.865 63.9864 164.984 63.9864Z" fill="#1D396A"/>
<path d="M112.137 137.656C111.004 137.656 110.085 136.738 110.085 135.604C110.085 134.471 111.004 133.553 112.137 133.553C113.27 133.553 114.189 134.471 114.189 135.604C114.189 136.738 113.27 137.656 112.137 137.656Z" fill="#E1E4E5"/>
<path d="M143.039 126.427C141.794 126.427 140.784 125.417 140.784 124.172C140.784 122.926 141.794 121.916 143.039 121.916C144.285 121.916 145.295 122.926 145.295 124.172C145.295 125.417 144.285 126.427 143.039 126.427Z" fill="#E1E4E5"/>
<path d="M166.695 42.0902C165.31 42.0902 164.188 40.9675 164.188 39.5827C164.188 38.1978 165.31 37.0752 166.695 37.0752C168.08 37.0752 169.203 38.1978 169.203 39.5827C169.203 40.9675 168.08 42.0902 166.695 42.0902Z" fill="#E1E4E5"/>
<path d="M168.919 121.089C169.241 122.29 168.528 123.524 167.327 123.846C166.125 124.168 164.891 123.455 164.569 122.254C164.247 121.053 164.96 119.818 166.161 119.496C167.362 119.174 168.597 119.887 168.919 121.089Z" fill="#F05323"/>
<path d="M74.9697 35.8704C73.3152 35.8704 71.974 34.5292 71.974 32.8747C71.974 31.2201 73.3152 29.8789 74.9697 29.8789C76.6243 29.8789 77.9655 31.2201 77.9655 32.8747C77.9655 34.5292 76.6243 35.8704 74.9697 35.8704Z" fill="#E1E4E5"/>
<path d="M55.1928 124.785C53.9202 124.785 52.8885 123.959 52.8885 122.941C52.8885 121.923 53.9202 121.098 55.1928 121.098C56.4654 121.098 57.497 121.923 57.497 122.941C57.497 123.959 56.4654 124.785 55.1928 124.785Z" fill="#E1E4E5"/>
<path d="M78.7141 122.349C79.384 124.849 77.9003 127.419 75.4002 128.089C72.9002 128.759 70.3304 127.275 69.6605 124.775C68.9906 122.275 70.4742 119.705 72.9743 119.035C75.4744 118.365 78.0442 119.849 78.7141 122.349Z" fill="#F05323"/>
<path d="M166.655 102.336H166.715C167.072 107.394 170.834 107.472 170.834 107.472C170.834 107.472 166.686 107.552 166.686 113.397C166.686 107.552 162.538 107.472 162.538 107.472C162.538 107.472 166.298 107.394 166.655 102.336Z" fill="#E1E4E5"/>
<path d="M42.028 29.1889L73.5785 20.7351C75.7518 20.1526 77.7068 19.7364 79.5188 19.6274C89.1283 18.6116 93.2838 24.1649 97.8268 41.1194L105.891 71.2164C110.434 88.1709 109.612 95.0579 100.782 98.9831C99.1583 99.7944 97.257 100.411 95.0838 100.994L63.5333 109.448C61.3598 110.03 59.4048 110.446 57.593 110.555C47.9835 111.571 43.8278 106.018 39.2848 89.0634L31.2203 58.9664C26.6775 42.0119 27.4998 35.1249 36.3298 31.1996C37.9533 30.3884 39.8545 29.7714 42.028 29.1889Z" fill="white" stroke="#E1E4E5" stroke-width="2.75"/>
<path d="M68.7093 46.4277L79.931 43.4209M51.3052 64.8367L51.3695 64.8194L83.3675 56.2456M54.5755 77.0409L54.6398 77.0236L86.6377 68.4499M57.8457 89.2452L57.9098 89.2279L89.9078 80.6541M57.7892 49.3536L57.818 49.3459M48.1705 51.9309L48.1992 51.9231" stroke="#E1E4E5" stroke-width="6" stroke-linecap="round" stroke-linejoin="round"/>
<path d="M151.583 20.7351L183.133 29.1891C185.306 29.7714 187.208 30.3884 188.831 31.1999C197.661 35.1249 198.484 42.0119 193.941 58.9666L185.876 89.0636C181.333 106.018 177.177 111.571 167.568 110.556C165.756 110.446 163.801 110.03 161.628 109.448L130.077 100.994C127.904 100.411 126.002 99.7946 124.379 98.9831C115.549 95.0579 114.726 88.1711 119.269 71.2164L127.334 41.1194C131.877 24.1646 136.033 18.6116 145.642 19.6274C147.454 19.7366 149.409 20.1529 151.583 20.7351Z" fill="white" stroke="#E1E4E5" stroke-width="2.75"/>
<path d="M166.07 49.0055L177.292 52.0122M141.793 56.246L141.857 56.2632L173.855 64.837M138.523 68.4505L138.587 68.4677L170.585 77.0415M135.253 80.6545L135.317 80.6717L167.315 89.2455M155.15 46.0795L155.179 46.0872M145.531 43.502L145.56 43.5097" stroke="#F05323" stroke-width="6" stroke-linecap="round" stroke-linejoin="round"/>
<path d="M93.6383 12.1836H131.42C134.023 12.1836 136.332 12.3036 138.389 12.7241C149.43 14.4661 152.41 21.9148 152.41 42.2183V78.2598C152.41 98.5633 149.43 106.012 138.389 107.754C136.332 108.174 134.023 108.295 131.42 108.295H93.6383C91.0355 108.295 88.7265 108.174 86.6695 107.754C75.6288 106.012 72.6483 98.5633 72.6483 78.2598V42.2183C72.6483 21.9148 75.6288 14.4661 86.6695 12.7241C88.7265 12.3036 91.0355 12.1836 93.6383 12.1836Z" fill="white" stroke="#E1E4E5" stroke-width="2.75"/>
<path d="M118.289 39.4319H131.727M93.3318 54.7896H131.727M93.3318 69.4044H131.727M93.3318 84.0194H131.727M105.212 39.4316H105.246M93.693 39.4316H93.7275" stroke="#E1E4E5" stroke-width="6" stroke-linecap="round" stroke-linejoin="round"/>
<path d="M112.668 140.205C126.085 140.205 136.962 129.328 136.962 115.911C136.962 102.494 126.085 91.6172 112.668 91.6172C99.251 91.6172 88.3743 102.494 88.3743 115.911C88.3743 129.328 99.251 140.205 112.668 140.205Z" fill="#1D396A"/>
<path d="M114.38 108.763C114.38 107.8 113.599 107.02 112.637 107.02C111.674 107.02 110.893 107.8 110.893 108.763V123.246C110.893 124.209 111.674 124.99 112.637 124.99C113.599 124.99 114.38 124.209 114.38 123.246V108.763Z" fill="white"/>
<path d="M119.878 117.748C120.841 117.748 121.622 116.968 121.622 116.005C121.622 115.042 120.841 114.262 119.878 114.262H105.395C104.432 114.262 103.652 115.042 103.652 116.005C103.652 116.968 104.432 117.748 105.395 117.748H119.878Z" fill="white"/>
</g>
<defs>
<linearGradient id="paint0_linear_169_8372" x1="138.644" y1="78.0563" x2="115.065" y2="-27.8965" gradientUnits="userSpaceOnUse">
<stop stop-color="white"/>
<stop offset="1" stop-color="#EEEEEE"/>
</linearGradient>
<linearGradient id="paint1_linear_169_8372" x1="61.4103" y1="56.0895" x2="30.2913" y2="27.176" gradientUnits="userSpaceOnUse">
<stop stop-color="white"/>
<stop offset="1" stop-color="#EEEEEE"/>
</linearGradient>
<clipPath id="clip0_169_8372">
<rect width="225" height="150" fill="white"/>
</clipPath>
</defs>
</svg>
