<svg width="48" height="48" viewBox="0 0 48 48" fill="none" xmlns="http://www.w3.org/2000/svg">
<rect width="48" height="48" rx="24" fill="#E6E6E6"/>
<path d="M33.9695 24.4146L24.4298 19.4319V18.4654C24.4328 18.1337 24.3301 17.8097 24.1367 17.5403C23.9433 17.2708 23.6692 17.0699 23.354 16.9666C21.3442 16.3266 21.4544 13.3491 23.5426 12.9029C23.8505 12.8371 24.1692 12.8407 24.4756 12.9134C24.782 12.986 25.0683 13.126 25.3139 13.3231C25.5594 13.5202 25.758 13.7695 25.8953 14.0529C26.0326 14.3363 26.105 14.6466 26.1074 14.9615C26.1074 15.0752 26.1526 15.1842 26.2329 15.2646C26.3133 15.345 26.4223 15.3901 26.536 15.3901C26.6497 15.3901 26.7587 15.345 26.8391 15.2646C26.9195 15.1842 26.9646 15.0752 26.9646 14.9615C26.9613 14.5195 26.8598 14.0838 26.6676 13.6858C26.4753 13.2879 26.197 12.9376 25.8528 12.6603C25.5086 12.383 25.1071 12.1856 24.6774 12.0825C24.2476 11.9793 23.8003 11.9728 23.3677 12.0636C20.4279 12.6963 20.2474 16.8688 23.0904 17.7826C23.2328 17.8306 23.3562 17.9226 23.4429 18.0453C23.5296 18.1681 23.575 18.3152 23.5726 18.4654V19.4264L14.0317 24.4137C13.6105 24.6373 13.2759 24.995 13.0809 25.4302C12.8859 25.8654 12.8416 26.3531 12.9551 26.8163C13.0685 27.2795 13.3332 27.6916 13.7072 27.9874C14.0812 28.2832 14.5432 28.4459 15.02 28.4495H16.413V30.188C16.6531 30.284 17.3701 30.5322 17.596 30.6166L20.0095 29.7422C20.1037 29.708 20.2069 29.708 20.301 29.7422L22.7141 30.6166L25.1315 29.7422C25.2256 29.708 25.3288 29.708 25.4229 29.7422L27.8403 30.6166L30.2577 29.7422C30.3518 29.708 30.455 29.708 30.5491 29.7422C30.7429 29.8138 31.3974 30.0453 31.5864 30.1151V28.4495H32.9798C33.4565 28.4459 33.9184 28.2834 34.2923 27.9877C34.6663 27.6921 34.931 27.2802 35.0446 26.8173C35.1582 26.3543 35.1142 25.8666 34.9196 25.4315C34.7249 24.9963 34.3908 24.6385 33.9699 24.4146H33.9695ZM32.9798 27.5923H31.5864V26.6862C31.5863 26.2384 31.4083 25.8089 31.0916 25.4922C30.775 25.1756 30.3455 24.9976 29.8976 24.9975H18.1065C17.8844 24.9971 17.6644 25.0405 17.4591 25.1251C17.2538 25.2098 17.0672 25.3341 16.91 25.491C16.7527 25.6478 16.628 25.8341 16.5428 26.0392C16.4576 26.2443 16.4136 26.4641 16.4135 26.6862V27.5923H15.02C14.7346 27.5898 14.4581 27.4922 14.2343 27.315C14.0105 27.1378 13.852 26.8911 13.784 26.6139C13.716 26.3367 13.7423 26.0447 13.8587 25.784C13.9751 25.5233 14.175 25.3089 14.4268 25.1745L23.9952 20.1726L33.5747 25.1754C33.8263 25.31 34.0258 25.5246 34.1419 25.7853C34.2579 26.0459 34.2839 26.3378 34.2157 26.6148C34.1475 26.8919 33.989 27.1383 33.7652 27.3153C33.5415 27.4923 33.2651 27.5898 32.9798 27.5923Z" fill="#131313"/>
<path d="M30.4035 30.5996L27.9819 31.474C27.8892 31.5082 27.7873 31.5082 27.6947 31.474L25.2773 30.5996L22.8599 31.474C22.7658 31.5082 22.6626 31.5082 22.5685 31.474L20.1554 30.5996L17.7423 31.474C17.6481 31.5082 17.5449 31.5082 17.4508 31.474C17.2901 31.4191 16.579 31.1589 16.4136 31.1011V32.5455H31.5865V31.0282C31.193 30.883 30.7987 30.7402 30.4035 30.5996ZM16.4136 33.4027V34.8643C16.4144 35.1661 16.5349 35.4551 16.7486 35.6681C16.9624 35.8811 17.2519 36.0005 17.5537 36.0001H30.4507C30.7517 35.9996 31.0403 35.8797 31.2532 35.6668C31.4661 35.454 31.5859 35.1654 31.5865 34.8643V33.4027H16.4136Z" fill="#131313"/>
</svg>
