<svg width="22" height="22" viewBox="0 0 22 22" fill="none" xmlns="http://www.w3.org/2000/svg">
<path d="M17.7281 13.2822L16.8115 11.7605C16.619 11.4213 16.4448 10.7797 16.4448 10.4038V8.08467C16.4448 5.93051 15.1798 4.06967 13.3556 3.19884C12.879 2.35551 11.999 1.83301 10.9906 1.83301C9.99145 1.83301 9.09312 2.37384 8.61645 3.22634C6.82895 4.11551 5.59145 5.95801 5.59145 8.08467V10.4038C5.59145 10.7797 5.41728 11.4213 5.22478 11.7513L4.29895 13.2822C3.93228 13.8963 3.84978 14.5747 4.07895 15.198C4.29895 15.8122 4.82145 16.2888 5.49978 16.518C7.27812 17.123 9.14812 17.4163 11.0181 17.4163C12.8881 17.4163 14.7581 17.123 16.5365 16.5272C17.1781 16.3163 17.6731 15.8305 17.9115 15.198C18.1498 14.5655 18.0856 13.8688 17.7281 13.2822Z" fill="#4B4B4B"/>
<path d="M13.5942 18.3422C13.2092 19.4055 12.1917 20.1663 11 20.1663C10.2759 20.1663 9.56087 19.873 9.05671 19.3505C8.76337 19.0755 8.54337 18.7088 8.41504 18.333C8.53421 18.3513 8.65337 18.3605 8.78171 18.3788C8.99254 18.4063 9.21254 18.4338 9.43254 18.4522C9.95504 18.498 10.4867 18.5255 11.0184 18.5255C11.5409 18.5255 12.0634 18.498 12.5767 18.4522C12.7692 18.4338 12.9617 18.4247 13.145 18.3972C13.2917 18.3788 13.4384 18.3605 13.5942 18.3422Z" fill="#4B4B4B"/>
</svg>
