<svg width="225" height="150" viewBox="0 0 225 150" fill="none" xmlns="http://www.w3.org/2000/svg">
<g clip-path="url(#clip0_169_8350)">
<path d="M143.302 110.396C132.184 113.773 120.58 115.461 108.96 115.795C103.167 115.962 97.3565 115.762 91.6132 115.077C86.3892 114.441 81.0812 113.505 76.0915 111.767C71.738 110.263 67.1167 107.388 67.5352 102.156C67.5185 102.307 67.5017 102.44 67.5017 102.591L67.4012 103.243C66.246 110.079 65.074 116.898 63.9185 123.735C63.768 124.47 63.7512 124.587 63.8682 124.102C63.8347 124.236 63.8015 124.386 63.768 124.52C64.6217 121.461 66.631 118.971 68.5902 116.547C70.5157 114.174 72.5082 111.784 73.8812 109.043C74.5845 107.622 75.1037 106.251 75.4385 104.714C76.4097 100.234 77.046 95.554 77.7995 91.041C78.419 87.3638 79.2227 83.6198 79.5407 79.8925C79.792 76.9843 78.9547 74.243 76.9957 72.0535C72.927 67.507 66.3967 66.2535 60.553 66.2368C54.4415 66.2368 48.2462 67.3233 42.1847 66.103C39.0872 65.468 36.0732 64.181 33.8965 61.8408C31.703 59.484 29.61 55.9573 29.8445 52.6313C29.8277 52.7815 29.811 52.9153 29.811 53.0658C29.5597 54.7038 29.2917 56.325 29.0407 57.963C28.0192 63.763 27.0147 69.5798 25.9932 75.3795C26.01 75.296 26.0267 75.2293 26.0435 75.1455C26.01 75.2793 25.9765 75.4298 25.943 75.5635C27.3327 70.2148 33.6117 69.4793 38.1997 69.212C38.317 69.212 38.97 65.2505 38.8695 65.752C39.3726 62.9583 39.8582 60.1614 40.3262 57.3615C40.795 54.57 41.2805 51.762 41.716 48.9708C41.7662 48.6198 42.1847 45.4775 42.2182 45.4775C39.4052 45.6445 36.4415 45.795 33.9132 47.1323C32.8415 47.7005 31.8537 48.486 31.1002 49.4555C29.945 50.9598 29.7272 52.765 29.3922 54.5868C28.371 60.1695 27.4165 65.7688 26.5122 71.368C26.211 73.2568 25.6752 75.2625 25.7587 77.2015C25.8257 78.6055 26.3115 79.9593 26.9142 81.213C28.103 83.6365 29.744 85.893 32.0045 87.414C36.5922 90.4728 42.5197 90.5563 47.8275 90.3223C53.4367 90.0715 59.1967 89.403 64.6887 90.9575C67.6357 91.7933 70.5325 93.2473 72.659 95.487C74.7855 97.7268 75.7232 100.552 75.472 103.627C75.4887 103.477 75.5055 103.343 75.5055 103.193C75.087 107.087 75.6897 103.594 77.3137 92.7293C79.3732 81.9318 79.9595 78.455 79.072 82.266C79.1055 82.1323 79.139 81.9818 79.1725 81.848C78.2682 85.3915 76.1752 88.3835 73.9147 91.2083C71.738 93.9325 69.193 96.6238 68.021 99.9833C67.4515 101.621 67.2172 103.393 66.9157 105.081C65.7102 111.75 64.4042 118.47 63.5502 125.189C63.3492 126.827 63.4665 128.431 64.22 129.919C65.4255 132.276 67.8032 133.78 70.1807 134.8C73.0272 136.036 76.125 136.755 79.1557 137.407C82.9125 138.209 86.715 138.778 90.5417 139.112C98.2105 139.814 105.946 139.68 113.615 138.995C122.288 138.226 130.895 136.638 139.233 134.114C139.434 134.047 139.987 130.237 139.903 130.654C140.406 127.86 140.892 125.063 141.36 122.264C141.829 119.472 142.314 116.664 142.75 113.873C142.85 113.255 142.95 112.636 143.034 112.018C143.185 111.5 143.252 110.948 143.302 110.396Z" fill="#E1E4E5"/>
<path d="M63.9864 123.82C64.9462 121.105 66.7814 118.811 68.5829 116.585C70.1657 114.612 71.8157 112.639 73.1119 110.464C73.1119 110.464 73.0952 110.464 73.0952 110.447H73.1289C73.4149 109.975 73.6677 109.503 73.9202 109.014C74.6272 107.58 75.1154 106.079 75.4522 104.528C75.4522 104.494 75.4692 104.443 75.4692 104.41C75.4859 104.207 75.5027 103.887 75.5534 103.432C75.7722 100.379 74.8462 97.5632 72.7247 95.3202C72.3228 94.9008 71.8955 94.5066 71.4452 94.1396C70.0644 95.8934 68.8017 97.7486 68.0779 99.8564C67.5054 101.509 67.2697 103.297 66.9667 105C65.7544 111.729 64.4412 118.508 63.5824 125.287C63.5657 125.355 63.5657 125.439 63.5657 125.506C63.6834 124.95 63.8519 124.377 63.9864 123.82ZM63.8349 124.191C63.8012 124.343 63.7844 124.427 63.7677 124.461C63.8014 124.377 63.8182 124.275 63.8349 124.191Z" fill="url(#paint0_linear_169_8350)"/>
<path d="M25.9185 75.0936C25.9352 75.0433 25.9352 75.0096 25.952 74.9593C25.9352 75.0433 25.9185 75.1103 25.9017 75.1941C25.9017 75.1606 25.9017 75.1271 25.9185 75.0936C25.9017 75.1941 25.8682 75.2948 25.8515 75.3788C27.2432 70.0108 33.5315 69.2728 38.126 69.0043C38.2432 69.0043 38.8972 65.0288 38.7967 65.5321C38.8302 65.3308 38.8637 65.1463 38.8972 64.9448C38.8637 64.9281 38.8135 64.9113 38.78 64.8946C38.7967 64.8778 38.8135 64.8611 38.8302 64.8611C38.8637 64.8443 38.8972 64.8108 38.9307 64.7941C39.3835 62.2443 39.8362 59.6778 40.2722 57.1113C40.7417 54.3098 41.228 51.4918 41.664 48.6903C41.7142 48.3381 42.1335 45.1846 42.167 45.1846C39.35 45.3523 36.382 45.5033 33.85 46.8451C32.7767 47.4156 31.7875 48.2038 31.033 49.1768C29.876 50.6866 29.658 52.4983 29.3225 54.3266C28.2997 59.9293 27.3437 65.5488 26.4382 71.1683C26.2202 72.5103 25.9017 73.9026 25.7507 75.2781C25.8012 75.1773 25.8515 75.0768 25.9185 74.9761V75.0936Z" fill="url(#paint1_linear_169_8350)"/>
<path d="M115.506 121.136C137.551 121.136 155.422 103.265 155.422 81.2192C155.422 59.174 137.551 41.3027 115.506 41.3027C93.4607 41.3027 75.5895 59.174 75.5895 81.2192C75.5895 103.265 93.4607 121.136 115.506 121.136Z" fill="#1D396A"/>
<path d="M119.022 64.9741L122.41 70.2331C122.945 71.0604 124.135 71.8876 125.026 72.1239L131.09 73.6601C134.836 74.6056 135.846 77.7964 133.409 80.7509L129.426 85.5369C128.831 86.3051 128.355 87.6641 128.415 88.6096L128.772 94.8139C129.009 98.6546 126.275 100.604 122.708 99.1864L116.881 96.8819C115.99 96.5274 114.503 96.5274 113.612 96.8819L107.785 99.1864C104.218 100.604 101.484 98.5954 101.721 94.8139L102.078 88.6096C102.138 87.6641 101.662 86.2459 101.068 85.5369L97.0845 80.7509C94.647 77.7964 95.6575 74.6056 99.403 73.6601L105.467 72.1239C106.418 71.8876 107.607 71.0011 108.083 70.2331L111.471 64.9741C113.612 61.7834 116.941 61.7834 119.022 64.9741Z" fill="white"/>
<path d="M75.5055 39.4315C86.6237 36.055 98.2272 34.367 109.848 34.0327C115.641 33.8655 121.451 34.066 127.194 34.7512C132.419 35.3865 137.726 36.3225 142.716 38.0607C147.07 39.565 151.691 42.44 151.272 47.6715C151.289 47.5212 151.306 47.3875 151.306 47.237L151.406 46.5852C152.562 39.749 153.734 32.9295 154.889 26.0932C155.04 25.3577 155.057 25.2407 154.939 25.7255C154.973 25.5917 155.006 25.4415 155.04 25.3077C154.186 28.3665 152.177 30.857 150.218 33.2805C148.292 35.654 146.299 38.044 144.926 40.7852C144.223 42.206 143.704 43.5765 143.369 45.1142C142.398 49.5937 141.762 54.2737 141.008 58.7867C140.389 62.464 139.585 66.208 139.267 69.9352C139.016 72.8435 139.853 75.5847 141.812 77.7742C145.881 82.3207 152.411 83.5742 158.255 83.591C164.366 83.591 170.562 82.5045 176.623 83.7247C179.721 84.3597 182.735 85.6467 184.911 87.987C187.105 90.3437 189.198 93.8705 188.963 97.1965C188.98 97.0462 188.997 96.9125 188.997 96.762C189.248 95.124 189.516 93.5027 189.767 91.8647C190.788 86.0647 191.793 80.248 192.814 74.4482C192.798 74.5317 192.781 74.5985 192.764 74.6822C192.798 74.5485 192.831 74.398 192.865 74.2642C191.475 79.613 185.196 80.3485 180.608 80.6157C180.491 80.6157 179.838 84.5772 179.938 84.0757C179.435 86.8695 178.95 89.6663 178.482 92.4662C178.013 95.2577 177.527 98.0657 177.092 100.857C177.042 101.208 176.623 104.35 176.589 104.35C179.402 104.183 182.366 104.033 184.895 102.695C185.966 102.127 186.954 101.342 187.708 100.372C188.863 98.868 189.081 97.0627 189.415 95.241C190.437 89.6582 191.391 84.059 192.295 78.4597C192.597 76.571 193.133 74.5652 193.049 72.6262C192.982 71.2222 192.496 69.8685 191.894 68.6147C190.705 66.1912 189.064 63.9347 186.803 62.4137C182.215 59.355 176.288 59.2715 170.98 59.5055C165.371 59.7562 159.611 60.4247 154.119 58.8702C151.172 58.0345 148.275 56.5805 146.149 54.3407C144.022 52.101 143.085 49.2762 143.336 46.2007C143.319 46.3512 143.302 46.485 143.302 46.6352C143.721 42.7407 143.118 46.2342 141.494 57.0985C139.434 67.896 138.848 71.3727 139.736 67.5617C139.702 67.6955 139.669 67.846 139.635 67.9797C140.539 64.4362 142.632 61.4442 144.893 58.6195C147.07 55.8952 149.615 53.204 150.787 49.8445C151.356 48.2065 151.591 46.4347 151.892 44.7465C153.098 38.0775 154.404 31.3582 155.258 24.639C155.458 23.001 155.341 21.3965 154.588 19.909C153.382 17.5522 151.005 16.048 148.627 15.0282C145.78 13.7915 142.683 13.0727 139.652 12.4207C135.896 11.6192 132.093 11.0498 128.266 10.7157C120.597 10.014 112.862 10.1477 105.193 10.833C96.5195 11.6017 87.913 13.1897 79.5745 15.7135C79.3735 15.7805 78.821 19.5912 78.9047 19.1735C78.4014 21.9673 77.9158 24.7643 77.448 27.5642C76.979 30.3555 76.4935 33.1635 76.0582 35.9547C75.9577 36.5732 75.8572 37.1917 75.7735 37.81C75.6227 38.3282 75.5557 38.8797 75.5055 39.4315Z" fill="#F05323"/>
<path d="M154.821 26.0078C153.862 28.7228 152.027 31.0163 150.225 33.2423C148.642 35.2153 146.992 37.1885 145.696 39.3638C145.696 39.3638 145.713 39.3638 145.713 39.3808H145.679C145.393 39.853 145.14 40.325 144.888 40.8143C144.181 42.2475 143.692 43.7485 143.356 45.3C143.356 45.3338 143.339 45.3843 143.339 45.418C143.322 45.6203 143.305 45.9408 143.255 46.396C143.036 49.4485 143.962 52.2648 146.083 54.5075C146.485 54.927 146.912 55.3212 147.363 55.688C148.743 53.9343 150.006 52.0793 150.73 49.9713C151.303 48.3185 151.538 46.531 151.841 44.8278C153.054 38.099 154.367 31.3198 155.225 24.5405C155.242 24.473 155.242 24.3888 155.242 24.3213C155.124 24.8778 154.956 25.4513 154.821 26.0078ZM154.973 25.6368C155.007 25.485 155.023 25.4005 155.04 25.3668C155.007 25.4513 154.99 25.5523 154.973 25.6368Z" fill="url(#paint2_linear_169_8350)"/>
<path d="M192.889 74.7345C192.873 74.7847 192.872 74.8182 192.856 74.8685C192.872 74.7847 192.889 74.7177 192.906 74.6337C192.906 74.6672 192.906 74.7007 192.889 74.7345C192.906 74.6337 192.94 74.533 192.956 74.4492C191.565 79.817 185.276 80.5552 180.682 80.8235C180.564 80.8235 179.911 84.7992 180.011 84.296C179.978 84.4972 179.944 84.6817 179.911 84.883C179.944 84.8997 179.994 84.9165 180.028 84.9332C180.011 84.95 179.994 84.967 179.977 84.967C179.944 84.9837 179.91 85.0172 179.877 85.034C179.424 87.5837 178.972 90.1502 178.536 92.7167C178.066 95.518 177.58 98.3362 177.144 101.137C177.093 101.49 176.674 104.643 176.641 104.643C179.458 104.476 182.426 104.325 184.958 102.983C186.031 102.412 187.02 101.624 187.775 100.651C188.932 99.1415 189.15 97.3297 189.485 95.5012C190.508 89.8985 191.464 84.2792 192.37 78.6597C192.588 77.3177 192.906 75.9255 193.057 74.55C193.007 74.6505 192.956 74.7512 192.889 74.8517V74.7345Z" fill="url(#paint3_linear_169_8350)"/>
<path d="M193.441 85.2019C190.205 86.8069 185.911 84.7431 185.911 84.7431C185.911 84.7431 186.865 80.0776 190.103 78.4749C193.338 76.8699 197.631 78.9314 197.631 78.9314C197.631 78.9314 196.677 83.5966 193.441 85.2019Z" fill="url(#paint4_linear_169_8350)"/>
<path d="M55.7435 42.5607C60.6142 45.48 67.6027 42.7815 67.6027 42.7815C67.6027 42.7815 66.689 35.3505 61.815 32.4345C56.944 29.515 49.9587 32.2105 49.9587 32.2105C49.9587 32.2105 50.8725 39.6412 55.7435 42.5607Z" fill="url(#paint5_linear_169_8350)"/>
<path d="M67.4172 54.9492C65.3286 54.9492 63.6355 56.6423 63.6355 58.7309C63.6355 60.8195 65.3286 62.5127 67.4172 62.5127C69.5058 62.5127 71.199 60.8195 71.199 58.7309C71.199 56.6423 69.5058 54.9492 67.4172 54.9492Z" fill="#1D396A"/>
<path d="M49.0087 130.708C46.6301 130.708 44.7019 128.78 44.7019 126.401C44.7019 124.023 46.6301 122.095 49.0087 122.095C51.3872 122.095 53.3154 124.023 53.3154 126.401C53.3154 128.78 51.3872 130.708 49.0087 130.708Z" fill="#F05323"/>
<path d="M160.768 49.1572C159.658 49.1572 158.759 48.2574 158.759 47.1474C158.759 46.0375 159.658 45.1377 160.768 45.1377C161.878 45.1377 162.778 46.0375 162.778 47.1474C162.778 48.2574 161.878 49.1572 160.768 49.1572Z" fill="#F05323"/>
<path d="M39.509 38.3125C38.0819 38.3125 36.925 37.1556 36.925 35.7285C36.925 34.3014 38.0819 33.1445 39.509 33.1445C40.9361 33.1445 42.093 34.3014 42.093 35.7285C42.093 37.1556 40.9361 38.3125 39.509 38.3125Z" fill="#E1E4E5"/>
<path d="M30.3002 101.663C28.2388 101.663 26.5677 99.9921 26.5677 97.9307C26.5677 95.8693 28.2388 94.1982 30.3002 94.1982C32.3616 94.1982 34.0327 95.8693 34.0327 97.9307C34.0327 99.9921 32.3616 101.663 30.3002 101.663Z" fill="#E1E4E5"/>
<path d="M170.47 33.1281C169.421 33.1281 168.57 32.2777 168.57 31.2286C168.57 30.1795 169.421 29.3291 170.47 29.3291C171.519 29.3291 172.369 30.1795 172.369 31.2286C172.369 32.2777 171.519 33.1281 170.47 33.1281Z" fill="#E1E4E5"/>
<path d="M184.327 48.7911C184.327 50.3574 183.058 51.6271 181.491 51.6271C179.925 51.6271 178.655 50.3574 178.655 48.7911C178.655 47.2248 179.925 45.9551 181.491 45.9551C183.058 45.9551 184.327 47.2248 184.327 48.7911Z" fill="#E1E4E5"/>
<path d="M67.443 21.1349C66.394 21.1349 65.5435 20.2845 65.5435 19.2354C65.5435 18.1864 66.394 17.3359 67.443 17.3359C68.4921 17.3359 69.3425 18.1864 69.3425 19.2354C69.3425 20.2845 68.4921 21.1349 67.443 21.1349Z" fill="#E1E4E5"/>
<path d="M165.749 114.377C164.146 114.377 162.847 113.337 162.847 112.055C162.847 110.773 164.146 109.733 165.749 109.733C167.352 109.733 168.651 110.773 168.651 112.055C168.651 113.337 167.352 114.377 165.749 114.377Z" fill="#E1E4E5"/>
<path d="M55.9893 99.6484H56.0288C56.2641 103.107 58.7408 103.16 58.7408 103.16C58.7408 103.16 56.0096 103.216 56.0096 107.212C56.0096 103.216 53.2783 103.16 53.2783 103.16C53.2783 103.16 55.7541 103.107 55.9893 99.6484Z" fill="#E1E4E5"/>
</g>
<defs>
<linearGradient id="paint0_linear_169_8350" x1="56.8269" y1="110.492" x2="88.6629" y2="110.35" gradientUnits="userSpaceOnUse">
<stop stop-color="white"/>
<stop offset="1" stop-color="#EEEEEE"/>
</linearGradient>
<linearGradient id="paint1_linear_169_8350" x1="16.547" y1="60.9253" x2="60.0292" y2="60.6501" gradientUnits="userSpaceOnUse">
<stop stop-color="white"/>
<stop offset="1" stop-color="#EEEEEE"/>
</linearGradient>
<linearGradient id="paint2_linear_169_8350" x1="161.981" y1="39.3358" x2="130.145" y2="39.478" gradientUnits="userSpaceOnUse">
<stop stop-color="white"/>
<stop offset="1" stop-color="#EEEEEE"/>
</linearGradient>
<linearGradient id="paint3_linear_169_8350" x1="202.261" y1="88.9025" x2="158.778" y2="89.1777" gradientUnits="userSpaceOnUse">
<stop stop-color="white"/>
<stop offset="1" stop-color="#EEEEEE"/>
</linearGradient>
<linearGradient id="paint4_linear_169_8350" x1="181.016" y1="90.2084" x2="207.704" y2="69.0979" gradientUnits="userSpaceOnUse">
<stop stop-color="white"/>
<stop offset="1" stop-color="#EEEEEE"/>
</linearGradient>
<linearGradient id="paint5_linear_169_8350" x1="74.5927" y1="51.958" x2="35.3992" y2="15.542" gradientUnits="userSpaceOnUse">
<stop stop-color="white"/>
<stop offset="1" stop-color="#EEEEEE"/>
</linearGradient>
<clipPath id="clip0_169_8350">
<rect width="225" height="150" fill="white"/>
</clipPath>
</defs>
</svg>
