<svg width="23" height="22" viewBox="0 0 23 22" fill="none" xmlns="http://www.w3.org/2000/svg">
<g clip-path="url(#clip0_428_4568)">
<path d="M21.3196 11.88L12.5749 7.31261V6.42663C12.5776 6.1226 12.4835 5.82559 12.3062 5.57859C12.1289 5.33158 11.8777 5.1474 11.5887 5.05267C9.74645 4.46608 9.84743 1.73663 11.7616 1.32763C12.0439 1.26733 12.336 1.27061 12.6169 1.33724C12.8977 1.40387 13.1602 1.53217 13.3853 1.71284C13.6104 1.89351 13.7924 2.12202 13.9183 2.38179C14.0441 2.64156 14.1105 2.92608 14.1127 3.21471C14.1127 3.31891 14.1541 3.41884 14.2278 3.49253C14.3015 3.56621 14.4014 3.6076 14.5056 3.6076C14.6098 3.6076 14.7097 3.56621 14.7834 3.49253C14.8571 3.41884 14.8985 3.31891 14.8985 3.21471C14.8954 2.80957 14.8024 2.41016 14.6262 2.04536C14.4499 1.68056 14.1948 1.35946 13.8793 1.10528C13.5638 0.851098 13.1958 0.670176 12.8018 0.575589C12.4079 0.481001 11.9978 0.475109 11.6013 0.558339C8.90644 1.13825 8.74103 4.96309 11.3471 5.80075C11.4776 5.84472 11.5908 5.92906 11.6702 6.04156C11.7497 6.15407 11.7913 6.28892 11.7891 6.42663V7.3075L3.04326 11.8792C2.65718 12.0842 2.3505 12.4121 2.17175 12.811C1.99301 13.2099 1.95241 13.6571 2.05639 14.0816C2.16037 14.5062 2.40298 14.884 2.74583 15.1551C3.08867 15.4263 3.51217 15.5754 3.94927 15.5787H5.22619V17.1723C5.44621 17.2603 6.10352 17.4878 6.31058 17.5652L8.52297 16.7637C8.60926 16.7323 8.70386 16.7323 8.79014 16.7637L11.0021 17.5652L13.2181 16.7637C13.3044 16.7323 13.399 16.7323 13.4852 16.7637L15.7012 17.5652L17.9171 16.7637C18.0034 16.7323 18.098 16.7323 18.1843 16.7637C18.3619 16.8293 18.9618 17.0415 19.1351 17.1055V15.5787H20.4124C20.8494 15.5754 21.2727 15.4264 21.6156 15.1554C21.9584 14.8844 22.201 14.5069 22.3052 14.0825C22.4093 13.6581 22.369 13.2111 22.1905 12.8122C22.0121 12.4133 21.7058 12.0853 21.32 11.88H21.3196ZM20.4124 14.793H19.1351V13.9624C19.135 13.5518 18.9719 13.1582 18.6816 12.8679C18.3913 12.5776 17.9976 12.4145 17.5871 12.4144H6.77852C6.57494 12.414 6.37329 12.4538 6.1851 12.5314C5.9969 12.609 5.82585 12.723 5.68171 12.8667C5.53758 13.0105 5.4232 13.1813 5.34511 13.3693C5.26701 13.5573 5.22673 13.7588 5.22658 13.9624V14.793H3.94927C3.68761 14.7906 3.43418 14.7012 3.22901 14.5388C3.02383 14.3763 2.8786 14.1502 2.81625 13.8961C2.7539 13.6419 2.77798 13.3743 2.88468 13.1353C2.99139 12.8964 3.17464 12.6998 3.40551 12.5766L12.1765 7.99154L20.9577 12.5774C21.1883 12.7009 21.3712 12.8976 21.4776 13.1365C21.584 13.3754 21.6078 13.643 21.5453 13.8969C21.4828 14.1509 21.3375 14.3768 21.1324 14.5391C20.9272 14.7013 20.6739 14.7906 20.4124 14.793Z" fill="#797979"/>
<path d="M18.0507 17.5498L15.8308 18.3513C15.7459 18.3827 15.6525 18.3827 15.5676 18.3513L13.3516 17.5498L11.1357 18.3513C11.0494 18.3827 10.9548 18.3827 10.8685 18.3513L8.65654 17.5498L6.44454 18.3513C6.35825 18.3827 6.26366 18.3827 6.17737 18.3513C6.03003 18.301 5.37822 18.0625 5.22656 18.0095V19.3336H19.1351V17.9427C18.7744 17.8096 18.4129 17.6786 18.0507 17.5498ZM5.22656 20.1193V21.4591C5.22729 21.7357 5.33776 22.0007 5.53371 22.1959C5.72966 22.3911 5.99507 22.5006 6.27166 22.5003H18.0939C18.3699 22.4998 18.6344 22.3899 18.8295 22.1948C19.0247 21.9996 19.1346 21.7351 19.1351 21.4591V20.1193H5.22656Z" fill="#797979"/>
</g>
<defs>
<clipPath id="clip0_428_4568">
<rect width="22" height="22" fill="white" transform="translate(0.6875)"/>
</clipPath>
</defs>
</svg>
