<svg width="40" height="40" viewBox="0 0 40 40" fill="none" xmlns="http://www.w3.org/2000/svg">
<rect width="40" height="40" rx="20" fill="#F7F7F7"/>
<path d="M22.6837 15.458H14.817C14.5837 15.458 14.367 15.4663 14.167 15.4747C12.192 15.5913 11.667 16.3163 11.667 18.5663V19.0497C11.667 19.508 12.042 19.883 12.5003 19.883H25.0003C25.4587 19.883 25.8337 19.508 25.8337 19.0497V18.5663C25.8337 16.083 25.2003 15.458 22.6837 15.458Z" fill="#131313"/>
<path d="M12.5003 21.1338C12.042 21.1338 11.667 21.5088 11.667 21.9671V24.3921C11.667 26.8755 12.3003 27.5005 14.817 27.5005H22.6837C25.1587 27.5005 25.8087 26.9005 25.8337 24.5255V21.9671C25.8337 21.5088 25.4587 21.1338 25.0003 21.1338H12.5003ZM15.8003 25.4671H14.3753C14.0337 25.4671 13.7503 25.1838 13.7503 24.8421C13.7503 24.5005 14.0337 24.2171 14.3753 24.2171H15.8087C16.1503 24.2171 16.4337 24.5005 16.4337 24.8421C16.4337 25.1838 16.1503 25.4671 15.8003 25.4671ZM20.4587 25.4671H17.592C17.2503 25.4671 16.967 25.1838 16.967 24.8421C16.967 24.5005 17.2503 24.2171 17.592 24.2171H20.4587C20.8003 24.2171 21.0837 24.5005 21.0837 24.8421C21.0837 25.1838 20.8087 25.4671 20.4587 25.4671Z" fill="#131313"/>
<path d="M28.3333 21.1083V16.7417C28.3333 14.1333 26.8417 13 24.5917 13H17.15C16.5167 13 15.95 13.0917 15.45 13.2833C15.0583 13.425 14.7083 13.6333 14.425 13.9083C14.275 14.05 14.3917 14.2833 14.6083 14.2833H23.6667C25.5417 14.2833 27.0583 15.8 27.0583 17.675V23.65C27.0583 23.8583 27.2833 23.975 27.4333 23.825C28.0083 23.2167 28.3333 22.325 28.3333 21.1083Z" fill="#131313"/>
</svg>
