<svg width="23" height="22" viewBox="0 0 23 22" fill="none" xmlns="http://www.w3.org/2000/svg">
<path d="M17.827 8.00724L17.8598 8.70841L21.0981 8.27497L20.861 7.60309L17.827 8.00724ZM5.25609 20.0528L5.22373 20.7491H13.2779C13.2366 20.6376 13.215 20.5199 13.2139 20.401V20.0528H5.25609ZM11.4731 3.69034C13.1951 3.69034 13.7012 2.33436 13.8485 1.49707C13.0938 1.80128 12.2869 1.95502 11.4731 1.94966C10.6595 1.95427 9.85273 1.80055 9.09779 1.49707C9.24678 2.33607 9.7523 3.69034 11.4731 3.69034ZM1.84814 8.27603L5.08619 8.70875L5.11894 8.00724L2.0856 7.60309L1.84814 8.27603Z" fill="#797979"/>
<path d="M5.1918 2.43683C4.73844 2.58676 4.32554 2.83873 3.98488 3.17335C3.64423 3.50797 3.38492 3.9163 3.22692 4.36691L2.32178 6.93236L5.15144 7.31077L5.20681 6.1111C5.21305 6.0195 5.25439 5.93384 5.32223 5.87197C5.39006 5.8101 5.47916 5.77679 5.57094 5.77898C5.61669 5.78102 5.66158 5.79207 5.70304 5.81148C5.74451 5.8309 5.78174 5.85831 5.81259 5.89214C5.84345 5.92597 5.86733 5.96556 5.88286 6.00863C5.89839 6.05171 5.90526 6.09742 5.90309 6.14316L5.2886 19.3564H13.214V14.1761C13.214 13.9302 13.2661 13.6872 13.3669 13.4629C13.4676 13.2387 13.6147 13.0383 13.7985 12.8751L16.0015 10.9168C16.1722 10.7654 16.3878 10.6742 16.6152 10.6572C16.8427 10.6402 17.0694 10.6982 17.2607 10.8224L17.0435 6.14308C17.0407 6.08198 17.054 6.02121 17.0822 5.96689C17.1103 5.91257 17.1522 5.86661 17.2037 5.83362C17.2552 5.80063 17.3145 5.78178 17.3756 5.77896C17.4367 5.77614 17.4975 5.78945 17.5518 5.81756C17.6062 5.84568 17.6521 5.88761 17.6851 5.93913C17.7181 5.99065 17.737 6.04995 17.7398 6.11106L17.7955 7.30902L20.6252 6.93198L19.72 4.36619C19.5617 3.91576 19.3023 3.50763 18.9616 3.17315C18.6209 2.83868 18.2081 2.58677 17.7548 2.4368L14.5686 1.375C14.4415 2.31464 13.888 4.38641 11.4733 4.38641C9.05859 4.38641 8.50646 2.31917 8.37833 1.37709L5.1918 2.43683Z" fill="#797979"/>
<path d="M19.4804 20.4004V14.1757C19.4804 14.0282 19.4491 13.8824 19.3887 13.7478C19.3283 13.6133 19.24 13.4931 19.1298 13.3951L17.4163 11.871C17.4111 11.8661 17.4055 11.8619 17.4006 11.8567L16.9264 11.4355C16.8627 11.3789 16.7805 11.3477 16.6953 11.3477C16.6101 11.3477 16.5278 11.3789 16.4641 11.4355L14.2607 13.3941C14.1504 13.4922 14.0621 13.6126 14.0016 13.7473C13.9412 13.882 13.91 14.028 13.9102 14.1757V20.4004C13.9102 20.4924 13.9466 20.5807 14.0115 20.646C14.0764 20.7112 14.1645 20.7481 14.2565 20.7485H19.1322C19.2246 20.7485 19.3131 20.7118 19.3784 20.6465C19.4437 20.5812 19.4804 20.4927 19.4804 20.4004ZM17.0434 18.9584V19.3559C17.0434 19.4483 17.0067 19.5368 16.9414 19.6021C16.8762 19.6674 16.7876 19.7041 16.6953 19.7041C16.6029 19.7041 16.5144 19.6674 16.4491 19.6021C16.3838 19.5368 16.3471 19.4483 16.3471 19.3559V18.9594C16.1287 18.9031 15.9272 18.7948 15.7598 18.6436C15.5925 18.4923 15.4643 18.3028 15.3863 18.0911C15.3707 18.0482 15.3637 18.0025 15.3657 17.9569C15.3677 17.9112 15.3787 17.8664 15.3981 17.8249C15.4174 17.7835 15.4447 17.7463 15.4785 17.7154C15.5122 17.6846 15.5517 17.6606 15.5946 17.645C15.6376 17.6294 15.6832 17.6224 15.7289 17.6244C15.7746 17.6265 15.8194 17.6375 15.8608 17.6568C15.9023 17.6762 15.9395 17.7035 15.9704 17.7372C16.0012 17.7709 16.0251 17.8104 16.0408 17.8534C16.1616 18.1853 16.5118 18.3742 16.8555 18.2928C17.1993 18.2114 17.4276 17.8854 17.3866 17.5346C17.3457 17.1837 17.0485 16.9191 16.6953 16.919C15.9949 16.9199 15.4033 16.3995 15.3149 15.7047C15.2265 15.0099 15.6688 14.3579 16.3471 14.1833V13.7857C16.3471 13.6934 16.3838 13.6049 16.4491 13.5396C16.5144 13.4743 16.6029 13.4376 16.6953 13.4376C16.7876 13.4376 16.8762 13.4743 16.9414 13.5396C17.0067 13.6049 17.0434 13.6934 17.0434 13.7857V14.1823C17.2657 14.239 17.4706 14.35 17.6396 14.5052C17.8086 14.6604 17.9365 14.8551 18.0119 15.0718C18.0279 15.1152 18.0351 15.1614 18.033 15.2077C18.031 15.254 18.0197 15.2994 17.9998 15.3412C17.98 15.3831 17.952 15.4206 17.9175 15.4515C17.883 15.4824 17.8427 15.5061 17.7989 15.5212C17.7552 15.5363 17.7088 15.5426 17.6626 15.5395C17.6164 15.5365 17.5712 15.5243 17.5298 15.5036C17.4883 15.4829 17.4514 15.4542 17.4212 15.4191C17.391 15.384 17.3682 15.3432 17.3539 15.2991C17.2381 14.9639 16.8889 14.7692 16.5429 14.8472C16.1969 14.9251 15.9648 15.2506 16.0038 15.6031C16.0428 15.9556 16.3406 16.2224 16.6953 16.2227C17.3956 16.2218 17.9872 16.7423 18.0757 17.437C18.1641 18.1318 17.7217 18.7838 17.0434 18.9584Z" fill="#797979"/>
</svg>
