<svg width="151" height="150" viewBox="0 0 151 150" fill="none" xmlns="http://www.w3.org/2000/svg">
<path d="M77.2308 24.6954L80.2648 34.0332H90.0828C90.4671 34.0332 90.8415 34.1548 91.1524 34.3807C91.4633 34.6066 91.6947 34.9251 91.8135 35.2906C91.9323 35.6561 91.9324 36.0498 91.8136 36.4153C91.6949 36.7808 91.4636 37.0993 91.1527 37.3252L83.2094 43.0967L86.2434 52.4345C86.3622 52.8 86.3623 53.1938 86.2435 53.5593C86.1248 53.9249 85.8933 54.2434 85.5824 54.4693C85.2714 54.6952 84.8969 54.8168 84.5126 54.8168C84.1283 54.8167 83.7538 54.6949 83.4429 54.4689L75.5 48.6974L67.557 54.4689C67.2461 54.6949 66.8717 54.8167 66.4873 54.8168C66.103 54.8168 65.7285 54.6952 65.4175 54.4693C65.1066 54.2434 64.8751 53.9249 64.7564 53.5593C64.6376 53.1938 64.6377 52.8 64.7565 52.4345L67.7905 43.0961L59.8472 37.3247C59.5364 37.0987 59.305 36.7802 59.1863 36.4147C59.0676 36.0492 59.0676 35.6555 59.1864 35.29C59.3052 34.9245 59.5366 34.606 59.8475 34.3801C60.1584 34.1542 60.5328 34.0326 60.9171 34.0326H70.7351L73.7691 24.6948C73.8879 24.3293 74.1194 24.0108 74.4304 23.7849C74.7413 23.559 75.1158 23.4374 75.5002 23.4375C75.8845 23.4376 76.2589 23.5593 76.5698 23.7853C76.8807 24.0112 77.1121 24.3298 77.2308 24.6954ZM40.649 41.7579L43.0513 49.155H50.8291C51.1334 49.1552 51.4298 49.2516 51.676 49.4305C51.9221 49.6094 52.1053 49.8617 52.1994 50.1511C52.2935 50.4404 52.2936 50.7522 52.1997 51.0416C52.1058 51.3311 51.9227 51.5834 51.6766 51.7625L45.3842 56.3328L47.7866 63.7299C47.8805 64.0195 47.8804 64.3313 47.7862 64.6208C47.6921 64.9102 47.5087 65.1625 47.2624 65.3414C47.0162 65.5202 46.7196 65.6166 46.4152 65.6165C46.1108 65.6165 45.8142 65.5202 45.5679 65.3413L39.2755 60.7695L32.9832 65.3413C32.7369 65.52 32.4403 65.6163 32.136 65.6163C31.8317 65.6162 31.5352 65.5199 31.289 65.341C31.0427 65.1622 30.8594 64.91 30.7653 64.6206C30.6711 64.3312 30.6709 64.0194 30.7648 63.7299L33.1671 56.3328L26.8748 51.7625C26.6287 51.5834 26.4457 51.3311 26.3517 51.0417C26.2578 50.7523 26.2579 50.4406 26.3519 50.1512C26.446 49.8618 26.6291 49.6096 26.8752 49.4307C27.1213 49.2517 27.4177 49.1552 27.722 49.155H35.4998L37.9021 41.7579C37.9951 41.4666 38.1782 41.2124 38.4251 41.0321C38.672 40.8517 38.9698 40.7545 39.2755 40.7545C39.5813 40.7545 39.8791 40.8517 40.126 41.0321C40.3729 41.2124 40.556 41.4666 40.649 41.7579ZM21.6869 72.2266L24.0892 79.6238H31.8681C32.1724 79.624 32.4688 79.7205 32.7149 79.8994C32.961 80.0783 33.1442 80.3306 33.2382 80.6199C33.3323 80.9093 33.3323 81.221 33.2384 81.5105C33.1445 81.7999 32.9614 82.0522 32.7154 82.2312L26.423 86.8015L28.8253 94.1987C28.9192 94.4882 28.919 94.7999 28.8249 95.0893C28.7307 95.3787 28.5474 95.6309 28.3012 95.8098C28.055 95.9886 27.7585 96.085 27.4541 96.085C27.1498 96.0851 26.8533 95.9888 26.607 95.81L20.3158 91.2406L14.0234 95.8124C13.7771 95.9913 13.4805 96.0876 13.1762 96.0876C12.8718 96.0876 12.5752 95.9913 12.3289 95.8124C12.0826 95.6336 11.8992 95.3813 11.8051 95.0919C11.7109 94.8024 11.7108 94.4906 11.8047 94.201L14.2071 86.8039L7.9147 82.2335C7.66865 82.0545 7.48556 81.8022 7.39166 81.5127C7.29775 81.2233 7.29784 80.9115 7.39191 80.6221C7.48598 80.3327 7.66921 80.0805 7.91536 79.9016C8.16151 79.7227 8.45796 79.6263 8.76226 79.6261H16.5412L18.9435 72.229C19.0371 71.9389 19.2202 71.686 19.4665 71.5065C19.7127 71.327 20.0096 71.2302 20.3143 71.2299C20.6191 71.2297 20.9161 71.326 21.1627 71.5051C21.4093 71.6841 21.5928 71.9367 21.6869 72.2266ZM131.843 72.2266L134.245 79.6238H142.024C142.329 79.624 142.625 79.7205 142.871 79.8994C143.117 80.0783 143.3 80.3306 143.394 80.6199C143.489 80.9093 143.489 81.221 143.395 81.5105C143.301 81.7999 143.118 82.0522 142.872 82.2312L136.579 86.8015L138.982 94.1987C139.075 94.4882 139.075 94.7999 138.981 95.0893C138.887 95.3787 138.704 95.6309 138.457 95.8098C138.211 95.9886 137.915 96.085 137.61 96.085C137.306 96.0851 137.01 95.9888 136.763 95.81L130.471 91.2382L124.18 95.8124C123.933 95.9913 123.637 96.0876 123.332 96.0876C123.028 96.0876 122.731 95.9913 122.485 95.8124C122.239 95.6336 122.055 95.3813 121.961 95.0919C121.867 94.8024 121.867 94.4906 121.961 94.201L124.363 86.8039L118.071 82.2335C117.825 82.0545 117.642 81.8022 117.548 81.5127C117.454 81.2233 117.454 80.9115 117.548 80.6221C117.642 80.3327 117.825 80.0805 118.072 79.9016C118.318 79.7227 118.614 79.6263 118.919 79.6261H126.696L129.099 72.229C129.192 71.9385 129.375 71.6851 129.621 71.5053C129.868 71.3254 130.165 71.2284 130.47 71.2281C130.775 71.2278 131.072 71.3244 131.319 71.5038C131.566 71.6832 131.749 71.9363 131.843 72.2266ZM113.093 41.7579L115.495 49.155H123.274C123.579 49.1552 123.875 49.2517 124.121 49.4307C124.367 49.6096 124.55 49.8618 124.644 50.1512C124.739 50.4406 124.739 50.7523 124.645 51.0417C124.551 51.3311 124.368 51.5834 124.122 51.7625L117.829 56.3328L120.232 63.7299C120.325 64.0194 120.325 64.3312 120.231 64.6206C120.137 64.91 119.954 65.1622 119.707 65.341C119.461 65.5199 119.165 65.6162 118.86 65.6163C118.556 65.6163 118.26 65.52 118.013 65.3413L111.721 60.7695L105.43 65.3436C105.183 65.5225 104.887 65.6189 104.582 65.6189C104.278 65.6189 103.981 65.5226 103.735 65.3437C103.489 65.1648 103.305 64.9126 103.211 64.6231C103.117 64.3337 103.117 64.0218 103.211 63.7323L105.613 56.3351L99.321 51.7648C99.0749 51.5857 98.8918 51.3334 98.7979 51.044C98.704 50.7545 98.7041 50.4428 98.7981 50.1534C98.8922 49.864 99.0755 49.6118 99.3216 49.4329C99.5678 49.254 99.8642 49.1575 100.169 49.1574H107.946L110.349 41.7602C110.442 41.4697 110.625 41.2163 110.871 41.0365C111.118 40.8567 111.415 40.7596 111.72 40.7594C112.025 40.7591 112.322 40.8556 112.569 41.0351C112.816 41.2145 112.999 41.4676 113.093 41.7579Z" fill="#FBB540"/>
<path d="M42.6875 91.6104H61.4375V124.423H42.6875V91.6104Z" fill="#0296E5"/>
<path d="M103.625 91.6113H84.875V77.5488C84.875 75.684 84.1342 73.8956 82.8156 72.577C81.497 71.2584 79.7086 70.5176 77.8438 70.5176H73.1562L72.2949 76.5478C71.8376 79.7492 70.6108 82.7921 68.7199 85.4156C66.8289 88.0391 64.3301 90.1651 61.4375 91.6113V124.424L63.5621 125.84C66.7614 127.973 70.5205 129.111 74.3656 129.111H101.281C102.524 129.111 103.717 128.617 104.596 127.738C105.475 126.859 105.969 125.667 105.969 124.424C105.969 123.181 105.475 121.988 104.596 121.109C103.717 120.23 102.524 119.736 101.281 119.736C102.524 119.736 103.717 119.242 104.596 118.363C105.475 117.484 105.969 116.292 105.969 115.049C105.969 113.806 105.475 112.613 104.596 111.734C103.717 110.855 102.524 110.361 101.281 110.361C102.524 110.361 103.717 109.867 104.596 108.988C105.475 108.109 105.969 106.917 105.969 105.674C105.969 104.431 105.475 103.238 104.596 102.359C103.717 101.48 102.524 100.986 101.281 100.986H103.625C104.868 100.986 106.06 100.492 106.94 99.6134C107.819 98.7343 108.312 97.542 108.312 96.2988C108.312 95.0556 107.819 93.8633 106.94 92.9843C106.06 92.1052 104.868 91.6113 103.625 91.6113Z" fill="#FDC9A6"/>
</svg>
