<svg width="22" height="22" viewBox="0 0 22 22" fill="none" xmlns="http://www.w3.org/2000/svg">
<path d="M18.75 10.5413C18.75 15.0747 15.075 18.7497 10.5416 18.7497C6.00831 18.7497 2.33331 15.0747 2.33331 10.5413C2.33331 6.008 6.00831 2.33301 10.5416 2.33301C15.075 2.33301 18.75 6.008 18.75 10.5413Z" stroke="#797979"/>
<path d="M19.525 20.167C19.36 20.167 19.195 20.1028 19.0758 19.9837L17.3708 18.2787C17.1233 18.0312 17.1233 17.6278 17.3708 17.3712C17.6183 17.1237 18.0216 17.1237 18.2783 17.3712L19.9833 19.0762C20.2308 19.3237 20.2308 19.727 19.9833 19.9837C19.855 20.1028 19.69 20.167 19.525 20.167Z" fill="#797979"/>
</svg>
