<svg width="40" height="40" viewBox="0 0 40 40" fill="none" xmlns="http://www.w3.org/2000/svg">
<rect width="40" height="40" rx="20" fill="#F7F7F7"/>
<path d="M26.6663 20.0003V25.0003C26.6663 26.842 25.1747 28.3337 23.333 28.3337H16.6663C14.8247 28.3337 13.333 26.842 13.333 25.0003V20.0003C13.333 19.542 13.708 19.167 14.1663 19.167H15.808C16.2663 19.167 16.6413 19.542 16.6413 20.0003V22.617C16.6413 23.2337 16.983 23.8003 17.5247 24.092C17.7663 24.2253 18.033 24.292 18.308 24.292C18.6247 24.292 18.9413 24.2003 19.2163 24.017L20.008 23.5003L20.7413 23.992C21.2497 24.3337 21.8997 24.3753 22.4413 24.0837C22.9913 23.792 23.333 23.2337 23.333 22.6087V20.0003C23.333 19.542 23.708 19.167 24.1663 19.167H25.833C26.2913 19.167 26.6663 19.542 26.6663 20.0003Z" fill="#131313"/>
<path d="M27.9163 15.8337V16.667C27.9163 17.5837 27.4747 18.3337 26.2497 18.3337H13.7497C12.4747 18.3337 12.083 17.5837 12.083 16.667V15.8337C12.083 14.917 12.4747 14.167 13.7497 14.167H26.2497C27.4747 14.167 27.9163 14.917 27.9163 15.8337Z" fill="#131313"/>
<path d="M19.7 14.1669H15.1C14.8166 13.8585 14.825 13.3835 15.125 13.0835L16.3083 11.9002C16.6167 11.5919 17.125 11.5919 17.4333 11.9002L19.7 14.1669Z" fill="#131313"/>
<path d="M24.892 14.1669H20.292L22.5587 11.9002C22.867 11.5919 23.3753 11.5919 23.6837 11.9002L24.867 13.0835C25.167 13.3835 25.1753 13.8585 24.892 14.1669Z" fill="#131313"/>
<path d="M21.6419 19.167C22.1002 19.167 22.4752 19.542 22.4752 20.0003V22.6087C22.4752 23.2753 21.7335 23.6753 21.1835 23.3003L20.4335 22.8003C20.1585 22.617 19.8002 22.617 19.5169 22.8003L18.7335 23.317C18.1835 23.6837 17.4502 23.2837 17.4502 22.6253V20.0003C17.4502 19.542 17.8252 19.167 18.2835 19.167H21.6419Z" fill="#131313"/>
</svg>
