<svg width="300" height="147" viewBox="0 0 300 147" fill="none" xmlns="http://www.w3.org/2000/svg">
<path d="M98.717 53.4777C98.6524 52.0621 98.8262 50.6813 99.1938 49.3602C95.5431 48.7045 92.3643 48.1333 91.3958 47.9595C90.5514 47.8105 90.0001 47.5373 89.7666 46.5837C89.3941 45.0489 88.8279 43.5638 88.3362 42.0588C87.9587 40.9065 87.2385 40.2559 85.9421 40.2559C71.6325 40.2708 57.3279 40.2708 43.0183 40.2559C41.7219 40.2559 41.0067 40.9115 40.6292 42.0638C40.1524 43.5191 39.616 44.9645 39.2335 46.4446C38.9901 47.3933 38.5232 47.8006 37.5646 47.9694C34.9769 48.4264 32.3891 48.8883 29.8014 49.3552C29.9057 50.0009 29.9752 50.6565 30.005 51.3221C30.0497 52.3006 29.9752 53.2592 29.8113 54.1929C32.7716 53.6466 35.7319 53.1002 38.6872 52.5439C39.5067 52.39 40.0679 52.6035 40.6491 53.1946C44.6921 57.3022 48.7749 61.3701 52.8378 65.4628C54.3279 66.9628 55.5348 66.9578 57.0348 65.4429C59.2352 63.2178 61.4752 61.0324 63.6458 58.7774C64.2617 58.1367 64.6093 58.0473 65.2749 58.7426C67.4355 61.0075 69.6855 63.183 71.8858 65.4131C73.4355 66.9827 74.6027 66.9727 76.1822 65.3833C80.2451 61.2956 84.3328 57.2327 88.3809 53.13C88.9371 52.5688 89.4736 52.4049 90.2236 52.5439C93.0646 53.0704 95.9057 53.5969 98.7418 54.1184C98.7418 53.9049 98.7269 53.6913 98.717 53.4777ZM59.9206 55.7724C58.4852 57.2128 57.0249 58.6333 55.6093 60.0986C55.1325 60.5953 54.8295 60.6648 54.303 60.1333C50.8511 56.6366 47.3593 53.1698 43.8924 49.688C43.4951 49.2857 43.8676 46.5141 44.3593 46.3204C44.5332 46.2509 44.8312 46.3949 45.0348 46.5092C49.9719 49.2459 54.909 51.9876 59.8411 54.7443C60.0299 54.8486 60.3527 54.8535 60.3527 55.2857C60.2385 55.4098 60.0895 55.6035 59.9206 55.7724ZM65.0117 51.5804C64.6044 51.8088 64.2766 51.7393 63.914 51.5307C60.1789 49.4446 56.4438 47.3635 52.361 45.0886H76.6391C72.5365 47.3784 68.7666 49.4694 65.0117 51.5804ZM85.0531 49.7178C81.5862 53.1996 78.1093 56.6714 74.6325 60.1433C74.4636 60.3122 74.2749 60.4612 74.0365 60.6747C73.813 60.481 73.6242 60.337 73.4554 60.1731C71.9802 58.7029 70.515 57.2178 69.0249 55.7625C68.5381 55.2906 68.5382 55.0323 69.164 54.6896C74.111 51.9727 79.0381 49.2261 83.9752 46.4893C84.1838 46.3751 84.3825 46.1764 84.6408 46.3403C85.1424 46.6631 85.4802 49.2956 85.0531 49.7178Z" fill="#1D396A"/>
<path d="M64.654 75.2775C62.6375 75.3222 60.8444 73.6583 60.7451 71.6467C60.6458 69.5607 62.4587 67.6981 64.5746 67.713C66.6507 67.7279 68.2848 69.367 68.2997 71.458C68.3246 73.559 66.7203 75.2328 64.654 75.2775Z" fill="#1D396A"/>
<path d="M64.654 88.9309C62.6375 88.9756 60.8444 87.3117 60.7451 85.3001C60.6458 83.214 62.4587 81.3514 64.5746 81.3663C66.6507 81.3812 68.2848 83.0203 68.2997 85.1113C68.3246 87.2074 66.7203 88.8812 64.654 88.9309Z" fill="#1D396A"/>
<path d="M64.654 102.014C62.6375 102.059 60.8444 100.395 60.7451 98.3831C60.6458 96.297 62.4587 94.4344 64.5746 94.4493C66.6507 94.4642 68.2848 96.1033 68.2997 98.1943C68.3246 100.29 66.7203 101.969 64.654 102.014Z" fill="#1D396A"/>
<path d="M30.9884 76.1123C30.9884 94.6189 45.9884 109.619 64.495 109.619C83.0017 109.619 98.0017 94.6189 98.0017 76.1123" stroke="#F05323" stroke-width="3.97351" stroke-miterlimit="10"/>
<path d="M98.0016 76.8132L97.5944 49.3711" stroke="#1D396A" stroke-width="3.97351" stroke-miterlimit="10"/>
<path d="M30.9884 77.3391C31.1324 68.0261 31.2815 58.7132 31.4255 49.4053" stroke="#1D396A" stroke-width="3.97351" stroke-miterlimit="10"/>
<path d="M124.947 42.0947V70.3811H148.46V79.2123H124.947V83.6278C124.947 96.7553 139.783 106.783 152.916 106.903V115.734C134.891 115.734 116.116 102.005 116.116 83.9855V42.0947H124.947Z" fill="#1D396A"/>
<path d="M183.214 51.983V60.8141C170.086 59.8803 159.462 70.4995 159.462 83.632V115.738H150.631V83.632C150.631 65.6071 165.189 51.0492 183.214 51.983Z" fill="#1D396A"/>
<path d="M193.838 41.7372C190.495 41.7372 187.873 38.9905 187.873 35.772C187.873 32.4292 190.5 29.8018 193.838 29.8018C197.18 29.8018 199.808 32.4292 199.808 35.772C199.808 38.9905 197.18 41.7372 193.838 41.7372ZM198.253 51.7653V115.744H189.422V51.7653H198.253Z" fill="#1D396A"/>
<path d="M269.752 83.6326C269.752 101.657 255.189 116.335 237.169 116.335C219.149 116.335 204.467 101.652 204.467 83.6326C204.467 65.6127 219.149 51.0498 237.169 51.0498C255.189 51.0498 269.752 65.6077 269.752 83.6326ZM260.915 83.6326C260.915 70.5051 250.291 59.8809 237.164 59.8809C224.036 59.8809 213.293 70.5051 213.293 83.6326C213.293 96.7601 224.036 107.503 237.164 107.503C250.291 107.503 260.915 96.7601 260.915 83.6326Z" fill="#1D396A"/>
</svg>
