<svg width="40" height="40" viewBox="0 0 40 40" fill="none" xmlns="http://www.w3.org/2000/svg">
<rect width="40" height="40" rx="20" fill="white"/>
<path d="M28.7165 14.9997C28.0749 15.2913 27.3832 15.483 26.6665 15.5747C27.3999 15.133 27.9665 14.433 28.2332 13.5913C27.5415 14.008 26.7749 14.2997 25.9665 14.4663C25.3082 13.7497 24.3832 13.333 23.3332 13.333C21.3749 13.333 19.7749 14.933 19.7749 16.908C19.7749 17.1913 19.8082 17.4663 19.8665 17.7247C16.8999 17.5747 14.2582 16.1497 12.4999 13.9913C12.1915 14.5163 12.0165 15.133 12.0165 15.783C12.0165 17.0247 12.6415 18.1247 13.6082 18.7497C13.0165 18.7497 12.4665 18.583 11.9832 18.333V18.358C11.9832 20.0913 13.2165 21.5413 14.8499 21.8663C14.3255 22.0098 13.7749 22.0298 13.2415 21.9247C13.4679 22.6351 13.9112 23.2567 14.5091 23.7021C15.107 24.1476 15.8294 24.3944 16.5749 24.408C15.3112 25.4084 13.7449 25.9491 12.1332 25.9413C11.8499 25.9413 11.5665 25.9247 11.2832 25.8913C12.8665 26.908 14.7499 27.4997 16.7665 27.4997C23.3332 27.4997 26.9415 22.0497 26.9415 17.3247C26.9415 17.1663 26.9415 17.0163 26.9332 16.858C27.6332 16.358 28.2332 15.7247 28.7165 14.9997Z" fill="#1D396A"/>
</svg>
