<svg width="48" height="48" viewBox="0 0 48 48" fill="none" xmlns="http://www.w3.org/2000/svg">
<rect width="48" height="48" rx="24" fill="#E6E6E6"/>
<g clip-path="url(#clip0_441_3867)">
<path d="M31.9689 21.372H26.1268L30.7084 13.042C30.9661 12.5734 30.627 12 30.0922 12H21.6553C21.5103 12 21.3688 12.0448 21.2503 12.1284C21.1318 12.2119 21.0419 12.3301 20.9932 12.4666L16.3067 25.5887C16.1432 26.0466 16.4826 26.5283 16.9689 26.5283H23.6128L21.9041 35.1573C21.7568 35.9011 22.7288 36.3191 23.1674 35.7007L32.5424 22.4819C32.8726 22.0163 32.5396 21.372 31.9689 21.372Z" fill="#131313"/>
<path d="M19.869 34.4864C20.2498 34.5625 20.6202 34.3155 20.6964 33.9348L21.7275 28.7785C21.8037 28.3977 21.5567 28.0273 21.176 27.9511C20.7952 27.875 20.4247 28.122 20.3486 28.5027L19.3174 33.659C19.2412 34.0398 19.4882 34.4102 19.869 34.4864ZM13.9199 26.0029C14.2857 26.1335 14.688 25.943 14.8186 25.5773L17.8319 17.1397C17.9625 16.774 17.772 16.3717 17.4063 16.2411C17.0406 16.1105 16.6382 16.3011 16.5076 16.6668L13.4943 25.1043C13.3637 25.47 13.5542 25.8723 13.9199 26.0029ZM32.6874 12.3644L30.1093 17.0519C29.9221 17.3922 30.0463 17.8197 30.3865 18.0068C30.7267 18.194 31.1543 18.0699 31.3414 17.7296L33.9196 13.0421C34.1067 12.7019 33.9826 12.2744 33.6424 12.0872C33.3021 11.9 32.8746 12.0241 32.6874 12.3644ZM25.6466 35.8727C25.9648 36.0955 26.4032 36.0182 26.6259 35.7001L29.9742 30.9188C30.197 30.6007 30.1197 30.1623 29.8016 29.9396L29.8016 29.9395C29.4835 29.7168 29.0451 29.7941 28.8223 30.1121L25.474 34.8934C25.2512 35.2116 25.3285 35.65 25.6466 35.8727ZM33.2715 23.8832L31.5974 26.227C31.3717 26.543 31.4449 26.9821 31.7609 27.2078H31.7609C32.0769 27.4335 32.516 27.3604 32.7417 27.0444L34.4159 24.7006C34.6416 24.3846 34.5684 23.9455 34.2524 23.7198C33.9364 23.494 33.4972 23.5672 33.2715 23.8832Z" fill="#131313"/>
</g>
<defs>
<clipPath id="clip0_441_3867">
<rect width="24" height="24" fill="white" transform="translate(12 12)"/>
</clipPath>
</defs>
</svg>
