<svg width="40" height="40" viewBox="0 0 40 40" fill="none" xmlns="http://www.w3.org/2000/svg">
<rect width="40" height="40" rx="20" fill="#F7F7F7"/>
<path d="M19.9497 11.8419L17.9413 16.5169H15.933C15.5997 16.5169 15.2747 16.5419 14.958 16.6085L15.7913 14.6085L15.8247 14.5335L15.8747 14.4002C15.8997 14.3419 15.9163 14.2919 15.9413 14.2502C16.908 12.0085 17.9913 11.3085 19.9497 11.8419Z" fill="#131313"/>
<path d="M25.6079 16.7413L25.5913 16.7329C25.0913 16.5913 24.5829 16.5163 24.0663 16.5163H18.8496L20.7246 12.1579L20.7496 12.0996C20.8663 12.1413 20.9913 12.1996 21.1163 12.2413L22.9579 13.0163C23.9829 13.4413 24.6996 13.8829 25.1413 14.4163C25.2163 14.5163 25.2829 14.6079 25.3496 14.7163C25.4246 14.8329 25.4829 14.9496 25.5163 15.0746C25.5496 15.1496 25.5746 15.2163 25.5913 15.2913C25.7163 15.7163 25.7246 16.1996 25.6079 16.7413Z" fill="#131313"/>
<path d="M25.2412 17.9333C24.8662 17.8249 24.4745 17.7666 24.0662 17.7666H15.9329C15.3662 17.7666 14.8329 17.8749 14.3329 18.0916C12.8829 18.7166 11.8662 20.1583 11.8662 21.8333V23.4583C11.8662 23.6583 11.8829 23.8499 11.9079 24.0499C12.0912 26.6999 13.5079 28.1166 16.1579 28.2916C16.3495 28.3166 16.5412 28.3333 16.7495 28.3333H23.2495C26.3329 28.3333 27.9579 26.8666 28.1162 23.9499C28.1245 23.7916 28.1329 23.6249 28.1329 23.4583V21.8333C28.1329 19.9916 26.9079 18.4416 25.2412 17.9333ZM22.0829 23.9583H17.9162C17.5745 23.9583 17.2912 23.6749 17.2912 23.3333C17.2912 22.9916 17.5745 22.7083 17.9162 22.7083H22.0829C22.4245 22.7083 22.7079 22.9916 22.7079 23.3333C22.7079 23.6749 22.4245 23.9583 22.0829 23.9583Z" fill="#131313"/>
</svg>
