<svg width="62" height="62" viewBox="0 0 62 62" fill="none" xmlns="http://www.w3.org/2000/svg">
<rect width="62" height="62" rx="31" fill="#F05323"/>
<path d="M30.9203 17.9468L27.7069 25.4268H24.4936C23.9603 25.4268 23.4403 25.4668 22.9336 25.5734L24.2669 22.3734L24.3203 22.2534L24.4003 22.0401C24.4403 21.9468 24.4669 21.8668 24.5069 21.8001C26.0536 18.2134 27.7869 17.0934 30.9203 17.9468Z" fill="white"/>
<path d="M39.9735 25.787L39.9468 25.7737C39.1468 25.547 38.3335 25.427 37.5068 25.427H29.1602L32.1602 18.4537L32.2002 18.3604C32.3868 18.427 32.5868 18.5204 32.7868 18.587L35.7335 19.827C37.3735 20.507 38.5202 21.2137 39.2268 22.067C39.3468 22.227 39.4535 22.3737 39.5602 22.547C39.6802 22.7337 39.7735 22.9204 39.8268 23.1204C39.8802 23.2404 39.9202 23.347 39.9468 23.467C40.1468 24.147 40.1602 24.9204 39.9735 25.787Z" fill="white"/>
<path d="M39.3863 27.6934C38.7863 27.5201 38.1597 27.4268 37.5063 27.4268H24.493C23.5863 27.4268 22.733 27.6001 21.933 27.9468C19.613 28.9468 17.9863 31.2534 17.9863 33.9334V36.5334C17.9863 36.8534 18.013 37.1601 18.053 37.4801C18.3463 41.7201 20.613 43.9868 24.853 44.2668C25.1597 44.3068 25.4663 44.3334 25.7997 44.3334H36.1997C41.133 44.3334 43.733 41.9868 43.9863 37.3201C43.9997 37.0668 44.013 36.8001 44.013 36.5334V33.9334C44.013 30.9868 42.053 28.5068 39.3863 27.6934ZM34.333 37.3334H27.6663C27.1197 37.3334 26.6663 36.8801 26.6663 36.3334C26.6663 35.7868 27.1197 35.3334 27.6663 35.3334H34.333C34.8797 35.3334 35.333 35.7868 35.333 36.3334C35.333 36.8801 34.8797 37.3334 34.333 37.3334Z" fill="white"/>
</svg>
